<?xml version="1.0" standalone="no"?>
<!DOCTYPE svg PUBLIC "-//W3C//DTD SVG 1.1//EN" "http://www.w3.org/Graphics/SVG/1.1/DTD/svg11.dtd" >
<svg xmlns="http://www.w3.org/2000/svg" xmlns:xlink="http://www.w3.org/1999/xlink" version="1.1">
<metadata>
Created by FontForge 20170731 at Fri Jul 22 02:25:44 2016
 By Aleksey,,,
Copyright (c) 2015 by Radomir Tinkov. All rights reserved.
</metadata>
<defs>
<font id="Gilroy-ExtraboldItalic" horiz-adv-x="580" >
  <font-face 
    font-family="Gilroy"
    font-weight="800"
    font-style="italic"
    font-stretch="normal"
    units-per-em="1000"
    panose-1="0 0 9 0 0 0 0 0 0 0"
    ascent="773"
    descent="-227"
    x-height="500"
    cap-height="700"
    bbox="-394 -270 1109.5 980"
    underline-thickness="50"
    underline-position="-250"
    slope="-10"
    unicode-range="U+0020-FB02"
  />
<missing-glyph horiz-adv-x="500" 
d="M93 800h317v-1000h-317v1000zM333 700v33h-165v-33h65v-37h-66v-33h166v33h-66v37h66zM267 534v70h-100v-104h166v34h-66zM200 570h33v-36h-33v36zM333 440v33h-166v-33h66v-37h-66v-33h100v70h66zM333 313v100h-33v-66h-133v-34h166zM333 178v113h-100v-56h34v23h33v-47
h-100v80h-33v-113h166zM333 5v113h-166v-113h166zM200 85h100v-47h-100v47zM333 -51v33h-166v-33h70l-70 -47v-33h166v33h-102l70 47h32z" />
    <glyph glyph-name="fi" unicode="fi" horiz-adv-x="570" 
d="M281 500h278l-88 -500h-150l63 356h-128l-63 -356h-150l63 356h-67l25 144h67q19 111 87 162.5t194 51.5q55 0 122 -14l-24 -138q-46 8 -100 8q-117 0 -129 -70z" />
    <glyph glyph-name="fl" unicode="fl" horiz-adv-x="570" 
d="M412 714q78 0 181 -24l-122 -690h-150l102 583q-7 1 -34 1q-95 0 -108 -84h73l-25 -144h-73l-63 -356h-150l63 356h-67l25 144h67q19 111 87 162.5t194 51.5z" />
    <glyph glyph-name="f_f" unicode="ff" horiz-adv-x="610" 
d="M694 724l-26 -144q-92 8 -105 -70l-2 -10h93l-25 -144h-93l-63 -356h-150l63 356h-130l-63 -356h-150l63 356h-67l25 144h67q40 229 281 214l-25 -144q-93 7 -106 -70h130l2 10q40 229 281 214z" />
    <glyph glyph-name="f_f_i" unicode="ffi" horiz-adv-x="850" 
d="M561 500h278l-88 -500h-150l63 356h-128l-63 -356h-150l63 356h-130l-63 -356h-150l63 356h-67l25 144h67q40 229 281 214l-25 -144q-93 7 -106 -70h130l2 10q19 110 85 162t186 52q65 0 132 -14l-24 -138q-46 8 -100 8q-117 0 -129 -70z" />
    <glyph glyph-name="f_f_l" unicode="ffl" horiz-adv-x="850" 
d="M694 724q78 0 180 -24l-123 -700h-150l104 593q-7 1 -34 1q-95 0 -108 -84l-2 -10h73l-25 -144h-73l-63 -356h-150l63 356h-130l-63 -356h-150l63 356h-67l25 144h67q40 229 281 214l-25 -144q-93 7 -106 -70h130l2 10q19 111 87 162.5t194 51.5z" />
    <glyph glyph-name=".notdef" horiz-adv-x="500" 
d="M93 800h317v-1000h-317v1000zM333 700v33h-165v-33h65v-37h-66v-33h166v33h-66v37h66zM267 534v70h-100v-104h166v34h-66zM200 570h33v-36h-33v36zM333 440v33h-166v-33h66v-37h-66v-33h100v70h66zM333 313v100h-33v-66h-133v-34h166zM333 178v113h-100v-56h34v23h33v-47
h-100v80h-33v-113h166zM333 5v113h-166v-113h166zM200 85h100v-47h-100v47zM333 -51v33h-166v-33h70l-70 -47v-33h166v33h-102l70 47h32z" />
    <glyph glyph-name=".null" horiz-adv-x="0" 
 />
    <glyph glyph-name="nonmarkingreturn" horiz-adv-x="333" 
 />
    <glyph glyph-name="space" unicode=" " horiz-adv-x="250" 
 />
    <glyph glyph-name="exclam" unicode="!" horiz-adv-x="280" 
d="M200 250h-120l14 250l35 200h180l-35 -200zM93 -14q-39 0 -62 29t-16 68t38.5 66t73.5 27q39 0 62 -29t16 -68q-7 -40 -38.5 -66.5t-73.5 -26.5z" />
    <glyph glyph-name="quotedbl" unicode="&#x22;" horiz-adv-x="400" 
d="M197 460h-100l22 240h140zM377 460h-100l22 240h140z" />
    <glyph glyph-name="numbersign" unicode="#" horiz-adv-x="621" 
d="M645 500l-37 -110h-105l-28 -80h106l-37 -110h-106l-52 -150h-114l52 150h-92l-52 -150h-114l52 150h-107l38 110h106l28 80h-107l37 110h108l51 150h114l-51 -150h92l51 150h114l-51 -150h104zM269 310h92l28 80h-92z" />
    <glyph glyph-name="dollar" unicode="$" horiz-adv-x="559" 
d="M376 547l-23 -131q90 -41 119 -66q74 -62 55 -169q-15 -88 -81.5 -138.5t-168.5 -55.5l-15 -87h-70l16 89q-80 10 -133.5 52t-72.5 108l146 75q22 -68 87 -81l25 143h-1l-1 1q-85 36 -131 81q-56 54 -39 152q17 94 87 143t161 51l15 86h70l-17 -94q55 -13 97 -49.5
t64 -90.5l-141 -74q-20 39 -48 55zM251 507q-5 -34 38 -59l19 111q-51 -8 -57 -52zM362 199q6 36 -37 58l-20 -113q48 14 57 55z" />
    <glyph glyph-name="percent" unicode="%" horiz-adv-x="784" 
d="M241 374q-76 0 -117 50q-41 51 -32 118q9 69 62 121q53 51 137 51q79 0 120 -57t26 -127q-16 -68 -68 -112t-128 -44zM161 69l-64 42l539 501l64 -41zM318 544q4 24 -7.5 39.5t-35.5 15.5q-23 0 -40.5 -16t-21.5 -39q-5 -23 7 -39t35 -16t41 16.5t22 38.5zM530 -12
q-78 0 -118 52q-41 53 -30 121q10 68 63 118q52 49 135 49q77 0 118 -56q42 -55 28 -124q-14 -68 -66 -114q-50 -46 -130 -46zM607 158q4 24 -7.5 39.5t-35.5 15.5q-23 0 -40 -15.5t-22 -39.5q-5 -23 7 -39t35 -16t41 16.5t22 38.5z" />
    <glyph glyph-name="ampersand" unicode="&#x26;" horiz-adv-x="691" 
d="M521 367l131 -80q-39 -85 -94 -151l75 -104l-135 -71l-55 76q-87 -51 -193 -51q-116 0 -176 64q-59 65 -41 159q26 125 152 192q-27 58 -16 123q15 87 83 139q69 51 166 51q168 0 219 -153l-146 -77q-24 74 -87 74q-31 0 -52.5 -16.5t-25.5 -45.5q-3 -23 6 -43.5
t33 -52.5l104 -143q27 44 52 110zM286 132q38 0 75 17l-100 137l-8 11q-48 -31 -57 -81q-6 -37 17.5 -60.5t72.5 -23.5z" />
    <glyph glyph-name="quotesingle" unicode="'" horiz-adv-x="220" 
d="M197 460h-100l22 240h140z" />
    <glyph glyph-name="parenleft" unicode="(" horiz-adv-x="320" 
d="M248 -100h-150q-72 216 -29 460q41 232 188 440h150q-149 -218 -189 -450t30 -450z" />
    <glyph glyph-name="parenright" unicode=")" horiz-adv-x="319" 
d="M107 800h150q72 -216 29 -460q-41 -232 -188 -440h-150q149 218 189 450t-30 450z" />
    <glyph glyph-name="asterisk" unicode="*" horiz-adv-x="400" 
d="M322 599l91 9l-15 -88l-89 9l43 -69l-77 -46l-27 85l-57 -85l-69 46l67 69l-91 -9l15 88l89 -9l-43 69l77 46l27 -85l57 85l69 -46z" />
    <glyph glyph-name="plus" unicode="+" horiz-adv-x="560" 
d="M380 420h160l-25 -140h-160l-28 -160h-140l28 160h-160l25 140h160l28 160h140z" />
    <glyph glyph-name="comma" unicode="," horiz-adv-x="290" 
d="M68 155h160l-132 -295h-120z" />
    <glyph glyph-name="hyphen" unicode="-" horiz-adv-x="500" 
d="M436 227h-380l25 144h380z" />
    <glyph glyph-name="period" unicode="." horiz-adv-x="280" 
d="M93 -14q-39 0 -61.5 29t-15.5 68q7 40 38.5 66.5t72.5 26.5q39 0 62 -29t16 -68q-7 -40 -38.5 -66.5t-73.5 -26.5z" />
    <glyph glyph-name="slash" unicode="/" horiz-adv-x="520" 
d="M587 800l-554 -900h-65l554 900h65z" />
    <glyph glyph-name="zero" unicode="0" horiz-adv-x="630" 
d="M279 -14q-136 0 -198 104q-61 104 -32 270q28 163 118 259q89 95 220 95q135 0 197 -105q61 -102 32 -269q-28 -163 -118 -259q-89 -95 -219 -95zM296 142q123 0 160 208t-87 208q-123 0 -160 -208t87 -208z" />
    <glyph glyph-name="one" unicode="1" horiz-adv-x="404" 
d="M78 634l195 66h140l-123 -700h-160l92 525l-129 -34z" />
    <glyph glyph-name="two" unicode="2" horiz-adv-x="534" 
d="M455 0h-476l20 116l278 244q84 73 93 124q6 33 -10 53.5t-48 20.5q-65 0 -114 -79l-128 82q47 75 115 114t148 39q93 0 155 -66q61 -64 43 -167q-11 -59 -43.5 -107t-94.5 -103l-136 -117h225z" />
    <glyph glyph-name="three" unicode="3" horiz-adv-x="550" 
d="M121 700h450l-22 -130l-147 -158q62 -28 92.5 -81.5t18.5 -120.5q-20 -111 -98 -167q-78 -57 -186 -57q-85 0 -145 38t-84 112l147 78q12 -37 34.5 -54.5t64.5 -17.5q46 0 73.5 21t33.5 57t-13.5 57t-65.5 21h-34l-45 91l149 161h-249z" />
    <glyph glyph-name="four" unicode="4" 
d="M502 260h70l-26 -148h-70l-20 -112h-162l20 112h-318l26 148l292 440h180l-293 -440h139l26 150h162z" />
    <glyph glyph-name="five" unicode="5" horiz-adv-x="549" 
d="M568 700l-26 -150h-251l-24 -96h53q96 0 156 -67q60 -68 41 -177q-20 -110 -97 -167q-78 -57 -182 -57q-181 0 -238 150l148 77q24 -71 107 -71q43 0 69.5 21.5t32.5 56.5q6 36 -13 57t-61 21h-219l99 402h405z" />
    <glyph glyph-name="six" unicode="6" horiz-adv-x="560" 
d="M546 700l-192 -223q92 -15 145 -87q53 -71 36 -167q-19 -109 -98 -173q-77 -64 -193 -64q-115 0 -180 74q-64 74 -45 183q17 89 72 149l263 308h192zM294 330q-43 0 -75 -26.5t-40 -70.5t15 -70.5t66 -26.5q42 0 74.5 26.5t40.5 70.5q8 43 -15.5 70t-65.5 27z" />
    <glyph glyph-name="seven" unicode="7" horiz-adv-x="490" 
d="M62 546l27 154h460l-23 -134l-320 -566h-178l309 546h-275z" />
    <glyph glyph-name="eight" unicode="8" horiz-adv-x="574" 
d="M565 500q-16 -91 -95 -140q83 -65 63 -173q-17 -96 -90.5 -148.5t-193.5 -52.5t-182 62q-61 62 -45 159q18 107 122 163q-62 53 -45 142q17 98 90 150t174 52q100 0 159 -58q60 -58 43 -156zM285 545q-23 -19 -28 -49t11 -49q17 -19 50 -19t56 19q24 19 29 49t-12 49
q-16 19 -49 19q-34 0 -57 -19zM340 158q30 22 38 62q7 38 -16 61t-65 23t-74 -23q-30 -22 -38 -61q-7 -39 16 -62q22 -22 66 -22t73 22z" />
    <glyph glyph-name="nine" unicode="9" horiz-adv-x="560" 
d="M351 714q115 0 180 -74t45 -183q-17 -89 -72 -149l-263 -308h-192l192 224q-93 15 -146 86q-52 70 -35 167q19 109 97 173q79 64 194 64zM301 370q43 0 75 26.5t40 70.5t-15 70.5t-66 26.5q-42 0 -74.5 -26.5t-40.5 -70.5q-8 -43 15.5 -70t65.5 -27z" />
    <glyph glyph-name="colon" unicode=":" horiz-adv-x="280" 
d="M153 326q-39 0 -61.5 29t-15.5 68q7 40 38.5 66.5t72.5 26.5q39 0 62 -29t16 -68q-7 -40 -38.5 -66.5t-73.5 -26.5zM93 -14q-39 0 -61.5 29t-15.5 68q7 40 38.5 66.5t72.5 26.5q39 0 62 -29t16 -68q-7 -40 -38.5 -66.5t-73.5 -26.5z" />
    <glyph glyph-name="semicolon" unicode=";" horiz-adv-x="290" 
d="M163 326q-39 0 -61.5 29t-15.5 68q7 40 38.5 66.5t72.5 26.5q39 0 62 -29t16 -68q-7 -40 -38.5 -66.5t-73.5 -26.5zM68 155h160l-132 -295h-120z" />
    <glyph glyph-name="less" unicode="&#x3c;" horiz-adv-x="530" 
d="M69 415l485 195l-29 -162l-298 -106l261 -106l-26 -146l-416 195l12 65z" />
    <glyph glyph-name="equal" unicode="=" horiz-adv-x="520" 
d="M503 385h-439l25 140h439zM466 175h-439l25 140h439z" />
    <glyph glyph-name="greater" unicode="&#x3e;" horiz-adv-x="530" 
d="M78 464l26 146l415 -195l-11 -65l-12 -65l-484 -195l29 162l299 106z" />
    <glyph glyph-name="question" unicode="?" horiz-adv-x="560" 
d="M350 250h-160q6 43 36 81t67 62q90 58 99 107q5 26 -10 42t-44 16q-79 0 -125 -88l-130 83q38 75 112 118t162 43q98 0 156 -58t42 -152q-12 -76 -81 -135q-13 -11 -50.5 -39t-54 -45.5t-19.5 -34.5zM223 -14q-39 0 -61.5 29t-15.5 68q7 40 38.5 66.5t72.5 26.5
q39 0 62 -29t16 -68q-7 -40 -38.5 -66.5t-73.5 -26.5z" />
    <glyph glyph-name="at" unicode="@" horiz-adv-x="774" 
d="M454 612q106 0 179 -54q72 -52 100.5 -130t12.5 -166q-18 -102 -71.5 -156.5t-129.5 -54.5q-46 0 -78 20.5t-43 55.5q-44 -42 -104 -42q-62 0 -95 50q-33 52 -20 123q13 70 58 113q46 44 101 44q57 0 90 -43l6 31h122l-42 -236q-10 -66 45 -66q43 0 75.5 43.5t47.5 125.5
q22 129 -51 217q-74 89 -205 89q-138 0 -247 -94q-110 -95 -135 -232q-25 -141 56 -234q81 -92 229 -92q89 0 163 24l-7 -38q-70 -22 -161 -22q-164 0 -256 107q-91 106 -63 263q25 152 147 252q122 102 276 102zM371 193q23 0 39.5 16t21.5 41q5 26 -6.5 41.5t-34.5 15.5
q-24 0 -40.5 -15.5t-21.5 -41.5q-5 -25 6.5 -41t35.5 -16z" />
    <glyph glyph-name="A" unicode="A" horiz-adv-x="680" 
d="M636 0h-175l-14 110h-260l-56 -110h-175l361 700h204zM396 525l-134 -265h167z" />
    <glyph glyph-name="B" unicode="B" horiz-adv-x="600" 
d="M598 495q-13 -86 -84 -136q70 -55 57 -159q-12 -92 -82.5 -146t-188.5 -54h-284l123 700h264q95 0 152 -58q57 -57 43 -147zM382 550h-109l-22 -124h109q30 0 51 17t26 45q5 27 -9.5 44.5t-45.5 17.5zM355 284h-129l-24 -134h129q33 0 55.5 18.5t27.5 48.5t-10.5 48.5
t-48.5 18.5z" />
    <glyph glyph-name="C" unicode="C" horiz-adv-x="723" 
d="M359 -14q-160 0 -248 109q-88 108 -62 265q25 152 142 254q116 100 273 100q99 0 170.5 -42.5t107.5 -120.5l-147 -77q-41 84 -148 84q-91 0 -157 -57q-65 -57 -81 -151q-16 -92 28 -151q43 -57 131 -57q114 0 182 89l130 -85q-57 -75 -141.5 -117.5t-179.5 -42.5z" />
    <glyph glyph-name="D" unicode="D" horiz-adv-x="712" 
d="M139 700h280q139 0 221 -106q83 -106 58 -254q-26 -149 -138 -245q-113 -95 -264 -95h-280zM544 355q16 89 -25.5 140t-126.5 51h-120l-69 -392h110q90 0 152 55q63 55 79 146z" />
    <glyph glyph-name="E" unicode="E" horiz-adv-x="530" 
d="M574 700l-27 -154h-275l-21 -117h251l-27 -150h-250l-22 -125h280l-27 -154h-440l123 700h435z" />
    <glyph glyph-name="F" unicode="F" horiz-adv-x="520" 
d="M564 700l-27 -154h-265l-24 -135h260l-27 -154h-260l-45 -257h-160l123 700h425z" />
    <glyph glyph-name="G" unicode="G" horiz-adv-x="784" 
d="M427 390h351l-10 -60q-27 -162 -139 -253q-110 -91 -267 -91q-163 0 -251 109q-88 108 -62 265q25 152 142 254q116 100 273 100q103 0 178.5 -43.5t114.5 -124.5l-147 -77q-48 89 -163 89q-91 0 -157 -57q-65 -57 -81 -151q-17 -95 29 -151q46 -57 140 -57
q150 0 205 108h-180z" />
    <glyph glyph-name="H" unicode="H" horiz-adv-x="660" 
d="M472 432l47 268h160l-123 -700h-160l49 278h-220l-49 -278h-160l123 700h160l-47 -268h220z" />
    <glyph glyph-name="I" unicode="I" horiz-adv-x="280" 
d="M16 0l123 700h160l-123 -700h-160z" />
    <glyph glyph-name="J" unicode="J" horiz-adv-x="570" 
d="M232 -14q-171 0 -224 141l147 80q10 -35 31 -50t60 -15q94 0 109 83l84 475h160l-84 -475q-21 -118 -94 -178.5t-189 -60.5z" />
    <glyph glyph-name="K" unicode="K" horiz-adv-x="626" 
d="M516 700h189l-318 -344l195 -356h-165l-183 333l-58 -333h-160l123 700h160l-52 -293z" />
    <glyph glyph-name="L" unicode="L" horiz-adv-x="480" 
d="M299 700l-96 -546h250l-27 -154h-410l27 154l96 546h160z" />
    <glyph glyph-name="M" unicode="M" horiz-adv-x="820" 
d="M665 700h174l-123 -700h-160l72 410l-239 -300h-18l-123 302l-72 -412h-160l123 700h160l121 -316z" />
    <glyph glyph-name="N" unicode="N" horiz-adv-x="670" 
d="M176 0h-160l123 700h120l201 -393l69 393h160l-123 -700h-120l-200 393z" />
    <glyph glyph-name="O" unicode="O" horiz-adv-x="788" 
d="M352 -14q-152 0 -242 110q-89 111 -61 264q27 155 143 255q117 99 280 99q150 0 239 -110q90 -110 63 -264q-28 -156 -144 -255t-278 -99zM369 142q88 0 158 58q71 58 87 150q16 91 -32 150q-46 58 -134 58t-155 -58t-84 -150q-16 -92 29 -151q45 -57 131 -57z" />
    <glyph glyph-name="P" unicode="P" horiz-adv-x="590" 
d="M139 700h253q108 0 168 -72q60 -71 45 -178q-15 -102 -92 -167q-77 -63 -195 -63h-103l-39 -220h-160zM445 460q8 42 -12 66t-67 24h-93l-32 -180h93q45 0 74 24t37 66z" />
    <glyph glyph-name="Q" unicode="Q" horiz-adv-x="793" 
d="M472 714q150 0 239 -110q90 -110 63 -264q-24 -134 -119 -229l53 -69l-123 -92l-56 74q-84 -38 -177 -38q-147 0 -239 110q-91 111 -64 264t146 254q119 100 277 100zM348 259l123 92l90 -117q41 52 53 116q16 91 -32 150q-46 58 -134 58t-155 -58t-84 -150
q-16 -92 29 -151q45 -57 131 -57q28 0 62 8z" />
    <glyph glyph-name="R" unicode="R" horiz-adv-x="615" 
d="M617 450q-13 -69 -56 -121t-107 -77l102 -252h-162l-91 230h-87l-40 -230h-160l123 700h270q100 0 163 -76q63 -75 45 -174zM383 550h-110l-32 -180h120q36 0 62.5 25.5t33.5 64.5t-13.5 64.5t-60.5 25.5z" />
    <glyph glyph-name="S" unicode="S" horiz-adv-x="586" 
d="M270 -14q-109 0 -178 46t-88 127l146 75q25 -94 134 -94q92 0 103 59q6 29 -18.5 46t-95.5 42q-98 33 -148 84q-48 53 -32 145q17 99 90 148q74 50 171 50q87 0 150 -41.5t90 -116.5l-140 -74q-38 78 -114 78q-72 0 -84 -53q-6 -28 17.5 -46t90.5 -43q45 -16 62 -24
q53 -22 81 -49q62 -62 45 -160q-17 -95 -92 -147t-190 -52z" />
    <glyph glyph-name="T" unicode="T" horiz-adv-x="540" 
d="M89 700h520l-27 -154h-180l-96 -546h-160l96 546h-180z" />
    <glyph glyph-name="U" unicode="U" horiz-adv-x="641" 
d="M290 -14q-127 0 -195 67q-68 68 -49 173l84 474h160l-81 -460q-17 -98 93 -98t127 98l81 460h160l-84 -474q-21 -117 -99.5 -178.5t-196.5 -61.5z" />
    <glyph glyph-name="V" unicode="V" horiz-adv-x="640" 
d="M378 0h-204l-95 700h167l55 -515l235 515h183z" />
    <glyph glyph-name="W" unicode="W" horiz-adv-x="998" 
d="M341 0h-182l-70 700h160l37 -490l221 490h130l49 -490l207 490h174l-316 -700h-182l-42 413z" />
    <glyph glyph-name="X" unicode="X" horiz-adv-x="620" 
d="M489 700h190l-260 -348l147 -352h-174l-85 202l-151 -202h-190l273 365l-140 335h174l78 -185z" />
    <glyph glyph-name="Y" unicode="Y" horiz-adv-x="610" 
d="M498 700h191l-294 -394l-54 -306h-160l54 307l-156 393h173l82 -236z" />
    <glyph glyph-name="Z" unicode="Z" horiz-adv-x="540" 
d="M119 700h470l-21 -124l-340 -422h270l-27 -154h-480l22 124l341 422h-262z" />
    <glyph glyph-name="bracketleft" unicode="[" horiz-adv-x="320" 
d="M397 800l-25 -144h-100l-109 -612h101l-26 -144h-250l159 900h250z" />
    <glyph glyph-name="backslash" unicode="\" horiz-adv-x="520" 
d="M428 -100h-58l-243 900h58z" />
    <glyph glyph-name="bracketright" unicode="]" horiz-adv-x="320" 
d="M117 800h250l-159 -900h-250l26 144h99l109 612h-100z" />
    <glyph glyph-name="asciicircum" unicode="^" 
d="M315 700h108l136 -340h-156l-58 167l-122 -167h-164z" />
    <glyph glyph-name="underscore" unicode="_" horiz-adv-x="520" 
d="M414 -181h-460l25 144h460z" />
    <glyph glyph-name="grave" unicode="`" horiz-adv-x="300" 
d="M335 560h-141l-95 140h173z" />
    <glyph glyph-name="a" unicode="a" horiz-adv-x="623" 
d="M453 447l9 53h150l-88 -500h-150l6 34q-57 -48 -150 -48q-114 0 -167 83q-52 83 -31 193q20 104 94 177q76 75 187 75q94 0 140 -67zM418 249v1q10 56 -17.5 89t-79.5 33t-90.5 -33t-48.5 -89t17 -89t79 -33t91 33.5t49 87.5z" />
    <glyph glyph-name="b" unicode="b" horiz-adv-x="623" 
d="M389 514q107 1 164.5 -82.5t37.5 -191.5q-17 -105 -89 -179q-74 -75 -183 -75q-103 0 -148 71l-10 -57h-150l123 700h150l-43 -242q62 56 148 56zM345 372q-53 0 -92 -33.5t-48 -88.5q-9 -56 19 -89t80 -33t89.5 33t47.5 89t-17 89t-79 33z" />
    <glyph glyph-name="c" unicode="c" horiz-adv-x="535" 
d="M265 -14q-119 0 -185 79t-48 195q17 110 101 182t197 72q77 0 132.5 -35t80.5 -95l-137 -72q-22 54 -89 54q-51 0 -88.5 -31.5t-46.5 -82.5t18 -84.5t76 -33.5q63 0 104 56l121 -77q-37 -62 -99.5 -94.5t-136.5 -32.5z" />
    <glyph glyph-name="d" unicode="d" horiz-adv-x="625" 
d="M454 445l45 255h150l-123 -700h-150l6 36q-59 -50 -152 -50q-114 0 -167 83q-52 83 -31 193q20 104 94 177q76 75 187 75q96 0 141 -69zM280 128q51 0 89.5 32t49.5 85l2 10q7 54 -20 85.5t-78 31.5q-53 0 -92 -33.5t-49 -88.5t17.5 -88.5t80.5 -33.5z" />
    <glyph glyph-name="e" unicode="e" horiz-adv-x="582" 
d="M331 514q112 0 176 -76q66 -76 45 -188q-4 -27 -16 -60h-358q10 -70 103 -70q63 0 105 39l105 -86q-85 -87 -220 -87q-127 0 -193 79q-65 81 -46 195q16 109 102 181q85 73 197 73zM199 304h212q-8 77 -90 77q-83 0 -122 -77z" />
    <glyph glyph-name="f" unicode="f" horiz-adv-x="331" 
d="M412 714l-25 -144q-93 7 -106 -70h93l-25 -144h-93l-63 -356h-150l63 356h-67l25 144h67q19 111 90 166t191 48z" />
    <glyph glyph-name="g" unicode="g" horiz-adv-x="624" 
d="M457 441l10 59h146l-84 -475q-21 -122 -96.5 -180.5t-192.5 -58.5q-178 0 -233 121l134 70q29 -59 110 -59q54 0 88.5 27.5t43.5 79.5l6 35q-59 -54 -150 -54q-115 0 -169 79q-54 80 -36 187q17 98 90 170q74 72 183 72q107 0 150 -73zM283 146q50 0 89 29t51 75l4 21
q4 46 -24.5 74.5t-78.5 28.5q-53 0 -92.5 -32t-48.5 -82t19 -82t81 -32z" />
    <glyph glyph-name="h" unicode="h" 
d="M388 514q80 0 127 -56q46 -55 30 -151l-54 -307h-150l50 285q8 44 -12 67.5t-60 23.5q-43 0 -72 -26.5t-38 -76.5l-48 -273h-150l123 700h150l-43 -247q55 61 147 61z" />
    <glyph glyph-name="i" unicode="i" horiz-adv-x="260" 
d="M108 634q6 36 37 63t67 27q37 0 59.5 -26.5t16.5 -63.5t-36.5 -63.5t-68.5 -26.5t-59.5 26.5t-15.5 63.5zM161 0h-150l88 500h150z" />
    <glyph glyph-name="j" unicode="j" horiz-adv-x="275" 
d="M123 634q6 36 37 63t67 27q37 0 59.5 -26.5t16.5 -63.5t-36.5 -63.5t-68.5 -26.5t-59.5 26.5t-15.5 63.5zM26 0l88 500h150l-88 -500q-21 -122 -84 -171.5t-184 -42.5l26 144q41 -2 63 14.5t29 55.5z" />
    <glyph glyph-name="k" unicode="k" horiz-adv-x="525" 
d="M391 500h173l-221 -250l138 -250h-160l-120 228l-40 -228h-150l123 700h150l-72 -407z" />
    <glyph glyph-name="l" unicode="l" horiz-adv-x="261" 
d="M162 0h-150l56 319l72 411h150l-73 -418z" />
    <glyph glyph-name="m" unicode="m" horiz-adv-x="850" 
d="M656 514q88 0 131 -58q44 -58 28 -149l-54 -307h-150l51 294q14 82 -57 82q-73 0 -93 -87l-51 -289h-150l51 294q14 82 -57 82q-74 0 -93 -85l-51 -291h-150l88 500h150l-8 -45q53 59 139 59q89 0 122 -68q62 68 154 68z" />
    <glyph glyph-name="n" unicode="n" 
d="M388 514q80 0 127 -56q46 -55 30 -151l-54 -307h-150l50 285q8 44 -12 67.5t-60 23.5q-41 0 -70.5 -25t-38.5 -72l-49 -279h-150l88 500h150l-8 -47q55 61 147 61z" />
    <glyph glyph-name="o" unicode="o" horiz-adv-x="590" 
d="M264 -14q-89 0 -147 43q-114 88 -83 241q21 102 101 173t199 71q120 0 181 -87q62 -86 42 -193q-18 -101 -101 -175q-82 -73 -192 -73zM408 250q10 53 -16.5 85.5t-75.5 32.5t-85.5 -32.5t-46.5 -85.5q-9 -53 16 -85.5t74 -32.5t87 32.5t47 85.5z" />
    <glyph glyph-name="p" unicode="p" horiz-adv-x="623" 
d="M391 514q106 0 162 -83q55 -81 38 -191q-15 -101 -89 -178q-73 -76 -184 -76q-100 0 -147 71l-45 -257h-150l123 700h150l-7 -42q62 56 149 56zM346 372q-51 0 -90 -32t-50 -85l-2 -9q-7 -54 20 -86t79 -32q53 0 90 33t48 89q10 56 -16.5 89t-78.5 33z" />
    <glyph glyph-name="q" unicode="q" horiz-adv-x="623" 
d="M453 447l9 53h150l-123 -700h-150l41 234q-57 -48 -150 -48q-76 0 -128 41q-97 81 -70 235q20 104 94 177q76 75 187 75q94 0 140 -67zM199 161q27 -33 79 -33t91 33q38 32 49 89q11 56 -18 89q-27 33 -79 33t-91 -33q-37 -33 -48 -89q-10 -55 17 -89z" />
    <glyph glyph-name="r" unicode="r" horiz-adv-x="371" 
d="M249 500l-16 -90q21 48 66 74t102 26l-29 -170q-36 5 -67 -2q-36 -7 -66 -37t-38 -75l1 6l-41 -232h-150l88 500h150z" />
    <glyph glyph-name="s" unicode="s" horiz-adv-x="468" 
d="M206 -14q-156 0 -211 123l135 68q22 -57 89 -57q50 0 55 26q3 14 -19 25.5t-64 22.5q-160 39 -135 169q13 74 74.5 112.5t135.5 38.5q66 0 116.5 -28.5t74.5 -78.5l-135 -67q-18 44 -65 44q-45 0 -51 -31q-3 -18 17.5 -29t63.5 -22q161 -30 136 -167
q-14 -74 -71.5 -111.5t-145.5 -37.5z" />
    <glyph glyph-name="t" unicode="t" horiz-adv-x="389" 
d="M367 356h-103l-31 -177q-6 -30 15.5 -38.5t80.5 -4.5l-24 -136q-134 -15 -187.5 29t-34.5 150l31 177h-80l26 144h79l17 95l158 45l-25 -140h104z" />
    <glyph glyph-name="u" unicode="u" 
d="M370 221l49 279h150l-88 -500h-150l8 47q-55 -61 -147 -61q-82 0 -128 55t-29 152l54 307h150l-50 -285q-8 -44 12 -67.5t60 -23.5q41 0 70.5 25t38.5 72z" />
    <glyph glyph-name="v" unicode="v" horiz-adv-x="510" 
d="M240 194l148 306h166l-268 -500h-150l-92 500h154z" />
    <glyph glyph-name="w" unicode="w" horiz-adv-x="780" 
d="M532 232l117 268h165l-248 -500h-140l-33 263l-117 -263h-150l-72 500h150l31 -268l119 268h145z" />
    <glyph glyph-name="x" unicode="x" horiz-adv-x="530" 
d="M392 500h176l-219 -251l137 -249h-162l-74 135l-118 -135h-176l226 259l-132 241h162l69 -127z" />
    <glyph glyph-name="y" unicode="y" horiz-adv-x="530" 
d="M260 194l148 306h166l-256 -485q-66 -125 -144 -173q-77 -48 -179 -42l24 140q53 0 82 17q28 16 54 65l-111 478h154z" />
    <glyph glyph-name="z" unicode="z" horiz-adv-x="455" 
d="M84 500h380l-17 -100l-229 -260h193l-25 -140h-400l18 100l228 260h-173z" />
    <glyph glyph-name="braceleft" unicode="{" horiz-adv-x="361" 
d="M303 37l-26 -144q-102 -8 -152.5 44.5t-33.5 149.5l25 142q6 33 -8.5 43.5t-52.5 6.5l26 145q37 -4 55 6.5t24 43.5l25 142q19 111 79.5 156.5t174.5 37.5l-26 -144q-37 4 -54.5 -6.5t-23.5 -43.5l-25 -142q-14 -85 -75 -122q46 -39 31 -123l-25 -142q-6 -32 9 -43t53 -7
z" />
    <glyph glyph-name="bar" unicode="|" horiz-adv-x="270" 
d="M131 -200h-150l162 920h150z" />
    <glyph glyph-name="braceright" unicode="}" horiz-adv-x="360" 
d="M93 665l26 144q102 8 152.5 -44.5t33.5 -149.5l-25 -142q-6 -33 8.5 -43.5t52.5 -6.5l-26 -145q-37 4 -55 -6.5t-24 -43.5l-25 -142q-19 -111 -79.5 -156.5t-174.5 -37.5l26 144q37 -4 54.5 6.5t23.5 43.5l25 142q14 85 75 122q-46 39 -31 123l25 142q6 32 -9 43t-53 7z
" />
    <glyph glyph-name="asciitilde" unicode="~" horiz-adv-x="600" 
d="M159 244l-110 58q25 69 68.5 107.5t92 41t101.5 -18.5q67 -34 102 -32q34 1 63 52l109 -58q-25 -69 -68.5 -107.5t-92 -41t-100.5 18.5q-67 34 -103 32q-33 -1 -62 -52z" />
    <glyph glyph-name="exclamdown" unicode="&#xa1;" horiz-adv-x="280" 
d="M187 514q39 0 62 -29t16 -68t-38.5 -66t-73.5 -27q-39 0 -62 29t-16 68q7 40 38.5 66.5t73.5 26.5zM80 250h120l-14 -250l-35 -200h-180l35 200z" />
    <glyph glyph-name="cent" unicode="&#xa2;" horiz-adv-x="535" 
d="M285 234h8q63 0 104 56l121 -77q-37 -62 -99.5 -94.5t-136.5 -32.5q-30 0 -67 8l-46 -94h-62l56 113q-66 32 -96.5 98t-17.5 149q17 110 101 182t197 72q33 0 61 -6l46 92h62l-55 -111q69 -35 99 -105l-137 -72q-10 23 -31 38zM199 352q-12 -66 33 -99l106 213h-4
q-51 0 -88.5 -31.5t-46.5 -82.5z" />
    <glyph glyph-name="sterling" unicode="&#xa3;" 
d="M454 269h-195l-20 -115h314l-27 -154h-540l27 154h66l20 115h-55l25 140h55l14 81q20 110 86.5 167t168.5 57q76 0 131.5 -39.5t78.5 -109.5l-144 -76q-24 69 -84 69q-30 0 -50.5 -18t-26.5 -50l-14 -81h195z" />
    <glyph glyph-name="currency" unicode="&#xa4;" horiz-adv-x="540" 
d="M523 590l40 -40l-82 -69q35 -60 22 -131q-14 -77 -68 -131l57 -69l-45 -37l-56 70q-64 -43 -140 -43q-72 0 -120 39l-81 -69l-38 40l82 70q-34 57 -21 130q14 75 67 130l-57 70l42 38l59 -72q65 44 141 44q71 0 118 -38zM355 350q5 31 -9.5 49.5t-45.5 18.5t-52.5 -18.5
t-26.5 -49.5q-6 -31 9 -49.5t46 -18.5t52 18.5t27 49.5z" />
    <glyph glyph-name="yen" unicode="&#xa5;" horiz-adv-x="610" 
d="M498 700h191l-248 -333h120l-16 -88h-155l-7 -40h155l-15 -88h-155l-27 -151h-160l27 151h-155l15 88h155l7 40h-155l16 88h120l-132 333h173l82 -236z" />
    <glyph glyph-name="brokenbar" unicode="&#xa6;" horiz-adv-x="270" 
d="M228 350h-150l65 370h150zM131 -200h-150l65 370h150z" />
    <glyph glyph-name="section" unicode="&#xa7;" horiz-adv-x="556" 
d="M397 460q63 -25 101 -70q40 -46 28 -112q-13 -77 -82 -123q24 -43 14 -103q-15 -82 -75.5 -123t-153.5 -41q-160 0 -214 124l134 73q28 -67 93 -67q58 0 65 36q6 25 -25 44q-19 14 -46 23q-7 4 -29 13.5t-27 11.5q-65 29 -98 76.5t-22 111.5q13 76 82 117q-21 44 -11 103
q14 80 71.5 120t142.5 40q67 0 119.5 -32.5t78.5 -95.5l-126 -63q-28 61 -81 61q-47 0 -55 -38q-2 -25 29 -48q12 -7 26 -13q19 -9 61 -25zM269 264l34 -13q17 -6 45 -19q21 15 25 40q4 24 -12 38.5t-56 30.5l-70 29q-20 -15 -24 -40q-7 -40 58 -66z" />
    <glyph glyph-name="dieresis" unicode="&#xa8;" horiz-adv-x="350" 
d="M203 562q-26 -22 -57 -22t-49 22t-13 53t31 53t57 22t49 -22t13 -53t-31 -53zM393 562q-26 -22 -57 -22t-49 22t-13 53t31 53t57 22t49 -22t13 -53t-31 -53z" />
    <glyph glyph-name="copyright" unicode="&#xa9;" horiz-adv-x="784" 
d="M355 -12q-70 -2 -134 28t-106.5 80.5t-61.5 119.5t-4 140q25 151 144 253q118 103 272 103q147 0 239 -110q93 -109 67 -258q-27 -150 -146 -254q-119 -102 -270 -102zM357 24q136 0 243 95q108 95 132 231q23 134 -58 230t-212 96q-135 0 -244 -95q-108 -96 -130 -231
q-24 -134 57 -230t212 -96zM378 153q-84 0 -132 62q-47 63 -32 145q13 81 76 134q62 53 143 53q51 0 95 -27t68 -72l-117 -61q-17 33 -57 33q-30 0 -53.5 -20.5t-28.5 -49.5q-5 -28 10.5 -49t42.5 -21q43 0 68 34l105 -65q-33 -45 -83.5 -70.5t-104.5 -25.5z" />
    <glyph glyph-name="guillemotleft" unicode="&#xab;" horiz-adv-x="562" 
d="M207 499h135l-140 -194l72 -186h-130l-74 190zM411 499h135l-143 -199l71 -181h-130l-72 185z" />
    <glyph glyph-name="logicalnot" unicode="&#xac;" horiz-adv-x="560" 
d="M70 420h480l-46 -260h-150l21 120h-330z" />
    <glyph glyph-name="registered" unicode="&#xae;" horiz-adv-x="784" 
d="M465 712q147 0 239 -110q93 -109 67 -258q-27 -150 -146 -254q-119 -102 -270 -102q-70 -2 -134 28t-106.5 80.5t-61.5 119.5t-4 140q25 151 144 253q118 103 272 103zM732 350q23 134 -58 230t-212 96q-135 0 -244 -95q-108 -96 -130 -231q-24 -134 57 -230t212 -96
q136 0 243 95q108 95 132 231zM298 535h160q56 0 94 -41t28 -98q-14 -72 -68 -103l50 -128h-127l-30 102h-32l-18 -102h-122zM426 425h-25l-11 -58h25q16 0 27 8t13 21q5 29 -29 29z" />
    <glyph glyph-name="overscore" unicode="&#xaf;" horiz-adv-x="341" 
d="M375 559h-300l21 120h300z" />
    <glyph glyph-name="degree" unicode="&#xb0;" horiz-adv-x="406" 
d="M244 470q-73 0 -116 52q-42 53 -29 123q12 71 68 118t133 47q73 0 115 -52t30 -123q-14 -73 -68 -118q-56 -47 -133 -47zM321 640q4 22 -7 36t-33 14t-38 -14t-20 -36t7 -36t33 -14t38 13.5t20 36.5z" />
    <glyph glyph-name="plusminus" unicode="&#xb1;" horiz-adv-x="560" 
d="M422 660l-25 -140h161l-25 -140h-160l-25 -140h-140l25 140h-160l25 140h159l25 140h140zM473 40h-460l25 140h460z" />
    <glyph glyph-name="acute" unicode="&#xb4;" horiz-adv-x="300" 
d="M75 560l100 140h184l-136 -140h-148z" />
    <glyph glyph-name="uni00B5" unicode="&#xb5;" horiz-adv-x="620" 
d="M546 140h35l-25 -140h-65q-68 0 -104 45q-54 -59 -145 -59q-46 0 -80 18l-36 -204h-150l123 700h150l-51 -289q-6 -43 14 -65t59 -22q40 0 68 23t39 67l51 286h150l-58 -330q-5 -30 25 -30z" />
    <glyph glyph-name="paragraph" unicode="&#xb6;" horiz-adv-x="698" 
d="M319 700h409l-22 -130h-62l-135 -770h-140l135 770h-68l-135 -770h-140l81 460q-92 2 -144 70q-52 69 -36 160q16 90 90 150q73 60 167 60z" />
    <glyph glyph-name="middot" unicode="&#xb7;" horiz-adv-x="279" 
d="M139 251q-39 0 -61.5 29t-15.5 68q7 40 38.5 66.5t72.5 26.5q39 0 62 -29t16 -68q-7 -40 -38.5 -66.5t-73.5 -26.5z" />
    <glyph glyph-name="cedilla" unicode="&#xb8;" horiz-adv-x="265" 
d="M138 0l-8 -46q59 -22 49 -86q-19 -100 -241 -84l18 104q93 -8 98 14q3 15 -50 20l14 78h120z" />
    <glyph glyph-name="guillemotright" unicode="&#xbb;" horiz-adv-x="563" 
d="M109 499h130l72 -185l-139 -195h-135l143 199zM309 499h130l74 -190l-137 -190h-135l140 194z" />
    <glyph glyph-name="onequarter" unicode="&#xbc;" horiz-adv-x="811" 
d="M70 0l518 700h105l-518 -700h-105zM115 300l48 271l-81 -22l-11 107l130 44h107l-71 -400h-122zM746 171h36l-19 -110h-36l-11 -61h-116l11 61h-180l19 110l156 229h134l-152 -229h42l11 61h116z" />
    <glyph glyph-name="onehalf" unicode="&#xbd;" horiz-adv-x="815" 
d="M70 0l518 700h105l-518 -700h-105zM115 300l48 271l-81 -22l-11 107l130 44h107l-71 -400h-122zM784 271q-5 -29 -25 -54t-63 -60l-55 -47h119l-19 -110h-306l13 77l173 151l5 4q30 26 35 42l1 4q2 12 -4.5 19t-19.5 7q-35 0 -63 -49l-95 60q60 99 174 99q68 0 105 -39
t25 -104z" />
    <glyph glyph-name="threequarters" unicode="&#xbe;" horiz-adv-x="883" 
d="M352 415q-22 -129 -175 -129q-117 0 -150 90l107 57q16 -42 56 -42q36 0 40 31q2 15 -7.5 22.5t-27.5 7.5h-25l-31 61l73 77h-129l19 110h281l-15 -85l-79 -83q36 -16 53 -46.5t10 -70.5zM142 0l518 700h105l-518 -700h-105zM818 171h36l-19 -110h-36l-11 -61h-116l11 61
h-180l19 110l156 229h134l-152 -229h42l11 61h116z" />
    <glyph glyph-name="questiondown" unicode="&#xbf;" horiz-adv-x="560" 
d="M337 514q39 0 61.5 -29t15.5 -68q-7 -40 -38.5 -66.5t-72.5 -26.5q-39 0 -62 29t-16 68q7 40 38.5 66.5t73.5 26.5zM210 250h160q-6 -43 -36 -81.5t-68 -62.5q-89 -57 -98 -106q-5 -26 10 -42t44 -16q79 0 125 88l130 -83q-38 -75 -112 -118t-162 -43q-98 0 -156 58
t-42 152q12 76 80 134q16 14 52 40.5t53 44t20 35.5z" />
    <glyph glyph-name="Agrave" unicode="&#xc0;" horiz-adv-x="680" 
d="M457 900l63 -140h-141l-95 140h173zM636 0h-175l-14 110h-260l-56 -110h-175l361 700h204zM396 525l-134 -265h167z" />
    <glyph glyph-name="Aacute" unicode="&#xc1;" horiz-adv-x="680" 
d="M440 900h184l-136 -140h-148zM636 0h-175l-14 110h-260l-56 -110h-175l361 700h204zM396 525l-134 -265h167z" />
    <glyph glyph-name="Acircumflex" unicode="&#xc2;" horiz-adv-x="680" 
d="M458 750l-23 55l-47 -55h-145l132 150h148l80 -150h-145zM636 0h-175l-14 110h-260l-56 -110h-175l361 700h204zM396 525l-134 -265h167z" />
    <glyph glyph-name="Atilde" unicode="&#xc3;" horiz-adv-x="680" 
d="M421 777q-23 16 -35 11t-17 -35h-120q5 58 27.5 97.5t54.5 52.5q68 27 132 -17q22 -16 34.5 -11t17.5 35h120q-5 -58 -27.5 -97.5t-55.5 -52.5q-66 -27 -131 17zM636 0h-175l-14 110h-260l-56 -110h-175l361 700h204zM396 525l-134 -265h167z" />
    <glyph glyph-name="Adieresis" unicode="&#xc4;" horiz-adv-x="680" 
d="M388 762q-26 -22 -57 -22t-49 22t-13 53t31 53t57 22t49 -22t13 -53t-31 -53zM578 762q-26 -22 -57 -22t-49 22t-13 53t31 53t57 22t49 -22t13 -53t-31 -53zM636 0h-175l-14 110h-260l-56 -110h-175l361 700h204zM396 525l-134 -265h167z" />
    <glyph glyph-name="Aring" unicode="&#xc5;" horiz-adv-x="680" 
d="M636 0h-175l-14 110h-260l-56 -110h-175l357 693q-24 34 -16 81q10 54 52 87.5t100 33.5t91 -38t23 -91q-8 -46 -40 -78zM395 771q-5 -35 29 -35q38 0 42 33q3 15 -5 25t-25 10q-34 0 -41 -33zM396 525l-134 -265h167z" />
    <glyph glyph-name="AE" unicode="&#xc6;" horiz-adv-x="880" 
d="M924 700l-27 -154h-240l-21 -117h216l-27 -150h-215l-22 -125h245l-27 -154h-400l19 110h-204l-85 -110h-180l532 700h436zM486 453l-149 -193h115z" />
    <glyph glyph-name="Ccedilla" unicode="&#xc7;" horiz-adv-x="723" 
d="M368 142q114 0 182 89l130 -85q-100 -134 -264 -156l-6 -36q59 -22 49 -86q-19 -100 -241 -84l18 104q93 -8 98 14q3 15 -50 20l12 69q-132 23 -201 126t-46 243q25 152 142 254q116 100 273 100q99 0 170.5 -42.5t107.5 -120.5l-147 -77q-41 84 -148 84q-91 0 -157 -57
q-65 -57 -81 -151q-16 -92 28 -151q43 -57 131 -57z" />
    <glyph glyph-name="Egrave" unicode="&#xc8;" horiz-adv-x="530" 
d="M395 900l63 -140h-141l-95 140h173zM574 700l-27 -154h-275l-21 -117h251l-27 -150h-250l-22 -125h280l-27 -154h-440l123 700h435z" />
    <glyph glyph-name="Eacute" unicode="&#xc9;" horiz-adv-x="530" 
d="M378 900h184l-136 -140h-148zM574 700l-27 -154h-275l-21 -117h251l-27 -150h-250l-22 -125h280l-27 -154h-440l123 700h435z" />
    <glyph glyph-name="Ecircumflex" unicode="&#xca;" horiz-adv-x="530" 
d="M396 750l-23 55l-47 -55h-145l132 150h148l80 -150h-145zM574 700l-27 -154h-275l-21 -117h251l-27 -150h-250l-22 -125h280l-27 -154h-440l123 700h435z" />
    <glyph glyph-name="Edieresis" unicode="&#xcb;" horiz-adv-x="530" 
d="M326 762q-26 -22 -57 -22t-49 22t-13 53t31 53t57 22t49 -22t13 -53t-31 -53zM516 762q-26 -22 -57 -22t-49 22t-13 53t31 53t57 22t49 -22t13 -53t-31 -53zM574 700l-27 -154h-275l-21 -117h251l-27 -150h-250l-22 -125h280l-27 -154h-440l123 700h435z" />
    <glyph glyph-name="Igrave" unicode="&#xcc;" horiz-adv-x="280" 
d="M320 760h-141l-95 140h173zM139 700l-123 -700h160l123 700h-160z" />
    <glyph glyph-name="Iacute" unicode="&#xcd;" horiz-adv-x="280" 
d="M140 760l100 140h184l-136 -140h-148zM139 700l-123 -700h160l123 700h-160z" />
    <glyph glyph-name="Icircumflex" unicode="&#xce;" horiz-adv-x="280" 
d="M258 750l-23 55l-47 -55h-145l132 150h148l80 -150h-145zM176 0h-160l123 700h160z" />
    <glyph glyph-name="Idieresis" unicode="&#xcf;" horiz-adv-x="280" 
d="M188 762q-26 -22 -57 -22t-49 22t-13 53t31 53t57 22t49 -22t13 -53t-31 -53zM378 762q-26 -22 -57 -22t-49 22t-13 53t31 53t57 22t49 -22t13 -53t-31 -53zM16 0l123 700h160l-123 -700h-160z" />
    <glyph glyph-name="Eth" unicode="&#xd0;" horiz-adv-x="753" 
d="M180 700h280q139 0 221 -106q83 -106 58 -254q-26 -149 -138 -245q-113 -95 -264 -95h-280l47 268h-80l25 144h80zM585 355q16 89 -25.5 140t-126.5 51h-120l-24 -134h140l-25 -144h-140l-20 -114h110q90 0 152 55q63 55 79 146z" />
    <glyph glyph-name="Ntilde" unicode="&#xd1;" horiz-adv-x="670" 
d="M364 753h-120q5 58 27.5 97.5t54.5 52.5q68 27 132 -17q22 -16 34.5 -11t17.5 35h120q-5 -58 -27.5 -97.5t-55.5 -52.5q-66 -27 -131 17q-23 16 -35 11t-17 -35zM176 0h-160l123 700h120l201 -393l69 393h160l-123 -700h-120l-200 393z" />
    <glyph glyph-name="Ograve" unicode="&#xd2;" horiz-adv-x="788" 
d="M576 770h-141l-95 140h173zM352 -14q162 0 278 99t144 255q27 154 -63 264q-89 110 -239 110q-163 0 -280 -99q-116 -100 -143 -255q-28 -153 61 -264q90 -110 242 -110zM369 142q-86 0 -131 57q-45 59 -29 151q17 92 84 150t155 58t134 -58q48 -59 32 -150
q-16 -92 -87 -150q-70 -58 -158 -58z" />
    <glyph glyph-name="Oacute" unicode="&#xd3;" horiz-adv-x="788" 
d="M396 770l100 140h184l-136 -140h-148zM352 -14q162 0 278 99t144 255q27 154 -63 264q-89 110 -239 110q-163 0 -280 -99q-116 -100 -143 -255q-28 -153 61 -264q90 -110 242 -110zM369 142q-86 0 -131 57q-45 59 -29 151q17 92 84 150t155 58t134 -58q48 -59 32 -150
q-16 -92 -87 -150q-70 -58 -158 -58z" />
    <glyph glyph-name="Ocircumflex" unicode="&#xd4;" horiz-adv-x="788" 
d="M514 760l-23 55l-47 -55h-145l132 150h148l80 -150h-145zM472 714q150 0 239 -110q90 -110 63 -264q-28 -156 -144 -255t-278 -99q-152 0 -242 110q-89 111 -61 264q27 155 143 255q117 99 280 99zM209 350q-16 -92 29 -151q45 -57 131 -57q88 0 158 58q71 58 87 150
q16 91 -32 150q-46 58 -134 58t-155 -58t-84 -150z" />
    <glyph glyph-name="Otilde" unicode="&#xd5;" horiz-adv-x="788" 
d="M425 763h-120q5 58 27.5 97.5t54.5 52.5q68 27 132 -17q22 -16 34.5 -11t17.5 35h120q-5 -58 -27.5 -97.5t-55.5 -52.5q-66 -27 -131 17q-23 16 -35 11t-17 -35zM352 -14q-152 0 -242 110q-89 111 -61 264q27 155 143 255q117 99 280 99q150 0 239 -110q90 -110 63 -264
q-28 -156 -144 -255t-278 -99zM369 142q88 0 158 58q71 58 87 150q16 91 -32 150q-46 58 -134 58t-155 -58t-84 -150q-16 -92 29 -151q45 -57 131 -57z" />
    <glyph glyph-name="Odieresis" unicode="&#xd6;" horiz-adv-x="788" 
d="M444 772q-26 -22 -57 -22t-49 22t-13 53t31 53t57 22t49 -22t13 -53t-31 -53zM634 772q-26 -22 -57 -22t-49 22t-13 53t31 53t57 22t49 -22t13 -53t-31 -53zM352 -14q-152 0 -242 110q-89 111 -61 264q27 155 143 255q117 99 280 99q150 0 239 -110q90 -110 63 -264
q-28 -156 -144 -255t-278 -99zM369 142q88 0 158 58q71 58 87 150q16 91 -32 150q-46 58 -134 58t-155 -58t-84 -150q-16 -92 29 -151q45 -57 131 -57z" />
    <glyph glyph-name="multiply" unicode="&#xd7;" horiz-adv-x="525" 
d="M423 562l90 -98l-135 -117l95 -111l-109 -98l-96 114l-131 -114l-89 98l134 117l-94 111l108 98l96 -113z" />
    <glyph glyph-name="Oslash" unicode="&#xd8;" horiz-adv-x="793" 
d="M779 668l-63 -64q92 -110 63 -264q-29 -156 -144 -255t-278 -99q-109 0 -190 60l-59 -60l-73 46l73 74q-80 108 -54 254q27 155 143 255q117 99 280 99q100 0 177 -53l52 53zM214 350q-12 -73 12 -124l309 315q-37 17 -82 17q-88 0 -155 -58q-68 -58 -84 -150zM619 350
q13 79 -20 135l-316 -321q38 -22 91 -22q88 0 158 58t87 150z" />
    <glyph glyph-name="Ugrave" unicode="&#xd9;" horiz-adv-x="641" 
d="M501 760h-141l-95 140h173zM290 -14q118 0 196.5 61.5t99.5 178.5l84 474h-160l-81 -460q-17 -98 -127 -98t-93 98l81 460h-160l-84 -474q-19 -105 49 -173q68 -67 195 -67z" />
    <glyph glyph-name="Uacute" unicode="&#xda;" horiz-adv-x="641" 
d="M321 760l100 140h184l-136 -140h-148zM290 -14q118 0 196.5 61.5t99.5 178.5l84 474h-160l-81 -460q-17 -98 -127 -98t-93 98l81 460h-160l-84 -474q-19 -105 49 -173q68 -67 195 -67z" />
    <glyph glyph-name="Ucircumflex" unicode="&#xdb;" horiz-adv-x="641" 
d="M439 750l-23 55l-47 -55h-145l132 150h148l80 -150h-145zM429 240l81 460h160l-84 -474q-21 -117 -99.5 -178.5t-196.5 -61.5q-127 0 -195 67q-68 68 -49 173l84 474h160l-81 -460q-17 -98 93 -98t127 98z" />
    <glyph glyph-name="Udieresis" unicode="&#xdc;" horiz-adv-x="641" 
d="M369 762q-26 -22 -57 -22t-49 22t-13 53t31 53t57 22t49 -22t13 -53t-31 -53zM559 762q-26 -22 -57 -22t-49 22t-13 53t31 53t57 22t49 -22t13 -53t-31 -53zM290 -14q-127 0 -195 67q-68 68 -49 173l84 474h160l-81 -460q-17 -98 93 -98t127 98l81 460h160l-84 -474
q-21 -117 -99.5 -178.5t-196.5 -61.5z" />
    <glyph glyph-name="Yacute" unicode="&#xdd;" horiz-adv-x="610" 
d="M405 900h184l-136 -140h-148zM498 700h191l-294 -394l-54 -306h-160l54 307l-156 393h173l82 -236z" />
    <glyph glyph-name="Thorn" unicode="&#xde;" horiz-adv-x="590" 
d="M280 590h93q108 0 168 -72q60 -71 45 -178q-15 -102 -92 -167q-76 -63 -195 -63h-104l-19 -110h-160l123 700h160zM426 350q8 42 -12 66t-67 24h-94l-31 -180h93q45 0 74 24t37 66z" />
    <glyph glyph-name="germandbls" unicode="&#xdf;" horiz-adv-x="544" 
d="M231 -7l23 132q102 -15 112 49q5 29 -37 105q-41 79 -35 110q4 28 39 73q35 47 39 62q6 24 -8 39t-41 15q-61 0 -71 -63l-91 -515h-150l91 515q34 199 246 199q86 0 138 -51q53 -50 39 -122q-8 -40 -41 -86q-33 -48 -36 -66q-5 -16 14 -60.5t37 -99t10 -93.5
q-9 -77 -78.5 -118t-199.5 -25z" />
    <glyph glyph-name="agrave" unicode="&#xe0;" horiz-adv-x="623" 
d="M382 700l63 -140h-141l-95 140h173zM453 447l9 53h150l-88 -500h-150l6 34q-57 -48 -150 -48q-114 0 -167 83q-52 83 -31 193q20 104 94 177q76 75 187 75q94 0 140 -67zM418 249v1q10 56 -17.5 89t-79.5 33t-90.5 -33t-48.5 -89t17 -89t79 -33t91 33.5t49 87.5z" />
    <glyph glyph-name="aacute" unicode="&#xe1;" horiz-adv-x="623" 
d="M365 700h184l-136 -140h-148zM453 447l9 53h150l-88 -500h-150l6 34q-57 -48 -150 -48q-114 0 -167 83q-52 83 -31 193q20 104 94 177q76 75 187 75q94 0 140 -67zM418 249v1q10 56 -17.5 89t-79.5 33t-90.5 -33t-48.5 -89t17 -89t79 -33t91 33.5t49 87.5z" />
    <glyph glyph-name="acircumflex" unicode="&#xe2;" horiz-adv-x="623" 
d="M383 550l-23 55l-47 -55h-145l132 150h148l80 -150h-145zM453 447l9 53h150l-88 -500h-150l6 34q-57 -48 -150 -48q-114 0 -167 83q-52 83 -31 193q20 104 94 177q76 75 187 75q94 0 140 -67zM418 249v1q10 56 -17.5 89t-79.5 33t-90.5 -33t-48.5 -89t17 -89t79 -33
t91 33.5t49 87.5z" />
    <glyph glyph-name="atilde" unicode="&#xe3;" horiz-adv-x="623" 
d="M346 577q-23 16 -35 11t-17 -35h-120q5 58 27.5 97.5t54.5 52.5q68 27 132 -17q22 -16 34.5 -11t17.5 35h120q-5 -58 -27.5 -97.5t-55.5 -52.5q-66 -27 -131 17zM453 447l9 53h150l-88 -500h-150l6 34q-57 -48 -150 -48q-114 0 -167 83q-52 83 -31 193q20 104 94 177
q76 75 187 75q94 0 140 -67zM418 249v1q10 56 -17.5 89t-79.5 33t-90.5 -33t-48.5 -89t17 -89t79 -33t91 33.5t49 87.5z" />
    <glyph glyph-name="adieresis" unicode="&#xe4;" horiz-adv-x="623" 
d="M313 562q-26 -22 -57 -22t-49 22t-13 53t31 53t57 22t49 -22t13 -53t-31 -53zM503 562q-26 -22 -57 -22t-49 22t-13 53t31 53t57 22t49 -22t13 -53t-31 -53zM453 447l9 53h150l-88 -500h-150l6 34q-57 -48 -150 -48q-114 0 -167 83q-52 83 -31 193q20 104 94 177
q76 75 187 75q94 0 140 -67zM418 249v1q10 56 -17.5 89t-79.5 33t-90.5 -33t-48.5 -89t17 -89t79 -33t91 33.5t49 87.5z" />
    <glyph glyph-name="aring" unicode="&#xe5;" horiz-adv-x="623" 
d="M353 535q-57 0 -90 38t-24 91q10 54 52 87.5t100 33.5t91 -38t23 -91q-9 -54 -50.5 -87.5t-101.5 -33.5zM337 661q-5 -35 29 -35q38 0 42 33q3 15 -5 25t-25 10q-34 0 -41 -33zM453 447l9 53h150l-88 -500h-150l6 34q-57 -48 -150 -48q-114 0 -167 83q-52 83 -31 193
q20 104 94 177q76 75 187 75q94 0 140 -67zM418 249v1q10 56 -17.5 89t-79.5 33t-90.5 -33t-48.5 -89t17 -89t79 -33t91 33.5t49 87.5z" />
    <glyph glyph-name="ae" unicode="&#xe6;" horiz-adv-x="970" 
d="M749 514q104 0 157 -75t34 -189q-4 -27 -16 -60h-358q10 -70 103 -70q63 0 105 39l105 -86q-85 -87 -200 -87q-103 0 -156 63l-9 -49h-140l8 45q-65 -59 -152 -59q-114 0 -167 83q-52 83 -31 193q20 104 94 177q76 75 187 75q96 0 141 -61l8 47h140l-6 -32q64 46 153 46z
M587 304h212q-8 77 -90 77q-83 0 -122 -77zM278 128q52 0 91 33.5t49 87.5v1q10 56 -17.5 89t-79.5 33q-53 0 -92 -33.5t-49 -88.5t17.5 -88.5t80.5 -33.5z" />
    <glyph glyph-name="ccedilla" unicode="&#xe7;" horiz-adv-x="535" 
d="M276 134q63 0 104 56l121 -77q-63 -103 -183 -122l-6 -37q59 -22 49 -86q-19 -100 -241 -84l18 104q93 -8 98 14q3 15 -50 20l13 71q-90 23 -136 95q-46 73 -31 172q17 110 101 182t197 72q77 0 132.5 -35t80.5 -95l-137 -72q-22 54 -89 54q-51 0 -88.5 -31.5
t-46.5 -82.5t18 -84.5t76 -33.5z" />
    <glyph glyph-name="egrave" unicode="&#xe8;" horiz-adv-x="582" 
d="M385 705l63 -140h-141l-95 140h173zM331 514q112 0 176 -76q66 -76 45 -188q-4 -27 -16 -60h-358q10 -70 103 -70q63 0 105 39l105 -86q-85 -87 -220 -87q-127 0 -193 79q-65 81 -46 195q16 109 102 181q85 73 197 73zM199 304h212q-8 77 -90 77q-83 0 -122 -77z" />
    <glyph glyph-name="eacute" unicode="&#xe9;" horiz-adv-x="582" 
d="M368 705h184l-136 -140h-148zM331 514q112 0 176 -76q66 -76 45 -188q-4 -27 -16 -60h-358q10 -70 103 -70q63 0 105 39l105 -86q-85 -87 -220 -87q-127 0 -193 79q-65 81 -46 195q16 109 102 181q85 73 197 73zM199 304h212q-8 77 -90 77q-83 0 -122 -77z" />
    <glyph glyph-name="ecircumflex" unicode="&#xea;" horiz-adv-x="582" 
d="M386 555l-23 55l-47 -55h-145l132 150h148l80 -150h-145zM331 514q112 0 176 -76q66 -76 45 -188q-4 -27 -16 -60h-358q10 -70 103 -70q63 0 105 39l105 -86q-85 -87 -220 -87q-127 0 -193 79q-65 81 -46 195q16 109 102 181q85 73 197 73zM199 304h212q-8 77 -90 77
q-83 0 -122 -77z" />
    <glyph glyph-name="edieresis" unicode="&#xeb;" horiz-adv-x="582" 
d="M316 567q-26 -22 -57 -22t-49 22t-13 53t31 53t57 22t49 -22t13 -53t-31 -53zM506 567q-26 -22 -57 -22t-49 22t-13 53t31 53t57 22t49 -22t13 -53t-31 -53zM331 514q112 0 176 -76q66 -76 45 -188q-4 -27 -16 -60h-358q10 -70 103 -70q63 0 105 39l105 -86
q-85 -87 -220 -87q-127 0 -193 79q-65 81 -46 195q16 109 102 181q85 73 197 73zM199 304h212q-8 77 -90 77q-83 0 -122 -77z" />
    <glyph glyph-name="igrave" unicode="&#xec;" horiz-adv-x="260" 
d="M253 550h-139l-45 150h160zM161 0l88 500h-150l-88 -500h150z" />
    <glyph glyph-name="iacute" unicode="&#xed;" horiz-adv-x="260" 
d="M108 550l66 150h170l-92 -150h-144zM11 0h150l88 500h-150z" />
    <glyph glyph-name="icircumflex" unicode="&#xee;" horiz-adv-x="260" 
d="M213 550l-19 44l-31 -44h-150l122 150h148l70 -150h-140zM161 0h-150l88 500h150z" />
    <glyph glyph-name="idieresis" unicode="&#xef;" horiz-adv-x="260" 
d="M149 567q-26 -22 -57 -22t-49 22t-13 53t31 53t57 22t49 -22t13 -53t-31 -53zM329 567q-26 -22 -57 -22t-49 22t-13 53t31 53t57 22t49 -22t13 -53t-31 -53zM161 0h-150l88 500h150z" />
    <glyph glyph-name="eth" unicode="&#xf0;" horiz-adv-x="569" 
d="M381 577l121 -207q44 -77 32 -150q-20 -110 -100 -171q-79 -61 -186 -61q-103 -3 -171.5 70.5t-48.5 181.5q16 90 90 152t168 62l-37 68l-144 -60l18 105l83 34l-54 99h157l26 -45l142 59l-18 -105zM384 230q6 33 -8 59q-22 39 -78 39q-46 0 -79.5 -27t-40.5 -71
q-9 -48 14 -75t71 -27q47 0 79.5 27t41.5 75z" />
    <glyph glyph-name="ntilde" unicode="&#xf1;" 
d="M337 587q-23 16 -35 11t-17 -35h-120q5 58 27.5 97.5t54.5 52.5q68 27 132 -17q22 -16 34.5 -11t17.5 35h120q-5 -58 -27.5 -97.5t-55.5 -52.5q-66 -27 -131 17zM388 514q80 0 127 -56q46 -55 30 -151l-54 -307h-150l50 285q8 44 -12 67.5t-60 23.5q-41 0 -70.5 -25
t-38.5 -72l-49 -279h-150l88 500h150l-8 -47q55 61 147 61z" />
    <glyph glyph-name="ograve" unicode="&#xf2;" horiz-adv-x="590" 
d="M442 570h-141l-95 140h173zM264 -14q110 0 192 73q83 74 101 175q20 107 -42 193q-61 87 -181 87q-119 0 -199 -71t-101 -173q-31 -153 83 -241q58 -43 147 -43zM408 250q-9 -53 -47 -85.5t-87 -32.5t-74 32.5t-16 85.5q10 53 46.5 85.5t85.5 32.5t75.5 -32.5t16.5 -85.5
z" />
    <glyph glyph-name="oacute" unicode="&#xf3;" horiz-adv-x="590" 
d="M262 570l100 140h184l-136 -140h-148zM264 -14q110 0 192 73q83 74 101 175q20 107 -42 193q-61 87 -181 87q-119 0 -199 -71t-101 -173q-31 -153 83 -241q58 -43 147 -43zM408 250q-9 -53 -47 -85.5t-87 -32.5t-74 32.5t-16 85.5q10 53 46.5 85.5t85.5 32.5t75.5 -32.5
t16.5 -85.5z" />
    <glyph glyph-name="ocircumflex" unicode="&#xf4;" horiz-adv-x="590" 
d="M380 560l-23 55l-47 -55h-145l132 150h148l80 -150h-145zM334 514q120 0 181 -87q62 -86 42 -193q-18 -101 -101 -175q-82 -73 -192 -73q-89 0 -147 43q-114 88 -83 241q21 102 101 173t199 71zM408 250q10 53 -16.5 85.5t-75.5 32.5t-85.5 -32.5t-46.5 -85.5
q-9 -53 16 -85.5t74 -32.5t87 32.5t47 85.5z" />
    <glyph glyph-name="otilde" unicode="&#xf5;" horiz-adv-x="590" 
d="M291 563h-120q5 58 27.5 97.5t54.5 52.5q68 27 132 -17q22 -16 34.5 -11t17.5 35h120q-5 -58 -27.5 -97.5t-55.5 -52.5q-66 -27 -131 17q-23 16 -35 11t-17 -35zM264 -14q-89 0 -147 43q-114 88 -83 241q21 102 101 173t199 71q120 0 181 -87q62 -86 42 -193
q-18 -101 -101 -175q-82 -73 -192 -73zM408 250q10 53 -16.5 85.5t-75.5 32.5t-85.5 -32.5t-46.5 -85.5q-9 -53 16 -85.5t74 -32.5t87 32.5t47 85.5z" />
    <glyph glyph-name="odieresis" unicode="&#xf6;" horiz-adv-x="590" 
d="M310 572q-26 -22 -57 -22t-49 22t-13 53t31 53t57 22t49 -22t13 -53t-31 -53zM500 572q-26 -22 -57 -22t-49 22t-13 53t31 53t57 22t49 -22t13 -53t-31 -53zM264 -14q-89 0 -147 43q-114 88 -83 241q21 102 101 173t199 71q120 0 181 -87q62 -86 42 -193
q-18 -101 -101 -175q-82 -73 -192 -73zM408 250q10 53 -16.5 85.5t-75.5 32.5t-85.5 -32.5t-46.5 -85.5q-9 -53 16 -85.5t74 -32.5t87 32.5t47 85.5z" />
    <glyph glyph-name="divide" unicode="&#xf7;" horiz-adv-x="560" 
d="M385 482q-29 -25 -67 -25t-61 27q-22 27 -15 65t37 63t68.5 25t59.5 -27q22 -27 15 -65t-37 -63zM525 280h-480l25 140h480zM316 88q-30 -25 -68.5 -25t-59.5 27q-22 27 -15 65t37 63t68.5 25t59.5 -27q22 -27 15 -65t-37 -63z" />
    <glyph glyph-name="oslash" unicode="&#xf8;" horiz-adv-x="590" 
d="M505 510l63 -35l-50 -51q59 -83 39 -190q-18 -102 -98 -176q-79 -72 -195 -72q-81 0 -141 39l-34 -35l-63 34l48 48q-63 83 -40 198q21 102 101 173t199 71q79 0 135 -41zM184 250q-6 -38 4 -62l170 172q-22 8 -42 8q-49 0 -85.5 -32.5t-46.5 -85.5zM408 250q6 34 -3 60
l-169 -172q16 -6 38 -6q49 0 87 32.5t47 85.5z" />
    <glyph glyph-name="ugrave" unicode="&#xf9;" 
d="M361 700l63 -140h-141l-95 140h173zM370 221l49 279h150l-88 -500h-150l8 47q-55 -61 -147 -61q-82 0 -128 55t-29 152l54 307h150l-50 -285q-8 -44 12 -67.5t60 -23.5q41 0 70.5 25t38.5 72z" />
    <glyph glyph-name="uacute" unicode="&#xfa;" 
d="M344 700h184l-136 -140h-148zM370 221l49 279h150l-88 -500h-150l8 47q-55 -61 -147 -61q-82 0 -128 55t-29 152l54 307h150l-50 -285q-8 -44 12 -67.5t60 -23.5q41 0 70.5 25t38.5 72z" />
    <glyph glyph-name="ucircumflex" unicode="&#xfb;" 
d="M362 550l-23 55l-47 -55h-145l132 150h148l80 -150h-145zM370 221l49 279h150l-88 -500h-150l8 47q-55 -61 -147 -61q-82 0 -128 55t-29 152l54 307h150l-50 -285q-8 -44 12 -67.5t60 -23.5q41 0 70.5 25t38.5 72z" />
    <glyph glyph-name="udieresis" unicode="&#xfc;" 
d="M292 562q-26 -22 -57 -22t-49 22t-13 53t31 53t57 22t49 -22t13 -53t-31 -53zM482 562q-26 -22 -57 -22t-49 22t-13 53t31 53t57 22t49 -22t13 -53t-31 -53zM370 221l49 279h150l-88 -500h-150l8 47q-55 -61 -147 -61q-82 0 -128 55t-29 152l54 307h150l-50 -285
q-8 -44 12 -67.5t60 -23.5q41 0 70.5 25t38.5 72z" />
    <glyph glyph-name="yacute" unicode="&#xfd;" horiz-adv-x="530" 
d="M316 700h184l-136 -140h-148zM260 194l148 306h166l-256 -485q-66 -125 -144 -173q-77 -48 -179 -42l24 140q53 0 82 17q28 16 54 65l-111 478h154z" />
    <glyph glyph-name="thorn" unicode="&#xfe;" horiz-adv-x="623" 
d="M391 514q106 0 162 -83q55 -81 38 -191q-15 -101 -89 -178q-73 -76 -184 -76q-100 0 -147 71l-45 -257h-150l158 900h150l-42 -242q62 56 149 56zM346 372q-53 0 -92 -33.5t-49 -88.5t17.5 -88.5t80.5 -33.5q52 0 90 33t48 89t-16.5 89t-78.5 33z" />
    <glyph glyph-name="ydieresis" unicode="&#xff;" horiz-adv-x="530" 
d="M264 562q-26 -22 -57 -22t-49 22t-13 53t31 53t57 22t49 -22t13 -53t-31 -53zM454 562q-26 -22 -57 -22t-49 22t-13 53t31 53t57 22t49 -22t13 -53t-31 -53zM260 194l148 306h166l-256 -485q-66 -125 -144 -173q-77 -48 -179 -42l24 140q53 0 82 17q28 16 54 65l-111 478
h154z" />
    <glyph glyph-name="Amacron" unicode="&#x100;" horiz-adv-x="680" 
d="M301 879h300l-21 -120h-300zM636 0h-175l-14 110h-260l-56 -110h-175l361 700h204zM396 525l-134 -265h167z" />
    <glyph glyph-name="amacron" unicode="&#x101;" horiz-adv-x="623" 
d="M226 679h300l-21 -120h-300zM453 447l9 53h150l-88 -500h-150l6 34q-57 -48 -150 -48q-114 0 -167 83q-52 83 -31 193q20 104 94 177q76 75 187 75q94 0 140 -67zM418 249v1q10 56 -17.5 89t-79.5 33t-90.5 -33t-48.5 -89t17 -89t79 -33t91 33.5t49 87.5z" />
    <glyph glyph-name="Abreve" unicode="&#x102;" horiz-adv-x="680" 
d="M434 742q-85 0 -127 40.5t-29 109.5h132q-8 -46 35 -46q44 0 51 46h132q-11 -72 -61 -111t-133 -39zM636 0h-175l-14 110h-260l-56 -110h-175l361 700h204zM396 525l-134 -265h167z" />
    <glyph glyph-name="abreve" unicode="&#x103;" horiz-adv-x="623" 
d="M359 542q-85 0 -127 40.5t-29 109.5h132q-8 -46 35 -46q44 0 51 46h132q-11 -72 -61 -111t-133 -39zM453 447l9 53h150l-88 -500h-150l6 34q-57 -48 -150 -48q-114 0 -167 83q-52 83 -31 193q20 104 94 177q76 75 187 75q94 0 140 -67zM418 249v1q10 56 -17.5 89
t-79.5 33t-90.5 -33t-48.5 -89t17 -89t79 -33t91 33.5t49 87.5z" />
    <glyph glyph-name="Aogonek" unicode="&#x104;" horiz-adv-x="680" 
d="M576 -78q-3 -12 2 -20.5t16 -8.5q13 0 24 4l-17 -94q-46 -17 -91 -17q-44 0 -68.5 28t-15.5 73q11 57 80 113h-45l-14 110h-260l-56 -110h-175l361 700h204l115 -700q-52 -46 -60 -78zM396 525l-134 -265h167z" />
    <glyph glyph-name="aogonek" unicode="&#x105;" horiz-adv-x="623" 
d="M453 447l9 53h150l-88 -500q-59 -54 -61 -92q-1 -19 18 -19q13 0 24 4l-16 -90q-36 -17 -79 -17q-50 0 -77.5 24.5t-18.5 68.5q9 51 86 121h-26l6 34q-57 -48 -150 -48q-114 0 -167 83q-52 83 -31 193q20 104 94 177q76 75 187 75q94 0 140 -67zM418 249v1
q10 56 -17.5 89t-79.5 33t-90.5 -33t-48.5 -89t17 -89t79 -33t91 33.5t49 87.5z" />
    <glyph glyph-name="Cacute" unicode="&#x106;" horiz-adv-x="723" 
d="M397 770l100 140h184l-136 -140h-148zM359 -14q95 0 179.5 42.5t141.5 117.5l-130 85q-68 -89 -182 -89q-88 0 -131 57q-44 59 -28 151q16 94 81 151q66 57 157 57q107 0 148 -84l147 77q-36 78 -107.5 120.5t-170.5 42.5q-157 0 -273 -100q-117 -102 -142 -254
q-26 -157 62 -265q88 -109 248 -109z" />
    <glyph glyph-name="cacute" unicode="&#x107;" horiz-adv-x="535" 
d="M249 560l100 140h184l-136 -140h-148zM265 -14q74 0 136.5 32.5t99.5 94.5l-121 77q-41 -56 -104 -56q-49 0 -76 33.5t-18 84.5t46.5 82.5t88.5 31.5q67 0 89 -54l137 72q-25 60 -80.5 95t-132.5 35q-113 0 -197 -72t-101 -182q-18 -116 48 -195t185 -79z" />
    <glyph glyph-name="Cdotaccent" unicode="&#x10a;" horiz-adv-x="723" 
d="M485 755q-35 0 -56 25.5t-14 59.5q6 35 35.5 60t63.5 25q35 0 56 -25.5t15 -59.5q-7 -35 -36.5 -60t-63.5 -25zM359 -14q-160 0 -248 109q-88 108 -62 265q25 152 142 254q116 100 273 100q99 0 170.5 -42.5t107.5 -120.5l-147 -77q-41 84 -148 84q-91 0 -157 -57
q-65 -57 -81 -151q-16 -92 28 -151q43 -57 131 -57q114 0 182 89l130 -85q-57 -75 -141.5 -117.5t-179.5 -42.5z" />
    <glyph glyph-name="cdotaccent" unicode="&#x10b;" horiz-adv-x="535" 
d="M337 545q-35 0 -56 25.5t-14 59.5q6 35 35.5 60t63.5 25q35 0 56 -25.5t15 -59.5q-7 -35 -36.5 -60t-63.5 -25zM265 -14q-119 0 -185 79t-48 195q17 110 101 182t197 72q77 0 132.5 -35t80.5 -95l-137 -72q-22 54 -89 54q-51 0 -88.5 -31.5t-46.5 -82.5t18 -84.5
t76 -33.5q63 0 104 56l121 -77q-37 -62 -99.5 -94.5t-136.5 -32.5z" />
    <glyph glyph-name="Ccaron" unicode="&#x10c;" horiz-adv-x="723" 
d="M554 760h-148l-80 150h140l25 -55l45 55h150zM368 142q114 0 182 89l130 -85q-57 -75 -141.5 -117.5t-179.5 -42.5q-160 0 -248 109q-88 108 -62 265q25 152 142 254q116 100 273 100q99 0 170.5 -42.5t107.5 -120.5l-147 -77q-41 84 -148 84q-91 0 -157 -57
q-65 -57 -81 -151q-16 -92 28 -151q43 -57 131 -57z" />
    <glyph glyph-name="ccaron" unicode="&#x10d;" horiz-adv-x="535" 
d="M406 550h-148l-80 150h140l25 -55l45 55h150zM276 134q63 0 104 56l121 -77q-37 -62 -99.5 -94.5t-136.5 -32.5q-119 0 -185 79t-48 195q17 110 101 182t197 72q77 0 132.5 -35t80.5 -95l-137 -72q-22 54 -89 54q-51 0 -88.5 -31.5t-46.5 -82.5t18 -84.5t76 -33.5z" />
    <glyph glyph-name="Dcaron" unicode="&#x10e;" horiz-adv-x="712" 
d="M477 750h-148l-80 150h140l25 -55l45 55h150zM139 700h280q139 0 221 -106q83 -106 58 -254q-26 -149 -138 -245q-113 -95 -264 -95h-280zM544 355q16 89 -25.5 140t-126.5 51h-120l-69 -392h110q90 0 152 55q63 55 79 146z" />
    <glyph glyph-name="dcaron" unicode="&#x10f;" horiz-adv-x="751" 
d="M454 445l45 255h150l-123 -700h-150l6 36q-59 -50 -152 -50q-114 0 -167 83q-52 83 -31 193q20 104 94 177q76 75 187 75q96 0 141 -69zM653 490l47 210h140l-67 -210h-120zM280 128q51 0 89.5 32t49.5 85l2 10q7 54 -20 85.5t-78 31.5q-53 0 -92 -33.5t-49 -88.5
t17.5 -88.5t80.5 -33.5z" />
    <glyph glyph-name="Dcroat" unicode="&#x110;" horiz-adv-x="753" 
d="M180 700h280q139 0 221 -106q83 -106 58 -254q-26 -149 -138 -245q-113 -95 -264 -95h-280l47 268h-80l25 144h80zM585 355q16 89 -25.5 140t-126.5 51h-120l-24 -134h140l-25 -144h-140l-20 -114h110q90 0 152 55q63 55 79 146z" />
    <glyph glyph-name="dslash" unicode="&#x111;" horiz-adv-x="628" 
d="M638 640h59l-17 -94h-58l-96 -546h-150l6 36q-59 -50 -152 -50q-114 0 -167 83q-52 83 -31 193q20 104 94 177q76 75 187 75q96 0 141 -69l18 101h-142l17 94h141l11 60h150zM280 128q51 0 89.5 32t49.5 85l2 10q7 54 -20 85.5t-78 31.5q-53 0 -92 -33.5t-49 -88.5
t17.5 -88.5t80.5 -33.5z" />
    <glyph glyph-name="Emacron" unicode="&#x112;" horiz-adv-x="530" 
d="M239 879h300l-21 -120h-300zM574 700l-27 -154h-275l-21 -117h251l-27 -150h-250l-22 -125h280l-27 -154h-440l123 700h435z" />
    <glyph glyph-name="emacron" unicode="&#x113;" horiz-adv-x="582" 
d="M229 684h300l-21 -120h-300zM331 514q112 0 176 -76q66 -76 45 -188q-4 -27 -16 -60h-358q10 -70 103 -70q63 0 105 39l105 -86q-85 -87 -220 -87q-127 0 -193 79q-65 81 -46 195q16 109 102 181q85 73 197 73zM199 304h212q-8 77 -90 77q-83 0 -122 -77z" />
    <glyph glyph-name="Edotaccent" unicode="&#x116;" horiz-adv-x="530" 
d="M366 745q-35 0 -56 25.5t-14 59.5q6 35 35.5 60t63.5 25q35 0 56 -25.5t15 -59.5q-7 -35 -36.5 -60t-63.5 -25zM574 700l-27 -154h-275l-21 -117h251l-27 -150h-250l-22 -125h280l-27 -154h-440l123 700h435z" />
    <glyph glyph-name="edotaccent" unicode="&#x117;" horiz-adv-x="582" 
d="M356 550q-35 0 -56 25.5t-14 59.5q6 35 35.5 60t63.5 25q35 0 56 -25.5t15 -59.5q-7 -35 -36.5 -60t-63.5 -25zM331 514q112 0 176 -76q66 -76 45 -188q-4 -27 -16 -60h-358q10 -70 103 -70q63 0 105 39l105 -86q-85 -87 -220 -87q-127 0 -193 79q-65 81 -46 195
q16 109 102 181q85 73 197 73zM199 304h212q-8 77 -90 77q-83 0 -122 -77z" />
    <glyph glyph-name="Eogonek" unicode="&#x118;" horiz-adv-x="530" 
d="M574 700l-27 -154h-275l-21 -117h251l-27 -150h-250l-22 -125h280l-27 -154q-53 -50 -60 -85q-6 -26 17 -26q5 -1 24 4l-16 -90q-46 -17 -91 -17q-46 0 -69 23.5t-15 67.5q11 57 86 123h-316l123 700h435z" />
    <glyph glyph-name="eogonek" unicode="&#x119;" horiz-adv-x="582" 
d="M331 514q112 0 176 -76q66 -76 45 -188q-4 -27 -16 -60h-358q10 -70 103 -70q63 0 105 39l105 -86q-20 -20 -41 -35q-80 -68 -92 -119q-6 -30 20 -30q13 0 22 4l-16 -90q-39 -17 -82 -17q-52 0 -77 25.5t-18 65.5q9 51 79 109h-15q-127 0 -193 79q-65 81 -46 195
q16 109 102 181q85 73 197 73zM199 304h212q-8 77 -90 77q-83 0 -122 -77z" />
    <glyph glyph-name="Ecaron" unicode="&#x11a;" horiz-adv-x="530" 
d="M435 750h-148l-80 150h140l25 -55l45 55h150zM574 700l-27 -154h-275l-21 -117h251l-27 -150h-250l-22 -125h280l-27 -154h-440l123 700h435z" />
    <glyph glyph-name="ecaron" unicode="&#x11b;" horiz-adv-x="582" 
d="M425 555h-148l-80 150h140l25 -55l45 55h150zM331 514q112 0 176 -76q66 -76 45 -188q-4 -27 -16 -60h-358q10 -70 103 -70q63 0 105 39l105 -86q-85 -87 -220 -87q-127 0 -193 79q-65 81 -46 195q16 109 102 181q85 73 197 73zM199 304h212q-8 77 -90 77q-83 0 -122 -77
z" />
    <glyph glyph-name="Gbreve" unicode="&#x11e;" horiz-adv-x="784" 
d="M491 752q-85 0 -127 40.5t-29 109.5h132q-8 -46 35 -46q44 0 51 46h132q-11 -72 -61 -111t-133 -39zM427 390h351l-10 -60q-27 -162 -139 -253q-110 -91 -267 -91q-163 0 -251 109q-88 108 -62 265q25 152 142 254q116 100 273 100q103 0 178.5 -43.5t114.5 -124.5
l-147 -77q-48 89 -163 89q-91 0 -157 -57q-65 -57 -81 -151q-17 -95 29 -151q46 -57 140 -57q150 0 205 108h-180z" />
    <glyph glyph-name="gbreve" unicode="&#x11f;" horiz-adv-x="624" 
d="M355 552q-85 0 -127 40.5t-29 109.5h132q-8 -46 35 -46q44 0 51 46h132q-11 -72 -61 -111t-133 -39zM457 441l10 59h146l-84 -475q-21 -122 -96.5 -180.5t-192.5 -58.5q-178 0 -233 121l134 70q29 -59 110 -59q54 0 88.5 27.5t43.5 79.5l6 35q-59 -54 -150 -54
q-115 0 -169 79q-54 80 -36 187q17 98 90 170q74 72 183 72q107 0 150 -73zM283 146q50 0 89 29t51 75l4 21q4 46 -24.5 74.5t-78.5 28.5q-53 0 -92.5 -32t-48.5 -82t19 -82t81 -32z" />
    <glyph glyph-name="Gdotaccent" unicode="&#x120;" horiz-adv-x="784" 
d="M485 755q-35 0 -56 25.5t-14 59.5q6 35 35.5 60t63.5 25q35 0 56 -25.5t15 -59.5q-7 -35 -36.5 -60t-63.5 -25zM427 390h351l-10 -60q-27 -162 -139 -253q-110 -91 -267 -91q-163 0 -251 109q-88 108 -62 265q25 152 142 254q116 100 273 100q103 0 178.5 -43.5
t114.5 -124.5l-147 -77q-48 89 -163 89q-91 0 -157 -57q-65 -57 -81 -151q-17 -95 29 -151q46 -57 140 -57q150 0 205 108h-180z" />
    <glyph glyph-name="gdotaccent" unicode="&#x121;" horiz-adv-x="624" 
d="M349 555q-35 0 -56 25.5t-14 59.5q6 35 35.5 60t63.5 25q35 0 56 -25.5t15 -59.5q-7 -35 -36.5 -60t-63.5 -25zM457 441l10 59h146l-84 -475q-21 -122 -96.5 -180.5t-192.5 -58.5q-178 0 -233 121l134 70q29 -59 110 -59q54 0 88.5 27.5t43.5 79.5l6 35q-59 -54 -150 -54
q-115 0 -169 79q-54 80 -36 187q17 98 90 170q74 72 183 72q107 0 150 -73zM283 146q50 0 89 29t51 75l4 21q4 46 -24.5 74.5t-78.5 28.5q-53 0 -92.5 -32t-48.5 -82t19 -82t81 -32z" />
    <glyph glyph-name="Gcommaaccent" unicode="&#x122;" horiz-adv-x="784" 
d="M427 390h351l-10 -60q-27 -162 -139 -253q-110 -91 -267 -91q-163 0 -251 109q-88 108 -62 265q25 152 142 254q116 100 273 100q103 0 178.5 -43.5t114.5 -124.5l-147 -77q-48 89 -163 89q-91 0 -157 -57q-65 -57 -81 -151q-17 -95 29 -151q46 -57 140 -57
q150 0 205 108h-180zM351 -270h-120l47 210h140z" />
    <glyph glyph-name="gcommaaccent" unicode="&#x123;" horiz-adv-x="624" 
d="M343 790h120l-47 -210h-140zM457 441l10 59h146l-84 -475q-21 -122 -96.5 -180.5t-192.5 -58.5q-178 0 -233 121l134 70q29 -59 110 -59q54 0 88.5 27.5t43.5 79.5l6 35q-59 -54 -150 -54q-115 0 -169 79q-54 80 -36 187q17 98 90 170q74 72 183 72q107 0 150 -73z
M283 146q50 0 89 29t51 75l4 21q4 46 -24.5 74.5t-78.5 28.5q-53 0 -92.5 -32t-48.5 -82t19 -82t81 -32z" />
    <glyph glyph-name="Hbar" unicode="&#x126;" horiz-adv-x="700" 
d="M684 613h60l-20 -116h-61l-87 -497h-160l44 253h-220l-44 -253h-160l87 497h-59l20 116h60l15 87h160l-15 -87h220l15 87h160zM268 407h220l15 90h-220z" />
    <glyph glyph-name="hbar" unicode="&#x127;" horiz-adv-x="585" 
d="M393 514q80 0 127 -56q46 -55 30 -151l-54 -307h-150l50 285q8 44 -12 67.5t-60 23.5q-43 0 -72 -26.5t-38 -76.5l-48 -273h-150l96 546h-60l17 94h59l11 60h150l-11 -60h141l-17 -94h-140l-16 -93q55 61 147 61z" />
    <glyph glyph-name="Imacron" unicode="&#x12a;" horiz-adv-x="280" 
d="M380 759h-300l21 120h300zM16 0l123 700h160l-123 -700h-160z" />
    <glyph glyph-name="imacron" unicode="&#x12b;" horiz-adv-x="260" 
d="M305 559h-240l22 130h240zM161 0h-150l88 500h150z" />
    <glyph glyph-name="Iogonek" unicode="&#x12e;" horiz-adv-x="280" 
d="M299 700l-123 -700q-45 -53 -48 -86q-1 -25 20 -25q5 -1 24 4l-16 -90q-46 -17 -91 -17q-44 0 -66.5 24.5t-18.5 64.5q7 61 71 125h-35l123 700h160z" />
    <glyph glyph-name="iogonek" unicode="&#x12f;" horiz-adv-x="260" 
d="M108 634q6 36 37 63t67 27q37 0 59.5 -26.5t16.5 -63.5t-36.5 -63.5t-68.5 -26.5t-59.5 26.5t-15.5 63.5zM32 0h-21l88 500h150l-88 -500q-42 -52 -48 -87q-3 -24 18 -24q5 -1 24 4l-16 -90q-43 -17 -91 -17q-41 0 -64.5 23.5t-20.5 60.5q5 57 69 130z" />
    <glyph glyph-name="Idot" unicode="&#x130;" horiz-adv-x="280" 
d="M228 745q-35 0 -56 25.5t-14 59.5q6 35 35.5 60t63.5 25q35 0 56 -25.5t15 -59.5q-7 -35 -36.5 -60t-63.5 -25zM16 0l123 700h160l-123 -700h-160z" />
    <glyph glyph-name="dotlessi" unicode="&#x131;" horiz-adv-x="260" 
d="M161 0h-150l88 500h150z" />
    <glyph glyph-name="Kcommaaccent" unicode="&#x136;" horiz-adv-x="626" 
d="M516 700h189l-318 -344l195 -356h-165l-183 333l-58 -333h-160l123 700h160l-52 -293zM263 -270h-120l47 210h140z" />
    <glyph glyph-name="kcommaaccent" unicode="&#x137;" horiz-adv-x="525" 
d="M391 500h173l-221 -250l138 -250h-160l-120 228l-40 -228h-150l123 700h150l-72 -407zM241 -270h-120l47 210h140z" />
    <glyph glyph-name="Lacute" unicode="&#x139;" horiz-adv-x="480" 
d="M252 900h184l-136 -140h-148zM299 700l-96 -546h250l-27 -154h-410l27 154l96 546h160z" />
    <glyph glyph-name="lacute" unicode="&#x13a;" horiz-adv-x="261" 
d="M142 760l100 140h184l-136 -140h-148zM12 0h150l55 312l73 418h-150l-72 -411z" />
    <glyph glyph-name="Lcommaaccent" unicode="&#x13b;" horiz-adv-x="480" 
d="M299 700l-96 -546h250l-27 -154h-410l27 154l96 546h160zM216 -270h-120l47 210h140z" />
    <glyph glyph-name="lcommaaccent" unicode="&#x13c;" horiz-adv-x="261" 
d="M162 0h-150l56 319l72 411h150l-73 -418zM81 -270h-120l47 210h140z" />
    <glyph glyph-name="Lcaron" unicode="&#x13d;" horiz-adv-x="480" 
d="M139 700h160l-96 -546h250l-27 -154h-410l27 154zM364 700h150l-63 -190h-130z" />
    <glyph glyph-name="lcaron" unicode="&#x13e;" horiz-adv-x="376" 
d="M162 0h-150l56 319l72 411h150l-73 -418zM404 520h-120l47 210h140z" />
    <glyph glyph-name="Lslash" unicode="&#x141;" horiz-adv-x="510" 
d="M260 307l-27 -153h250l-27 -154h-410l27 154l9 48l-67 -39l28 163l67 39l59 335h160l-40 -230l134 79l-29 -163z" />
    <glyph glyph-name="lslash" unicode="&#x142;" horiz-adv-x="270" 
d="M248 466l56 34l-25 -143l-56 -34l-2 -11l-55 -312h-150l39 220l-56 -34l25 143l56 34l64 367h150z" />
    <glyph glyph-name="Nacute" unicode="&#x143;" horiz-adv-x="670" 
d="M335 760l100 140h184l-136 -140h-148zM16 0h160l70 393l200 -393h120l123 700h-160l-69 -393l-201 393h-120z" />
    <glyph glyph-name="nacute" unicode="&#x144;" 
d="M356 710h184l-136 -140h-148zM388 514q80 0 127 -56q46 -55 30 -151l-54 -307h-150l50 285q8 44 -12 67.5t-60 23.5q-41 0 -70.5 -25t-38.5 -72l-49 -279h-150l88 500h150l-8 -47q55 61 147 61z" />
    <glyph glyph-name="Ncommaaccent" unicode="&#x145;" horiz-adv-x="670" 
d="M176 0h-160l123 700h120l201 -393l69 393h160l-123 -700h-120l-200 393zM291 -270h-120l47 210h140z" />
    <glyph glyph-name="ncommaaccent" unicode="&#x146;" 
d="M388 514q80 0 127 -56q46 -55 30 -151l-54 -307h-150l50 285q8 44 -12 67.5t-60 23.5q-41 0 -70.5 -25t-38.5 -72l-49 -279h-150l88 500h150l-8 -47q55 61 147 61zM254 -270h-120l47 210h140z" />
    <glyph glyph-name="Ncaron" unicode="&#x147;" horiz-adv-x="670" 
d="M492 750h-148l-80 150h140l25 -55l45 55h150zM460 307l69 393h160l-123 -700h-120l-200 393l-70 -393h-160l123 700h120z" />
    <glyph glyph-name="ncaron" unicode="&#x148;" 
d="M413 560h-148l-80 150h140l25 -55l45 55h150zM388 514q80 0 127 -56q46 -55 30 -151l-54 -307h-150l50 285q8 44 -12 67.5t-60 23.5q-41 0 -70.5 -25t-38.5 -72l-49 -279h-150l88 500h150l-8 -47q55 61 147 61z" />
    <glyph glyph-name="Eng" unicode="&#x14a;" horiz-adv-x="670" 
d="M460 307l69 393h160l-123 -700q-38 -222 -275 -200l26 145q80 -2 92 69l8 44l-171 335l-70 -393h-160l123 700h120z" />
    <glyph glyph-name="eng" unicode="&#x14b;" 
d="M388 514q80 0 127 -56q46 -55 30 -151l-54 -307q-40 -227 -258 -214l26 144q69 -7 82 70l50 285q8 44 -12 67.5t-60 23.5q-41 0 -70.5 -25t-38.5 -72l-49 -279h-150l88 500h150l-8 -47q55 61 147 61z" />
    <glyph glyph-name="Omacron" unicode="&#x14c;" horiz-adv-x="788" 
d="M636 769h-300l21 120h300zM352 -14q-152 0 -242 110q-89 111 -61 264q27 155 143 255q117 99 280 99q150 0 239 -110q90 -110 63 -264q-28 -156 -144 -255t-278 -99zM369 142q88 0 158 58q71 58 87 150q16 91 -32 150q-46 58 -134 58t-155 -58t-84 -150q-16 -92 29 -151
q45 -57 131 -57z" />
    <glyph glyph-name="omacron" unicode="&#x14d;" horiz-adv-x="590" 
d="M502 569h-300l21 120h300zM264 -14q-89 0 -147 43q-114 88 -83 241q21 102 101 173t199 71q120 0 181 -87q62 -86 42 -193q-18 -101 -101 -175q-82 -73 -192 -73zM408 250q10 53 -16.5 85.5t-75.5 32.5t-85.5 -32.5t-46.5 -85.5q-9 -53 16 -85.5t74 -32.5t87 32.5
t47 85.5z" />
    <glyph glyph-name="Ohungarumlaut" unicode="&#x150;" horiz-adv-x="788" 
d="M294 760l105 140h154l-111 -140h-148zM477 760l115 140h154l-121 -140h-148zM352 -14q162 0 278 99t144 255q27 154 -63 264q-89 110 -239 110q-163 0 -280 -99q-116 -100 -143 -255q-28 -153 61 -264q90 -110 242 -110zM369 142q-86 0 -131 57q-45 59 -29 151
q17 92 84 150t155 58t134 -58q48 -59 32 -150q-16 -92 -87 -150q-70 -58 -158 -58z" />
    <glyph glyph-name="ohungarumlaut" unicode="&#x151;" horiz-adv-x="590" 
d="M160 560l105 140h154l-111 -140h-148zM343 560l115 140h154l-121 -140h-148zM264 -14q110 0 192 73q83 74 101 175q20 107 -42 193q-61 87 -181 87q-119 0 -199 -71t-101 -173q-31 -153 83 -241q58 -43 147 -43zM408 250q-9 -53 -47 -85.5t-87 -32.5t-74 32.5t-16 85.5
q10 53 46.5 85.5t85.5 32.5t75.5 -32.5t16.5 -85.5z" />
    <glyph glyph-name="OE" unicode="&#x152;" horiz-adv-x="916" 
d="M960 700l-27 -154h-235l-21 -117h211l-27 -150h-210l-22 -125h240l-27 -154h-400q-54 -14 -104 -14q-150 0 -234 109q-83 111 -55 265q27 152 144 253q119 101 263 101q61 0 109 -14h395zM470 157l67 386q-37 15 -99 15q-86 0 -150 -58q-62 -56 -79 -150t24.5 -151
t126.5 -57q66 0 110 15z" />
    <glyph glyph-name="oe" unicode="&#x153;" horiz-adv-x="960" 
d="M719 514q103 0 166 -76t45 -188q-4 -27 -16 -60h-358q10 -70 103 -70q63 0 105 39l105 -86q-85 -87 -214 -87q-141 0 -198 95q-83 -95 -203 -95q-85 0 -141 41q-108 79 -81 233q18 106 96 179q80 75 199 75t176 -95q84 95 216 95zM577 304h212q-8 77 -90 77
q-83 0 -122 -77zM410 250q10 52 -17 85t-77 33q-49 0 -86.5 -32.5t-47.5 -85.5q-9 -53 17 -85.5t75 -32.5q50 0 88.5 33t47.5 85z" />
    <glyph glyph-name="Racute" unicode="&#x154;" horiz-adv-x="615" 
d="M380 900h184l-136 -140h-148zM617 450q-13 -69 -56 -121t-107 -77l102 -252h-162l-91 230h-87l-40 -230h-160l123 700h270q100 0 163 -76q63 -75 45 -174zM383 550h-110l-32 -180h120q36 0 62.5 25.5t33.5 64.5t-13.5 64.5t-60.5 25.5z" />
    <glyph glyph-name="racute" unicode="&#x155;" horiz-adv-x="371" 
d="M262 700h184l-136 -140h-148zM249 500l-16 -90q21 48 66 74t102 26l-29 -170q-36 5 -67 -2q-36 -7 -66 -37t-38 -75l1 6l-41 -232h-150l88 500h150z" />
    <glyph glyph-name="Rcommaaccent" unicode="&#x156;" horiz-adv-x="615" 
d="M617 450q-13 -69 -56 -121t-107 -77l102 -252h-162l-91 230h-87l-40 -230h-160l123 700h270q100 0 163 -76q63 -75 45 -174zM383 550h-110l-32 -180h120q36 0 62.5 25.5t33.5 64.5t-13.5 64.5t-60.5 25.5zM291 -270h-120l47 210h140z" />
    <glyph glyph-name="rcommaaccent" unicode="&#x157;" horiz-adv-x="371" 
d="M249 500l-16 -90q21 48 66 74t102 26l-29 -170q-36 5 -67 -2q-36 -7 -66 -37t-38 -75l1 6l-41 -232h-150l88 500h150zM82 -270h-120l47 210h140z" />
    <glyph glyph-name="Rcaron" unicode="&#x158;" horiz-adv-x="615" 
d="M437 750h-148l-80 150h140l25 -55l45 55h150zM617 450q-13 -69 -56 -121t-107 -77l102 -252h-162l-91 230h-87l-40 -230h-160l123 700h270q100 0 163 -76q63 -75 45 -174zM383 550h-110l-32 -180h120q36 0 62.5 25.5t33.5 64.5t-13.5 64.5t-60.5 25.5z" />
    <glyph glyph-name="rcaron" unicode="&#x159;" horiz-adv-x="371" 
d="M319 550h-148l-80 150h140l25 -55l45 55h150zM249 500l-16 -90q21 48 66 74t102 26l-29 -170q-36 5 -67 -2q-36 -7 -66 -37t-38 -75l1 6l-41 -232h-150l88 500h150z" />
    <glyph glyph-name="Sacute" unicode="&#x15a;" horiz-adv-x="586" 
d="M297 770l100 140h184l-136 -140h-148zM270 -14q115 0 190 52t92 147q17 98 -45 160q-28 27 -81 49q-17 8 -62 24q-67 25 -90.5 43t-17.5 46q12 53 84 53q76 0 114 -78l140 74q-27 75 -90 116.5t-150 41.5q-97 0 -171 -50q-73 -49 -90 -148q-16 -92 32 -145
q50 -51 148 -84q71 -25 95.5 -42t18.5 -46q-11 -59 -103 -59q-109 0 -134 94l-146 -75q19 -81 88 -127t178 -46z" />
    <glyph glyph-name="sacute" unicode="&#x15b;" horiz-adv-x="468" 
d="M202 570l100 140h184l-136 -140h-148zM206 -14q88 0 145.5 37.5t71.5 111.5q25 137 -136 167q-43 11 -63.5 22t-17.5 29q6 31 51 31q47 0 65 -44l135 67q-24 50 -74.5 78.5t-116.5 28.5q-74 0 -135.5 -38.5t-74.5 -112.5q-25 -130 135 -169q42 -11 64 -22.5t19 -25.5
q-5 -26 -55 -26q-67 0 -89 57l-135 -68q55 -123 211 -123z" />
    <glyph glyph-name="Scedilla" unicode="&#x15e;" horiz-adv-x="586" 
d="M364 418q45 -16 62 -24q53 -22 81 -49q62 -62 45 -160q-15 -83 -74.5 -133.5t-153.5 -62.5l-6 -35q59 -22 49 -86q-19 -100 -241 -84l18 104q93 -8 98 14q3 15 -50 20l12 69q-81 13 -132.5 57t-67.5 111l146 75q25 -94 134 -94q92 0 103 59q6 29 -18.5 46t-95.5 42
q-98 33 -148 84q-48 53 -32 145q17 99 90 148q74 50 171 50q87 0 150 -41.5t90 -116.5l-140 -74q-38 78 -114 78q-72 0 -84 -53q-6 -28 17.5 -46t90.5 -43z" />
    <glyph glyph-name="scedilla" unicode="&#x15f;" horiz-adv-x="468" 
d="M206 353q-3 -18 17.5 -29t63.5 -22q161 -30 136 -167q-11 -60 -52 -96.5t-105 -47.5l-6 -37q59 -22 49 -86q-19 -100 -241 -84l18 104q93 -8 98 14q3 15 -50 20l12 69q-106 21 -151 118l135 68q22 -57 89 -57q50 0 55 26q3 14 -19 25.5t-64 22.5q-160 39 -135 169
q13 74 74.5 112.5t135.5 38.5q66 0 116.5 -28.5t74.5 -78.5l-135 -67q-18 44 -65 44q-45 0 -51 -31z" />
    <glyph glyph-name="Scaron" unicode="&#x160;" horiz-adv-x="586" 
d="M454 760h-148l-80 150h140l25 -55l45 55h150zM364 418q45 -16 62 -24q53 -22 81 -49q62 -62 45 -160q-17 -95 -92 -147t-190 -52q-109 0 -178 46t-88 127l146 75q25 -94 134 -94q92 0 103 59q6 29 -18.5 46t-95.5 42q-98 33 -148 84q-48 53 -32 145q17 99 90 148
q74 50 171 50q87 0 150 -41.5t90 -116.5l-140 -74q-38 78 -114 78q-72 0 -84 -53q-6 -28 17.5 -46t90.5 -43z" />
    <glyph glyph-name="scaron" unicode="&#x161;" horiz-adv-x="468" 
d="M359 560h-148l-80 150h140l25 -55l45 55h150zM257 384q-45 0 -51 -31q-3 -18 17.5 -29t63.5 -22q161 -30 136 -167q-14 -74 -71.5 -111.5t-145.5 -37.5q-156 0 -211 123l135 68q22 -57 89 -57q50 0 55 26q3 14 -19 25.5t-64 22.5q-160 39 -135 169q13 74 74.5 112.5
t135.5 38.5q66 0 116.5 -28.5t74.5 -78.5l-135 -67q-18 44 -65 44z" />
    <glyph glyph-name="uni0162" unicode="&#x162;" horiz-adv-x="540" 
d="M89 700h520l-27 -154h-180l-96 -546h-160l96 546h-180zM221 -270h-120l47 210h140z" />
    <glyph glyph-name="uni0163" unicode="&#x163;" horiz-adv-x="389" 
d="M367 356h-103l-31 -177q-6 -30 15.5 -38.5t80.5 -4.5l-24 -136q-134 -15 -187.5 29t-34.5 150l31 177h-80l26 144h79l17 95l158 45l-25 -140h104zM181 -270h-120l47 210h140z" />
    <glyph glyph-name="Tcaron" unicode="&#x164;" horiz-adv-x="540" 
d="M427 750h-148l-80 150h140l25 -55l45 55h150zM89 700h520l-27 -154h-180l-96 -546h-160l96 546h-180z" />
    <glyph glyph-name="tcaron" unicode="&#x165;" horiz-adv-x="416" 
d="M338 540l43 190h140l-63 -190h-120zM156 595l158 45l-25 -140h104l-26 -144h-103l-31 -177q-6 -30 15.5 -38.5t80.5 -4.5l-24 -136q-134 -15 -187.5 29t-34.5 150l31 177h-80l26 144h79z" />
    <glyph glyph-name="Tbar" unicode="&#x166;" horiz-adv-x="540" 
d="M609 700l-27 -154h-180l-24 -134h110l-25 -144h-110l-47 -268h-160l47 268h-110l25 144h110l24 134h-180l27 154h520z" />
    <glyph glyph-name="tbar" unicode="&#x167;" horiz-adv-x="389" 
d="M393 500l-26 -144h-103l-8 -48h75l-21 -120h-75l-2 -9q-6 -30 15.5 -38.5t80.5 -4.5l-24 -136q-134 -15 -187.5 29t-34.5 150l2 9h-55l21 120h55l8 48h-80l26 144h79l17 95l158 45l-25 -140h104z" />
    <glyph glyph-name="Umacron" unicode="&#x16a;" horiz-adv-x="641" 
d="M561 759h-300l21 120h300zM290 -14q-127 0 -195 67q-68 68 -49 173l84 474h160l-81 -460q-17 -98 93 -98t127 98l81 460h160l-84 -474q-21 -117 -99.5 -178.5t-196.5 -61.5z" />
    <glyph glyph-name="umacron" unicode="&#x16b;" 
d="M205 679h300l-21 -120h-300zM370 221l49 279h150l-88 -500h-150l8 47q-55 -61 -147 -61q-82 0 -128 55t-29 152l54 307h150l-50 -285q-8 -44 12 -67.5t60 -23.5q41 0 70.5 25t38.5 72z" />
    <glyph glyph-name="Uring" unicode="&#x16e;" horiz-adv-x="641" 
d="M404 705q-57 0 -90 38t-24 91q10 54 52 87.5t100 33.5t91 -38t23 -91q-9 -54 -50.5 -87.5t-101.5 -33.5zM417 796q37 0 42 33q3 15 -5 25t-25 10q-33 0 -41 -33q-5 -35 29 -35zM290 -14q-127 0 -195 67q-68 68 -49 173l84 474h160l-81 -460q-17 -98 93 -98t127 98l81 460
h160l-84 -474q-21 -117 -99.5 -178.5t-196.5 -61.5z" />
    <glyph glyph-name="uring" unicode="&#x16f;" 
d="M332 535q-57 0 -90 38t-24 91q10 54 52 87.5t100 33.5t91 -38t23 -91q-9 -54 -50.5 -87.5t-101.5 -33.5zM316 661q-5 -35 29 -35q37 0 42 33q3 15 -5 25t-25 10q-33 0 -41 -33zM370 221l49 279h150l-88 -500h-150l8 47q-55 -61 -147 -61q-82 0 -128 55t-29 152l54 307
h150l-50 -285q-8 -44 12 -67.5t60 -23.5q41 0 70.5 25t38.5 72z" />
    <glyph glyph-name="Uhungarumlaut" unicode="&#x170;" horiz-adv-x="641" 
d="M219 750l105 140h154l-111 -140h-148zM402 750l115 140h154l-121 -140h-148zM290 -14q118 0 196.5 61.5t99.5 178.5l84 474h-160l-81 -460q-17 -98 -127 -98t-93 98l81 460h-160l-84 -474q-19 -105 49 -173q68 -67 195 -67z" />
    <glyph glyph-name="uhungarumlaut" unicode="&#x171;" 
d="M247 690h154l-111 -140h-148zM594 690l-121 -140h-148l115 140h154zM370 221l49 279h150l-88 -500h-150l8 47q-55 -61 -147 -61q-82 0 -128 55t-29 152l54 307h150l-50 -285q-8 -44 12 -67.5t60 -23.5q41 0 70.5 25t38.5 72z" />
    <glyph glyph-name="Uogonek" unicode="&#x172;" horiz-adv-x="641" 
d="M429 240l81 460h160l-84 -474q-23 -124 -109 -185q-60 -47 -85.5 -74t-31.5 -52q-5 -25 17 -26q7 -1 24 4l-16 -90q-46 -17 -84 -17q-52 0 -76 29t-15 72q10 55 67 99q-121 4 -185 71t-46 169l84 474h160l-81 -460q-17 -98 93 -98t127 98z" />
    <glyph glyph-name="uogonek" unicode="&#x173;" 
d="M370 221l49 279h150l-88 -500h-3q-59 -54 -61 -92q-1 -19 18 -19q13 0 24 4l-16 -90q-36 -17 -77 -17q-51 0 -78.5 24t-19.5 69q11 55 86 121h-23l8 47q-55 -61 -147 -61q-82 0 -128 55t-29 152l54 307h150l-50 -285q-8 -44 12 -67.5t60 -23.5q41 0 70.5 25t38.5 72z" />
    <glyph glyph-name="Wcircumflex" unicode="&#x174;" horiz-adv-x="998" 
d="M617 750l-23 55l-47 -55h-145l132 150h148l80 -150h-145zM686 210l207 490h174l-316 -700h-182l-42 413l-186 -413h-182l-70 700h160l37 -490l221 490h130z" />
    <glyph glyph-name="wcircumflex" unicode="&#x175;" horiz-adv-x="780" 
d="M473 550l-23 55l-47 -55h-145l132 150h148l80 -150h-145zM532 232l117 268h165l-248 -500h-140l-33 263l-117 -263h-150l-72 500h150l31 -268l119 268h145z" />
    <glyph glyph-name="Ycircumflex" unicode="&#x176;" horiz-adv-x="610" 
d="M423 750l-23 55l-47 -55h-145l132 150h148l80 -150h-145zM498 700h191l-294 -394l-54 -306h-160l54 307l-156 393h173l82 -236z" />
    <glyph glyph-name="ycircumflex" unicode="&#x177;" horiz-adv-x="530" 
d="M334 550l-23 55l-47 -55h-145l132 150h148l80 -150h-145zM260 194l148 306h166l-256 -485q-66 -125 -144 -173q-77 -48 -179 -42l24 140q53 0 82 17q28 16 54 65l-111 478h154z" />
    <glyph glyph-name="Ydieresis" unicode="&#x178;" horiz-adv-x="610" 
d="M353 762q-26 -22 -57 -22t-49 22t-13 53t31 53t57 22t49 -22t13 -53t-31 -53zM543 762q-26 -22 -57 -22t-49 22t-13 53t31 53t57 22t49 -22t13 -53t-31 -53zM498 700h191l-294 -394l-54 -306h-160l54 307l-156 393h173l82 -236z" />
    <glyph glyph-name="Zacute" unicode="&#x179;" horiz-adv-x="540" 
d="M375 900h184l-136 -140h-148zM119 700h470l-21 -124l-340 -422h270l-27 -154h-480l22 124l341 422h-262z" />
    <glyph glyph-name="zacute" unicode="&#x17a;" horiz-adv-x="455" 
d="M295 700h184l-136 -140h-148zM232 360h-173l25 140h380l-17 -100l-229 -260h193l-25 -140h-400l18 100z" />
    <glyph glyph-name="Zdotaccent" unicode="&#x17b;" horiz-adv-x="540" 
d="M363 745q-35 0 -56 25.5t-14 59.5q6 35 35.5 60t63.5 25q35 0 56 -25.5t15 -59.5q-7 -35 -36.5 -60t-63.5 -25zM119 700h470l-21 -124l-340 -422h270l-27 -154h-480l22 124l341 422h-262z" />
    <glyph glyph-name="zdotaccent" unicode="&#x17c;" horiz-adv-x="455" 
d="M283 545q-35 0 -56 25.5t-14 59.5q6 35 35.5 60t63.5 25q35 0 56 -25.5t15 -59.5q-7 -35 -36.5 -60t-63.5 -25zM84 500h380l-17 -100l-229 -260h193l-25 -140h-400l18 100l228 260h-173z" />
    <glyph glyph-name="Zcaron" unicode="&#x17d;" horiz-adv-x="540" 
d="M432 750h-148l-80 150h140l25 -55l45 55h150zM119 700h470l-21 -124l-340 -422h270l-27 -154h-480l22 124l341 422h-262z" />
    <glyph glyph-name="zcaron" unicode="&#x17e;" horiz-adv-x="455" 
d="M352 550h-148l-80 150h140l25 -55l45 55h150zM232 360h-173l25 140h380l-17 -100l-229 -260h193l-25 -140h-400l18 100z" />
    <glyph glyph-name="florin" unicode="&#x192;" horiz-adv-x="442" 
d="M203 424l39 112q78 221 280 169l-26 -150q-17 8 -37.5 8.5t-41.5 -15.5t-30 -45l-27 -79h82l-26 -144h-107l-108 -312q-78 -221 -280 -169l26 150q17 -8 37 -8.5t41 15.5t31 45l97 279h-77l26 144h101z" />
    <glyph glyph-name="Scommaaccent" unicode="&#x218;" horiz-adv-x="586" 
d="M270 -14q-109 0 -178 46t-88 127l146 75q25 -94 134 -94q92 0 103 59q6 29 -18.5 46t-95.5 42q-98 33 -148 84q-48 53 -32 145q17 99 90 148q74 50 171 50q87 0 150 -41.5t90 -116.5l-140 -74q-38 78 -114 78q-72 0 -84 -53q-6 -28 17.5 -46t90.5 -43q45 -16 62 -24
q53 -22 81 -49q62 -62 45 -160q-17 -95 -92 -147t-190 -52zM259 -270h-120l47 210h140z" />
    <glyph glyph-name="scommaaccent" unicode="&#x219;" horiz-adv-x="468" 
d="M206 -14q-156 0 -211 123l135 68q22 -57 89 -57q50 0 55 26q3 14 -19 25.5t-64 22.5q-160 39 -135 169q13 74 74.5 112.5t135.5 38.5q66 0 116.5 -28.5t74.5 -78.5l-135 -67q-18 44 -65 44q-45 0 -51 -31q-3 -18 17.5 -29t63.5 -22q161 -30 136 -167
q-14 -74 -71.5 -111.5t-145.5 -37.5zM201 -270h-120l47 210h140z" />
    <glyph glyph-name="uni021A" unicode="&#x21a;" horiz-adv-x="540" 
d="M89 700h520l-27 -154h-180l-96 -546h-160l96 546h-180zM221 -270h-120l47 210h140z" />
    <glyph glyph-name="uni021B" unicode="&#x21b;" horiz-adv-x="389" 
d="M367 356h-103l-31 -177q-6 -30 15.5 -38.5t80.5 -4.5l-24 -136q-134 -15 -187.5 29t-34.5 150l31 177h-80l26 144h79l17 95l158 45l-25 -140h104zM181 -270h-120l47 210h140z" />
    <glyph glyph-name="circumflex" unicode="&#x2c6;" horiz-adv-x="400" 
d="M353 700l80 -150h-145l-23 55l-47 -55h-145l132 150h148z" />
    <glyph glyph-name="caron" unicode="&#x2c7;" horiz-adv-x="400" 
d="M264 645l45 55h150l-132 -150h-148l-80 150h140z" />
    <glyph glyph-name="breve" unicode="&#x2d8;" horiz-adv-x="390" 
d="M254 542q-85 0 -127 40.5t-29 109.5h132q-8 -46 35 -46q44 0 51 46h132q-11 -72 -61 -111t-133 -39z" />
    <glyph glyph-name="dotaccent" unicode="&#x2d9;" horiz-adv-x="190" 
d="M157 545q-35 0 -56 25.5t-14 59.5q6 35 35.5 60t63.5 25q35 0 56 -25.5t15 -59.5q-7 -35 -36.5 -60t-63.5 -25z" />
    <glyph glyph-name="ring" unicode="&#x2da;" horiz-adv-x="306" 
d="M202 535q-57 0 -90 38t-24 91q10 54 52 87.5t100 33.5t91 -38t23 -91q-9 -54 -50.5 -87.5t-101.5 -33.5zM215 626q37 0 42 33q3 15 -5 25t-25 10q-33 0 -41 -33q-5 -35 29 -35z" />
    <glyph glyph-name="ogonek" unicode="&#x2db;" horiz-adv-x="228" 
d="M38 -214q-46 0 -69 23.5t-15 67.5q11 57 86 123h124q-53 -50 -60 -85q-6 -26 17 -26q5 -1 24 4l-16 -90q-46 -17 -91 -17z" />
    <glyph glyph-name="tilde" unicode="&#x2dc;" horiz-adv-x="398" 
d="M204 553h-120q5 58 27.5 97.5t54.5 52.5q68 27 132 -17q22 -16 34.5 -11t17.5 35h120q-5 -58 -27.5 -97.5t-55.5 -52.5q-66 -27 -131 17q-23 16 -35 11t-17 -35z" />
    <glyph glyph-name="hungarumlaut" unicode="&#x2dd;" horiz-adv-x="467" 
d="M73 550l105 140h154l-111 -140h-148zM256 550l115 140h154l-121 -140h-148z" />
    <glyph glyph-name="gravecomb" unicode="&#x300;" horiz-adv-x="0" 
d="M35 560h-141l-95 140h173z" />
    <glyph glyph-name="acutecomb" unicode="&#x301;" horiz-adv-x="0" 
d="M-225 560l100 140h184l-136 -140h-148z" />
    <glyph glyph-name="uni0302" unicode="&#x302;" horiz-adv-x="0" 
d="M-47 700l80 -150h-145l-23 55l-47 -55h-145l132 150h148z" />
    <glyph glyph-name="tildecomb" unicode="&#x303;" horiz-adv-x="0" 
d="M-206 553h-120q5 58 27.5 97.5t55.5 52.5q66 27 131 -17q22 -16 34.5 -11t17.5 35h120q-5 -58 -27.5 -97.5t-54.5 -52.5q-68 -27 -132 17q-23 16 -35 11t-17 -35z" />
    <glyph glyph-name="uni0304" unicode="&#x304;" horiz-adv-x="0" 
d="M35 559h-300l21 120h300z" />
    <glyph glyph-name="uni0306" unicode="&#x306;" horiz-adv-x="0" 
d="M-136 542q-85 0 -127 40.5t-29 109.5h132q-8 -46 35 -46q44 0 51 46h132q-11 -72 -61 -111t-133 -39z" />
    <glyph glyph-name="uni0307" unicode="&#x307;" horiz-adv-x="0" 
d="M-53 545q-35 0 -56 25.5t-14 59.5q6 35 35.5 60t63.5 25q35 0 56 -25.5t15 -59.5q-7 -35 -36.5 -60t-63.5 -25z" />
    <glyph glyph-name="uni0308" unicode="&#x308;" horiz-adv-x="0" 
d="M-177 562q-26 -22 -57 -22t-49 22t-13 53t31 53t57 22t49 -22t13 -53t-31 -53zM13 562q-26 -22 -57 -22t-49 22t-13 53t31 53t57 22t49 -22t13 -53t-31 -53z" />
    <glyph glyph-name="uni030A" unicode="&#x30a;" horiz-adv-x="0" 
d="M-100 535q-57 0 -90 38t-24 91q10 54 52 87.5t100 33.5t91 -38t23 -91q-9 -54 -50.5 -87.5t-101.5 -33.5zM-87 626q37 0 42 33q3 15 -5 25t-25 10q-33 0 -41 -33q-5 -35 29 -35z" />
    <glyph glyph-name="uni030B" unicode="&#x30b;" horiz-adv-x="0" 
d="M-394 550l105 140h154l-111 -140h-148zM-211 550l115 140h154l-121 -140h-148z" />
    <glyph glyph-name="uni030C" unicode="&#x30c;" horiz-adv-x="0" 
d="M-136 645l45 55h150l-132 -150h-148l-80 150h140z" />
    <glyph glyph-name="uni0312" unicode="&#x312;" horiz-adv-x="0" 
d="M-11 980h120l-47 -210h-140z" />
    <glyph glyph-name="uni0326" unicode="&#x326;" horiz-adv-x="0" 
d="M-142 -270h-120l47 210h140z" />
    <glyph glyph-name="uni0327" unicode="&#x327;" horiz-adv-x="0" 
d="M-128 0l-8 -46q59 -22 49 -86q-19 -100 -241 -84l18 104q93 -8 98 14q3 15 -50 20l14 78h120z" />
    <glyph glyph-name="uni0328" unicode="&#x328;" horiz-adv-x="0" 
d="M-200 -214q-46 0 -69 23.5t-15 67.5q11 57 86 123h124q-53 -50 -60 -85q-6 -26 17 -26q5 -1 24 4l-16 -90q-46 -17 -91 -17z" />
    <glyph glyph-name="uni0394" unicode="&#x394;" horiz-adv-x="660" 
d="M307 700h204l105 -700h-660zM385 525l-177 -375h221z" />
    <glyph glyph-name="uni03A9" unicode="&#x3a9;" horiz-adv-x="768" 
d="M767 360q-21 -124 -121 -206h71l-27 -154h-278l11 63l16 91q64 21 108 73t57 123q16 91 -32 150q-46 58 -134 58t-155 -58q-66 -57 -83 -150q-13 -71 12.5 -123t82.5 -73l-27 -154h-278l27 154h89q-86 95 -63 226q25 146 142 240q115 94 271 94q148 0 242 -105
q94 -103 69 -249z" />
    <glyph glyph-name="pi" unicode="&#x3c0;" horiz-adv-x="670" 
d="M64 500h630l-25 -140h-78l-63 -360h-150l63 360h-170l-63 -360h-150l63 360h-82z" />
    <glyph glyph-name="uni0401" unicode="&#x401;" horiz-adv-x="530" 
d="M326 762q-26 -22 -57 -22t-49 22t-13 53t31 53t57 22t49 -22t13 -53t-31 -53zM516 762q-26 -22 -57 -22t-49 22t-13 53t31 53t57 22t49 -22t13 -53t-31 -53zM574 700l-27 -154h-275l-21 -117h251l-27 -150h-250l-22 -125h280l-27 -154h-440l123 700h435z" />
    <glyph glyph-name="uni0402" unicode="&#x402;" horiz-adv-x="695" 
d="M500 464q90 0 134.5 -54.5t28.5 -142.5l-11 -63q-22 -122 -84.5 -171.5t-183.5 -42.5l27 149q39 -2 57 13t24 52l7 45q6 38 -8.5 54.5t-51.5 16.5q-45 0 -90 -19l-53 -301h-160l96 546h-170l27 154h520l-27 -154h-190l-18 -100q64 18 126 18z" />
    <glyph glyph-name="uni0403" unicode="&#x403;" horiz-adv-x="470" 
d="M366 899h184l-136 -140h-148zM16 0l123 700h400l-27 -154h-240l-96 -546h-160z" />
    <glyph glyph-name="uni0404" unicode="&#x404;" horiz-adv-x="723" 
d="M368 142q114 0 182 89l130 -85q-57 -75 -141.5 -117.5t-179.5 -42.5q-160 0 -248 109q-88 108 -62 265q25 152 142 254q116 100 273 100q99 0 170.5 -42.5t107.5 -120.5l-147 -77q-41 84 -148 84q-71 0 -127.5 -35.5t-86.5 -97.5h285l-27 -150h-284q8 -62 51 -97.5
t110 -35.5z" />
    <glyph glyph-name="uni0405" unicode="&#x405;" horiz-adv-x="586" 
d="M270 -14q-109 0 -178 46t-88 127l146 75q25 -94 134 -94q92 0 103 59q6 29 -18.5 46t-95.5 42q-98 33 -148 84q-48 53 -32 145q17 99 90 148q74 50 171 50q87 0 150 -41.5t90 -116.5l-140 -74q-38 78 -114 78q-72 0 -84 -53q-6 -28 17.5 -46t90.5 -43q45 -16 62 -24
q53 -22 81 -49q62 -62 45 -160q-17 -95 -92 -147t-190 -52z" />
    <glyph glyph-name="uni0406" unicode="&#x406;" horiz-adv-x="280" 
d="M16 0l123 700h160l-123 -700h-160z" />
    <glyph glyph-name="uni0407" unicode="&#x407;" horiz-adv-x="280" 
d="M188 762q-26 -22 -57 -22t-49 22t-13 53t31 53t57 22t49 -22t13 -53t-31 -53zM378 762q-26 -22 -57 -22t-49 22t-13 53t31 53t57 22t49 -22t13 -53t-31 -53zM16 0l123 700h160l-123 -700h-160z" />
    <glyph glyph-name="uni0408" unicode="&#x408;" horiz-adv-x="570" 
d="M232 -14q-171 0 -224 141l147 80q10 -35 31 -50t60 -15q94 0 109 83l84 475h160l-84 -475q-21 -118 -94 -178.5t-189 -60.5z" />
    <glyph glyph-name="uni0409" unicode="&#x409;" horiz-adv-x="950" 
d="M635 450h85q98 0 160 -69q62 -68 44 -166t-95 -157q-76 -58 -188 -58h-245l96 546h-154l-46 -262q-11 -65 -31.5 -115.5t-45.5 -81t-56 -52t-62.5 -28.5t-65.5 -10.5t-65 1.5l26 150q60 -7 92 21t47 109l74 422h474zM694 300h-85l-27 -150h85q39 0 64.5 19.5t32.5 55.5
t-12 55.5t-58 19.5z" />
    <glyph glyph-name="uni040A" unicode="&#x40a;" horiz-adv-x="950" 
d="M635 450h85q98 0 160 -69q62 -68 44 -166t-95 -157q-76 -58 -188 -58h-245l53 300h-220l-53 -300h-160l123 700h160l-44 -250h220l44 250h160zM694 300h-85l-27 -150h85q39 0 64.5 19.5t32.5 55.5t-12 55.5t-58 19.5z" />
    <glyph glyph-name="uni040B" unicode="&#x40b;" horiz-adv-x="700" 
d="M491 464q95 0 141 -52.5t30 -144.5l-46 -267h-160l43 249q7 38 -10 54.5t-58 16.5q-45 0 -82 -18l-53 -302h-160l96 546h-170l27 154h520l-27 -154h-190l-17 -99q54 17 116 17z" />
    <glyph glyph-name="uni040C" unicode="&#x40c;" horiz-adv-x="626" 
d="M416 899h184l-136 -140h-148zM516 700h189l-318 -344l195 -356h-165l-183 333l-58 -333h-160l123 700h160l-52 -293z" />
    <glyph glyph-name="uni040E" unicode="&#x40e;" horiz-adv-x="610" 
d="M268 888h300l-22 -130h-300zM343 394l170 306h166l-279 -494q-68 -120 -147.5 -166t-182.5 -40l26 150q96 -9 150 72l-147 478h154z" />
    <glyph glyph-name="uni040F" unicode="&#x40f;" horiz-adv-x="650" 
d="M413 154l96 546h160l-123 -700h-185l-24 -134h-160l24 134h-185l123 700h160l-96 -546h210z" />
    <glyph glyph-name="uni0410" unicode="&#x410;" horiz-adv-x="680" 
d="M636 0h-175l-14 110h-260l-56 -110h-175l361 700h204zM396 525l-134 -265h167z" />
    <glyph glyph-name="uni0411" unicode="&#x411;" horiz-adv-x="585" 
d="M253 440h111q101 0 158 -66q58 -64 41 -164q-18 -100 -90.5 -155t-186.5 -55h-270l123 700h450l-27 -154h-290zM405 220q6 35 -12.5 52.5t-55.5 17.5h-110l-25 -140h110q81 0 93 70z" />
    <glyph glyph-name="uni0412" unicode="&#x412;" horiz-adv-x="600" 
d="M598 495q-13 -86 -84 -136q70 -55 57 -159q-12 -92 -82.5 -146t-188.5 -54h-284l123 700h264q95 0 152 -58q57 -57 43 -147zM382 550h-109l-22 -124h109q30 0 51 17t26 45q5 27 -9.5 44.5t-45.5 17.5zM355 284h-129l-24 -134h129q33 0 55.5 18.5t27.5 48.5t-10.5 48.5
t-48.5 18.5z" />
    <glyph glyph-name="uni0413" unicode="&#x413;" horiz-adv-x="470" 
d="M139 700h400l-27 -154h-240l-96 -546h-160z" />
    <glyph glyph-name="uni0414" unicode="&#x414;" horiz-adv-x="710" 
d="M220 700h469l-96 -546h75l-51 -288h-160l23 134h-350l-23 -134h-160l51 288h71q69 80 96 232zM244 154h189l70 396h-149l-29 -166q-27 -151 -81 -230z" />
    <glyph glyph-name="uni0415" unicode="&#x415;" horiz-adv-x="530" 
d="M574 700l-27 -154h-275l-21 -117h251l-27 -150h-250l-22 -125h280l-27 -154h-440l123 700h435z" />
    <glyph glyph-name="uni0416" unicode="&#x416;" horiz-adv-x="922" 
d="M801 700h185l-281 -356l163 -344h-168l-146 312l-55 -312h-160l54 309l-246 -309h-181l293 363l-166 337h168l146 -311l55 311h160l-54 -308z" />
    <glyph glyph-name="uni0417" unicode="&#x417;" horiz-adv-x="557" 
d="M556 497q-17 -95 -95 -142q85 -59 65 -167q-17 -96 -92.5 -149t-195.5 -53q-95 0 -157.5 43.5t-87.5 122.5l146 76q13 -46 41.5 -69t80.5 -23q43 0 72 20t36 54q6 35 -16.5 54.5t-70.5 19.5h-89l25 142h69q93 0 107 69q5 33 -13 51t-60 18q-71 0 -117 -82l-131 83
q92 149 274 149q101 0 163 -62q62 -61 46 -155z" />
    <glyph glyph-name="uni0418" unicode="&#x418;" horiz-adv-x="670" 
d="M136 0h-120l123 700h160l-65 -369l335 369h120l-123 -700h-160l65 369z" />
    <glyph glyph-name="uni0419" unicode="&#x419;" horiz-adv-x="670" 
d="M565 759h-300l22 130h300zM136 0h-120l123 700h160l-65 -369l335 369h120l-123 -700h-160l65 369z" />
    <glyph glyph-name="uni041A" unicode="&#x41a;" horiz-adv-x="626" 
d="M516 700h189l-318 -344l195 -356h-165l-183 333l-58 -333h-160l123 700h160l-52 -293z" />
    <glyph glyph-name="uni041B" unicode="&#x41b;" horiz-adv-x="670" 
d="M-34 -2l26 150q60 -7 92 21t47 109l74 422h484l-123 -700h-160l96 546h-164l-46 -262q-11 -65 -31.5 -115.5t-45.5 -81t-56 -52t-62.5 -28.5t-65.5 -10.5t-65 1.5z" />
    <glyph glyph-name="uni041C" unicode="&#x41c;" horiz-adv-x="820" 
d="M665 700h174l-123 -700h-160l72 410l-239 -300h-18l-123 302l-72 -412h-160l123 700h160l121 -316z" />
    <glyph glyph-name="uni041D" unicode="&#x41d;" horiz-adv-x="660" 
d="M472 432l47 268h160l-123 -700h-160l49 278h-220l-49 -278h-160l123 700h160l-47 -268h220z" />
    <glyph glyph-name="uni041E" unicode="&#x41e;" horiz-adv-x="788" 
d="M352 -14q-152 0 -242 110q-89 111 -61 264q27 155 143 255q117 99 280 99q150 0 239 -110q90 -110 63 -264q-28 -156 -144 -255t-278 -99zM369 142q88 0 158 58q71 58 87 150q16 91 -32 150q-46 58 -134 58t-155 -58t-84 -150q-16 -92 29 -151q45 -57 131 -57z" />
    <glyph glyph-name="uni041F" unicode="&#x41f;" horiz-adv-x="650" 
d="M139 700h530l-123 -700h-160l96 546h-210l-96 -546h-160z" />
    <glyph glyph-name="uni0420" unicode="&#x420;" horiz-adv-x="590" 
d="M139 700h253q108 0 168 -72q60 -71 45 -178q-15 -102 -92 -167q-77 -63 -195 -63h-103l-39 -220h-160zM445 460q8 42 -12 66t-67 24h-93l-32 -180h93q45 0 74 24t37 66z" />
    <glyph glyph-name="uni0421" unicode="&#x421;" horiz-adv-x="723" 
d="M359 -14q-160 0 -248 109q-88 108 -62 265q25 152 142 254q116 100 273 100q99 0 170.5 -42.5t107.5 -120.5l-147 -77q-41 84 -148 84q-91 0 -157 -57q-65 -57 -81 -151q-16 -92 28 -151q43 -57 131 -57q114 0 182 89l130 -85q-57 -75 -141.5 -117.5t-179.5 -42.5z" />
    <glyph glyph-name="uni0422" unicode="&#x422;" horiz-adv-x="540" 
d="M89 700h520l-27 -154h-180l-96 -546h-160l96 546h-180z" />
    <glyph glyph-name="uni0423" unicode="&#x423;" horiz-adv-x="610" 
d="M343 394l170 306h166l-279 -494q-68 -120 -147.5 -166t-182.5 -40l26 150q96 -9 150 72l-147 478h154z" />
    <glyph glyph-name="uni0424" unicode="&#x424;" horiz-adv-x="824" 
d="M573 720l-15 -84q137 -19 210 -100q72 -79 52 -196q-22 -119 -117.5 -192t-246.5 -87l-14 -81h-156l15 84q-136 19 -211 100q-72 80 -51 196q21 119 117 192t247 87l14 81h156zM199 350q-23 -120 128 -141l50 282q-157 -21 -178 -141zM660 350q21 121 -128 141l-50 -282
q156 20 178 141z" />
    <glyph glyph-name="uni0425" unicode="&#x425;" horiz-adv-x="620" 
d="M489 700h190l-260 -348l147 -352h-174l-85 202l-151 -202h-190l273 365l-140 335h174l78 -185z" />
    <glyph glyph-name="uni0426" unicode="&#x426;" horiz-adv-x="690" 
d="M669 700l-96 -546h75l-51 -288h-160l24 134h-445l123 700h160l-96 -546h210l96 546h160z" />
    <glyph glyph-name="uni0427" unicode="&#x427;" horiz-adv-x="635" 
d="M440 394l54 306h160l-123 -700h-160l41 233q-47 -11 -98 -11q-124 0 -189 60t-45 168l44 250h160l-40 -226q-9 -54 12 -76t78 -22q55 0 106 18z" />
    <glyph glyph-name="uni0428" unicode="&#x428;" horiz-adv-x="940" 
d="M703 154l96 546h160l-123 -700h-820l123 700h160l-96 -546h170l96 546h160l-96 -546h170z" />
    <glyph glyph-name="uni0429" unicode="&#x429;" horiz-adv-x="980" 
d="M959 700l-96 -546h75l-51 -288h-160l24 134h-735l123 700h160l-96 -546h170l96 546h160l-96 -546h170l96 546h160z" />
    <glyph glyph-name="uni042A" unicode="&#x42a;" horiz-adv-x="690" 
d="M379 0h-263l96 546h-160l27 154h320l-38 -220h102q97 0 158 -76q61 -75 45 -174q-19 -107 -95.5 -168.5t-191.5 -61.5zM334 330l-32 -180h103q39 0 66.5 25t34.5 65q7 38 -12.5 64t-56.5 26h-103z" />
    <glyph glyph-name="uni042B" unicode="&#x42b;" horiz-adv-x="850" 
d="M279 0h-263l123 700h160l-39 -220h103q97 0 158 -76q61 -75 45 -174q-19 -107 -95.5 -168.5t-191.5 -61.5zM746 0h-160l123 700h160zM234 330l-32 -180h103q39 0 66.5 25t34.5 65q7 38 -12.5 64t-56.5 26h-103z" />
    <glyph glyph-name="uni042C" unicode="&#x42c;" horiz-adv-x="590" 
d="M260 480h103q97 0 158 -76q61 -75 45 -174q-19 -107 -95.5 -168.5t-191.5 -61.5h-263l123 700h160zM406 240q7 38 -12.5 64t-56.5 26h-103l-32 -180h103q39 0 66.5 25t34.5 65z" />
    <glyph glyph-name="uni042D" unicode="&#x42d;" horiz-adv-x="720" 
d="M401 714q160 0 245 -109t60 -265q-25 -154 -140 -255q-112 -99 -270 -99q-97 0 -173 43t-111 120l147 77q39 -84 152 -84q70 0 125.5 35.5t85.5 97.5h-285l27 150h285q-8 62 -51 97.5t-112 35.5q-113 0 -179 -90l-129 84q55 76 140.5 119t182.5 43z" />
    <glyph glyph-name="uni042E" unicode="&#x42e;" horiz-adv-x="1060" 
d="M744 714q150 0 239 -110q90 -110 63 -264q-28 -154 -147 -255q-119 -99 -275 -99q-130 0 -216 84q-85 85 -88 213h-94l-50 -283h-160l123 700h160l-46 -263h94q45 125 153 201q107 76 244 76zM481 350q-16 -92 29 -151q45 -57 131 -57q88 0 158 58q71 58 87 150
q16 91 -32 150q-46 58 -134 58t-155 -58t-84 -150z" />
    <glyph glyph-name="uni042F" unicode="&#x42f;" horiz-adv-x="625" 
d="M369 700h275l-123 -700h-160l40 230h-39l-186 -230h-195l210 251q-62 29 -90 89.5t-16 131.5q16 94 91 161q76 67 193 67zM316 370h110l32 180h-110q-39 0 -69 -25.5t-37 -64.5q-7 -38 15 -64t59 -26z" />
    <glyph glyph-name="uni0430" unicode="&#x430;" horiz-adv-x="623" 
d="M453 447l9 53h150l-88 -500h-150l6 34q-57 -48 -150 -48q-114 0 -167 83q-52 83 -31 193q20 104 94 177q76 75 187 75q94 0 140 -67zM418 249v1q10 56 -17.5 89t-79.5 33t-90.5 -33t-48.5 -89t17 -89t79 -33t91 33.5t49 87.5z" />
    <glyph glyph-name="uni0431" unicode="&#x431;" horiz-adv-x="566" 
d="M260 -14q-120 0 -185 77q-64 76 -44 195q22 127 66 192q50 77 176 133l51 23l47 21q22 11 32 17q25 14 32 21q31 31 46 55l114 -71q-26 -60 -75 -94q-48 -33 -141 -67q-64 -22 -96 -44t-50 -53q61 47 139 47q35 0 69 -16t60.5 -44.5t39 -72.5t3.5 -95q-16 -101 -94 -163
q-76 -61 -190 -61zM305 321q-41 0 -79 -27q-36 -26 -44 -70q-8 -45 18 -74q27 -29 73 -29t80 28q36 30 43 71q8 43 -18 72t-73 29z" />
    <glyph glyph-name="uni0432" unicode="&#x432;" horiz-adv-x="515" 
d="M493 349q-12 -66 -65 -98q59 -42 47 -116q-12 -65 -61 -100t-133 -35h-270l88 500h250q73 0 114 -44t30 -107zM312 380h-94l-12 -70h93q44 0 50 34q4 18 -5.5 27t-31.5 9zM333 161q3 17 -7 26t-31 9h-110l-12 -72h109q45 0 51 37z" />
    <glyph glyph-name="uni0433" unicode="&#x433;" horiz-adv-x="405" 
d="M99 500h350l-25 -144h-200l-63 -356h-150z" />
    <glyph glyph-name="uni0434" unicode="&#x434;" horiz-adv-x="600" 
d="M559 500l-63 -360h65l-49 -274h-146l24 134h-278l-24 -134h-146l49 274h62q50 61 70 173l33 187h403zM212 140h138l39 226h-111l-9 -53q-20 -109 -57 -173z" />
    <glyph glyph-name="uni0435" unicode="&#x435;" horiz-adv-x="582" 
d="M331 514q112 0 176 -76q66 -76 45 -188q-4 -27 -16 -60h-358q10 -70 103 -70q63 0 105 39l105 -86q-85 -87 -220 -87q-127 0 -193 79q-65 81 -46 195q16 109 102 181q85 73 197 73zM199 304h212q-8 77 -90 77q-83 0 -122 -77z" />
    <glyph glyph-name="uni0436" unicode="&#x436;" horiz-adv-x="770" 
d="M635 500h164l-209 -254l126 -246h-151l-113 224l-39 -224h-146l39 221l-181 -221h-159l216 265l-116 235h147l105 -212l37 212h146l-38 -216z" />
    <glyph glyph-name="uni0437" unicode="&#x437;" horiz-adv-x="453" 
d="M431 356q-14 -74 -72 -107q65 -44 52 -121q-12 -67 -69.5 -104.5t-154.5 -37.5q-157 0 -198 119l129 66q16 -55 86 -55q58 0 66 39q3 17 -7 26t-34 9h-71l22 126h54q47 0 53 34q3 18 -8 27t-33 9q-56 0 -90 -57l-113 70q82 115 217 115q88 0 135 -48t36 -110z" />
    <glyph glyph-name="uni0438" unicode="&#x438;" 
d="M202 256l257 244h110l-88 -500h-146l43 244l-257 -244h-110l88 500h146z" />
    <glyph glyph-name="uni0439" unicode="&#x439;" 
d="M495 559h-300l22 130h300zM202 256l257 244h110l-88 -500h-146l43 244l-257 -244h-110l88 500h146z" />
    <glyph glyph-name="uni043A" unicode="&#x43a;" horiz-adv-x="525" 
d="M391 500h173l-221 -250l138 -250h-160l-120 228l-40 -228h-150l88 500h150l-36 -207z" />
    <glyph glyph-name="uni043B" unicode="&#x43b;" horiz-adv-x="545" 
d="M126 500h408l-88 -500h-150l63 356h-109l-26 -149q-21 -121 -84 -170.5t-173 -36.5l24 140q68 -16 85 77z" />
    <glyph glyph-name="uni043C" unicode="&#x43c;" horiz-adv-x="640" 
d="M474 500h155l-88 -500h-144l46 259l-144 -175h-18l-81 174l-45 -258h-144l88 500h144l77 -194z" />
    <glyph glyph-name="uni043D" unicode="&#x43d;" 
d="M387 320l32 180h150l-88 -500h-150l32 180h-170l-32 -180h-150l88 500h150l-32 -180h170z" />
    <glyph glyph-name="uni043E" unicode="&#x43e;" horiz-adv-x="590" 
d="M264 -14q-89 0 -147 43q-114 88 -83 241q21 102 101 173t199 71q120 0 181 -87q62 -86 42 -193q-18 -101 -101 -175q-82 -73 -192 -73zM408 250q10 53 -16.5 85.5t-75.5 32.5t-85.5 -32.5t-46.5 -85.5q-9 -53 16 -85.5t74 -32.5t87 32.5t47 85.5z" />
    <glyph glyph-name="uni043F" unicode="&#x43f;" 
d="M99 500h470l-88 -500h-150l63 360h-170l-63 -360h-150z" />
    <glyph glyph-name="uni0440" unicode="&#x440;" horiz-adv-x="623" 
d="M391 514q106 0 162 -83q55 -81 38 -191q-15 -101 -89 -178q-73 -76 -184 -76q-100 0 -147 71l-45 -257h-150l123 700h150l-7 -42q62 56 149 56zM346 372q-51 0 -90 -32t-50 -85l-2 -9q-7 -54 20 -86t79 -32q53 0 90 33t48 89q10 56 -16.5 89t-78.5 33z" />
    <glyph glyph-name="uni0441" unicode="&#x441;" horiz-adv-x="535" 
d="M265 -14q-119 0 -185 79t-48 195q17 110 101 182t197 72q77 0 132.5 -35t80.5 -95l-137 -72q-22 54 -89 54q-51 0 -88.5 -31.5t-46.5 -82.5t18 -84.5t76 -33.5q63 0 104 56l121 -77q-37 -62 -99.5 -94.5t-136.5 -32.5z" />
    <glyph glyph-name="uni0442" unicode="&#x442;" horiz-adv-x="470" 
d="M54 500h450l-25 -144h-149l-63 -356h-150l63 356h-151z" />
    <glyph glyph-name="uni0443" unicode="&#x443;" horiz-adv-x="530" 
d="M260 194l148 306h166l-256 -485q-66 -125 -144 -173q-77 -48 -179 -42l24 140q53 0 82 17q28 16 54 65l-111 478h154z" />
    <glyph glyph-name="uni0444" unicode="&#x444;" horiz-adv-x="690" 
d="M497 700l-34 -196q104 -23 158 -96t37 -168q-18 -100 -93.5 -166t-191.5 -82l-34 -192h-146l34 196q-105 23 -158 95q-54 73 -37 169q18 100 93.5 166t191.5 82l34 192h146zM438 363l-40 -226q97 25 114 113q17 87 -74 113zM252 137l40 226q-97 -25 -114 -113
q-17 -87 74 -113z" />
    <glyph glyph-name="uni0445" unicode="&#x445;" horiz-adv-x="530" 
d="M392 500h176l-219 -251l137 -249h-162l-74 135l-118 -135h-176l226 259l-132 241h162l69 -127z" />
    <glyph glyph-name="uni0446" unicode="&#x446;" horiz-adv-x="610" 
d="M549 500l-63 -360h85l-49 -274h-146l24 134h-389l88 500h150l-63 -360h150l63 360h150z" />
    <glyph glyph-name="uni0447" unicode="&#x447;" horiz-adv-x="545" 
d="M347 291l37 209h150l-88 -500h-150l26 147q-58 -13 -106 -13q-90 0 -139 49q-50 50 -35 132l32 185h150l-29 -165q-11 -44 34 -57t118 13z" />
    <glyph glyph-name="uni0448" unicode="&#x448;" horiz-adv-x="840" 
d="M616 140l63 360h150l-88 -500h-730l88 500h150l-63 -360h140l63 360h150l-63 -360h140z" />
    <glyph glyph-name="uni0449" unicode="&#x449;" horiz-adv-x="850" 
d="M809 500l-63 -360h65l-49 -274h-146l24 134h-629l88 500h150l-63 -360h130l63 360h150l-63 -360h130l63 360h150z" />
    <glyph glyph-name="uni044A" unicode="&#x44a;" horiz-adv-x="585" 
d="M303 350h84q83 0 130 -53t33 -132q-30 -165 -225 -165h-234l63 356h-135l25 144h285zM406 175q3 20 -8 32.5t-33 12.5h-85l-16 -90h85q22 0 37.5 12.5t19.5 32.5z" />
    <glyph glyph-name="uni044B" unicode="&#x44b;" horiz-adv-x="740" 
d="M223 350h84q83 0 130 -53t33 -132q-30 -165 -225 -165h-234l88 500h150zM491 0l88 500h150l-88 -500h-150zM326 175q3 20 -8 32.5t-33 12.5h-85l-16 -90h85q22 0 37.5 12.5t19.5 32.5z" />
    <glyph glyph-name="uni044C" unicode="&#x44c;" horiz-adv-x="505" 
d="M223 350h84q83 0 130 -53t33 -132q-30 -165 -225 -165h-234l88 500h150zM326 175q3 20 -8 32.5t-33 12.5h-85l-16 -90h85q22 0 37.5 12.5t19.5 32.5z" />
    <glyph glyph-name="uni044D" unicode="&#x44d;" horiz-adv-x="535" 
d="M276 514q114 0 180 -81q67 -80 47 -193q-19 -113 -101 -184q-80 -70 -199 -70q-73 0 -130.5 35t-81.5 94l132 70q26 -56 97 -56q66 0 110 54h-139l24 134h139q-22 54 -92 54t-110 -58l-118 74q40 58 105 92.5t137 34.5z" />
    <glyph glyph-name="uni044E" unicode="&#x44e;" horiz-adv-x="815" 
d="M561 514q78 0 135 -42t78.5 -106.5t7.5 -131.5q-18 -102 -100 -175t-191 -73q-99 0 -160.5 53.5t-71.5 140.5h-66l-32 -180h-150l88 500h150l-32 -180h61q33 84 107 139q73 55 176 55zM635 250q10 52 -17 85t-77 33q-49 0 -86.5 -32.5t-47.5 -85.5q-9 -53 17 -85.5
t75 -32.5q50 0 88.5 33t47.5 85z" />
    <glyph glyph-name="uni044F" unicode="&#x44f;" horiz-adv-x="525" 
d="M270 500h244l-88 -500h-146l25 144h-29l-125 -144h-175l150 168q-42 27 -61.5 71.5t-11.5 92.5q12 75 69.5 121.5t147.5 46.5zM242 268h85l18 100h-85q-42 0 -58 -37q-14 -32 8 -52q12 -11 32 -11z" />
    <glyph glyph-name="uni0451" unicode="&#x451;" horiz-adv-x="582" 
d="M316 567q-26 -22 -57 -22t-49 22t-13 53t31 53t57 22t49 -22t13 -53t-31 -53zM506 567q-26 -22 -57 -22t-49 22t-13 53t31 53t57 22t49 -22t13 -53t-31 -53zM331 514q112 0 176 -76q66 -76 45 -188q-4 -27 -16 -60h-358q10 -70 103 -70q63 0 105 39l105 -86
q-85 -87 -220 -87q-127 0 -193 79q-65 81 -46 195q16 109 102 181q85 73 197 73zM199 304h212q-8 77 -90 77q-83 0 -122 -77z" />
    <glyph glyph-name="uni0452" unicode="&#x452;" horiz-adv-x="585" 
d="M393 514q80 0 127 -56q46 -55 30 -151l-54 -307q-22 -122 -84.5 -171.5t-183.5 -42.5l26 144q41 -2 63 14.5t29 55.5l50 285q8 44 -12 67.5t-60 23.5q-43 0 -72 -26.5t-38 -76.5l-48 -273h-150l96 546h-60l17 94h59l11 60h150l-11 -60h141l-17 -94h-140l-16 -93
q55 61 147 61z" />
    <glyph glyph-name="uni0453" unicode="&#x453;" horiz-adv-x="405" 
d="M281 700h184l-136 -140h-148zM11 0l88 500h350l-25 -144h-200l-63 -356h-150z" />
    <glyph glyph-name="uni0454" unicode="&#x454;" horiz-adv-x="535" 
d="M267 129q76 0 116 58l118 -74q-40 -58 -105 -92.5t-137 -34.5q-113 0 -181 81q-66 80 -46 193q19 111 103 183q83 71 197 71q73 0 130.5 -35t81.5 -94l-132 -70q-26 56 -95 56q-66 0 -109 -54h135l-24 -134h-137q22 -54 85 -54z" />
    <glyph glyph-name="uni0455" unicode="&#x455;" horiz-adv-x="468" 
d="M206 -14q-156 0 -211 123l135 68q22 -57 89 -57q50 0 55 26q3 14 -19 25.5t-64 22.5q-160 39 -135 169q13 74 74.5 112.5t135.5 38.5q66 0 116.5 -28.5t74.5 -78.5l-135 -67q-18 44 -65 44q-45 0 -51 -31q-3 -18 17.5 -29t63.5 -22q161 -30 136 -167
q-14 -74 -71.5 -111.5t-145.5 -37.5z" />
    <glyph glyph-name="uni0456" unicode="&#x456;" horiz-adv-x="260" 
d="M108 634q6 36 37 63t67 27q37 0 59.5 -26.5t16.5 -63.5t-36.5 -63.5t-68.5 -26.5t-59.5 26.5t-15.5 63.5zM161 0h-150l88 500h150z" />
    <glyph glyph-name="uni0457" unicode="&#x457;" horiz-adv-x="260" 
d="M143 562q-26 -22 -57 -22t-49 22t-13 53t31 53t57 22t49 -22t13 -53t-31 -53zM333 562q-26 -22 -57 -22t-49 22t-13 53t31 53t57 22t49 -22t13 -53t-31 -53zM161 0h-150l88 500h150z" />
    <glyph glyph-name="uni0458" unicode="&#x458;" horiz-adv-x="275" 
d="M123 634q6 36 37 63t67 27q37 0 59.5 -26.5t16.5 -63.5t-36.5 -63.5t-68.5 -26.5t-59.5 26.5t-15.5 63.5zM26 0l88 500h150l-88 -500q-21 -122 -84 -171.5t-184 -42.5l26 144q41 -2 63 14.5t29 55.5z" />
    <glyph glyph-name="uni0459" unicode="&#x459;" horiz-adv-x="765" 
d="M496 340h79q77 0 122 -52q46 -50 32 -128t-69.5 -119t-144.5 -41h-229l63 356h-99l-26 -149q-21 -121 -84 -170.5t-173 -36.5l24 140q68 -16 85 77l50 283h398zM553 210h-80l-14 -80h80q16 0 29 11t17 29t-6 29t-26 11z" />
    <glyph glyph-name="uni045A" unicode="&#x45a;" horiz-adv-x="800" 
d="M531 340h79q77 0 122 -52q46 -50 32 -128t-69.5 -119t-144.5 -41h-229l35 200h-160l-35 -200h-150l88 500h150l-28 -160h160l28 160h150zM588 210h-80l-14 -80h80q16 0 29 11t17 29t-6 29t-26 11z" />
    <glyph glyph-name="uni045B" unicode="&#x45b;" horiz-adv-x="585" 
d="M393 514q80 0 127 -56q46 -55 30 -151l-54 -307h-150l50 285q8 44 -12 67.5t-60 23.5q-43 0 -72 -26.5t-38 -76.5l-48 -273h-150l96 546h-60l17 94h59l11 60h150l-11 -60h141l-17 -94h-140l-16 -93q55 61 147 61z" />
    <glyph glyph-name="uni045C" unicode="&#x45c;" horiz-adv-x="525" 
d="M341 700h184l-136 -140h-148zM391 500h173l-221 -250l138 -250h-160l-120 228l-40 -228h-150l88 500h150l-36 -207z" />
    <glyph glyph-name="uni045E" unicode="&#x45e;" horiz-adv-x="530" 
d="M178 689h300l-22 -130h-300zM260 194l148 306h166l-256 -485q-66 -125 -144 -173q-77 -48 -179 -42l24 140q53 0 82 17q28 16 54 65l-111 478h154z" />
    <glyph glyph-name="uni045F" unicode="&#x45f;" 
d="M356 140l63 360h150l-88 -500h-162l-24 -134h-146l24 134h-162l88 500h150l-63 -360h170z" />
    <glyph glyph-name="uni0490" unicode="&#x490;" horiz-adv-x="470" 
d="M380 700l21 120h160l-49 -274h-240l-96 -546h-160l123 700h241z" />
    <glyph glyph-name="uni0491" unicode="&#x491;" horiz-adv-x="405" 
d="M303 500l18 100h146l-43 -244h-200l-63 -356h-150l88 500h204z" />
    <glyph glyph-name="Wgrave" unicode="&#x1e80;" horiz-adv-x="998" 
d="M679 760h-141l-95 140h173zM159 0h182l186 413l42 -413h182l316 700h-174l-207 -490l-49 490h-130l-221 -490l-37 490h-160z" />
    <glyph glyph-name="wgrave" unicode="&#x1e81;" horiz-adv-x="780" 
d="M472 700l63 -140h-141l-95 140h173zM532 232l117 268h165l-248 -500h-140l-33 263l-117 -263h-150l-72 500h150l31 -268l119 268h145z" />
    <glyph glyph-name="Wacute" unicode="&#x1e82;" horiz-adv-x="998" 
d="M499 760l100 140h184l-136 -140h-148zM159 0h182l186 413l42 -413h182l316 700h-174l-207 -490l-49 490h-130l-221 -490l-37 490h-160z" />
    <glyph glyph-name="wacute" unicode="&#x1e83;" horiz-adv-x="780" 
d="M455 700h184l-136 -140h-148zM532 232l117 268h165l-248 -500h-140l-33 263l-117 -263h-150l-72 500h150l31 -268l119 268h145z" />
    <glyph glyph-name="Wdieresis" unicode="&#x1e84;" horiz-adv-x="998" 
d="M547 762q-26 -22 -57 -22t-49 22t-13 53t31 53t57 22t49 -22t13 -53t-31 -53zM737 762q-26 -22 -57 -22t-49 22t-13 53t31 53t57 22t49 -22t13 -53t-31 -53zM341 0h-182l-70 700h160l37 -490l221 490h130l49 -490l207 490h174l-316 -700h-182l-42 413z" />
    <glyph glyph-name="wdieresis" unicode="&#x1e85;" horiz-adv-x="780" 
d="M403 562q-26 -22 -57 -22t-49 22t-13 53t31 53t57 22t49 -22t13 -53t-31 -53zM593 562q-26 -22 -57 -22t-49 22t-13 53t31 53t57 22t49 -22t13 -53t-31 -53zM532 232l117 268h165l-248 -500h-140l-33 263l-117 -263h-150l-72 500h150l31 -268l119 268h145z" />
    <glyph glyph-name="Ygrave" unicode="&#x1ef2;" horiz-adv-x="610" 
d="M422 900l63 -140h-141l-95 140h173zM498 700h191l-294 -394l-54 -306h-160l54 307l-156 393h173l82 -236z" />
    <glyph glyph-name="ygrave" unicode="&#x1ef3;" horiz-adv-x="530" 
d="M333 700l63 -140h-141l-95 140h173zM260 194l148 306h166l-256 -485q-66 -125 -144 -173q-77 -48 -179 -42l24 140q53 0 82 17q28 16 54 65l-111 478h154z" />
    <glyph glyph-name="endash" unicode="&#x2013;" horiz-adv-x="615" 
d="M551 227h-495l25 144h495z" />
    <glyph glyph-name="emdash" unicode="&#x2014;" horiz-adv-x="715" 
d="M651 227h-595l25 144h595z" />
    <glyph glyph-name="quoteleft" unicode="&#x2018;" horiz-adv-x="290" 
d="M232 405h-160l132 295h120z" />
    <glyph glyph-name="quoteright" unicode="&#x2019;" horiz-adv-x="290" 
d="M164 700h160l-132 -295h-120z" />
    <glyph glyph-name="quotesinglbase" unicode="&#x201a;" horiz-adv-x="290" 
d="M68 155h160l-132 -295h-120z" />
    <glyph glyph-name="quotedblleft" unicode="&#x201c;" horiz-adv-x="490" 
d="M232 405h-160l132 295h120zM432 405h-160l132 295h120z" />
    <glyph glyph-name="quotedblright" unicode="&#x201d;" horiz-adv-x="490" 
d="M164 700h160l-132 -295h-120zM364 700h160l-132 -295h-120z" />
    <glyph glyph-name="quotedblbase" unicode="&#x201e;" horiz-adv-x="490" 
d="M68 155h160l-132 -295h-120zM268 155h160l-132 -295h-120z" />
    <glyph glyph-name="dagger" unicode="&#x2020;" horiz-adv-x="480" 
d="M372 575h125l-25 -144h-125l-76 -431h-150l76 431h-125l25 144h125l22 125h150z" />
    <glyph glyph-name="daggerdbl" unicode="&#x2021;" horiz-adv-x="480" 
d="M497 575l-25 -144h-125l-29 -162h125l-25 -144h-125l-22 -125h-150l22 125h-125l25 144h125l29 162h-125l25 144h125l22 125h150l-22 -125h125z" />
    <glyph glyph-name="bullet" unicode="&#x2022;" horiz-adv-x="380" 
d="M181 200q-61 0 -97 46t-25 110q11 62 61 103t116 41q62 0 96 -45q36 -45 25 -107q-10 -64 -60 -106q-49 -42 -116 -42z" />
    <glyph glyph-name="ellipsis" unicode="&#x2026;" horiz-adv-x="760" 
d="M93 -14q-39 0 -61.5 29t-15.5 68q7 40 38.5 66.5t72.5 26.5q39 0 62 -29t16 -68q-7 -40 -38.5 -66.5t-73.5 -26.5zM333 -14q-39 0 -61.5 29t-15.5 68q7 40 38.5 66.5t72.5 26.5q39 0 62 -29t16 -68q-7 -40 -38.5 -66.5t-73.5 -26.5zM573 -14q-39 0 -61.5 29t-15.5 68
q7 40 38.5 66.5t72.5 26.5q39 0 62 -29t16 -68q-7 -40 -38.5 -66.5t-73.5 -26.5z" />
    <glyph glyph-name="perthousand" unicode="&#x2030;" horiz-adv-x="1164" 
d="M241 374q-76 0 -117 50q-41 51 -32 118q9 69 62 121q53 51 137 51q79 0 120 -57t26 -127q-16 -68 -68 -112t-128 -44zM161 69l-64 42l539 501l64 -41zM318 544q4 24 -7.5 39.5t-35.5 15.5q-23 0 -40.5 -16t-21.5 -39q-5 -23 7 -39t35 -16t41 16.5t22 38.5zM530 -12
q-78 0 -118 52q-41 53 -30 121q10 68 63 118q52 49 135 49q77 0 118 -56q42 -55 28 -124q-14 -68 -66 -114q-50 -46 -130 -46zM910 -12q-78 0 -118 52q-41 53 -30 121q10 68 63 118q52 49 135 49q77 0 118 -56q42 -55 28 -124q-14 -68 -66 -114q-50 -46 -130 -46zM607 158
q4 24 -7.5 39.5t-35.5 15.5q-23 0 -40 -15.5t-22 -39.5q-5 -23 7 -39t35 -16t41 16.5t22 38.5zM987 158q4 24 -7.5 39.5t-35.5 15.5q-23 0 -40 -15.5t-22 -39.5q-5 -23 7 -39t35 -16t41 16.5t22 38.5z" />
    <glyph glyph-name="guilsinglleft" unicode="&#x2039;" horiz-adv-x="362" 
d="M211 499h135l-144 -194l75 -186h-130l-77 190z" />
    <glyph glyph-name="guilsinglright" unicode="&#x203a;" horiz-adv-x="363" 
d="M106 499h130l77 -190l-141 -190h-135l144 194z" />
    <glyph glyph-name="fraction" unicode="&#x2044;" horiz-adv-x="180" 
d="M419 700l-518 -700h-105l518 700h105z" />
    <glyph glyph-name="Euro" unicode="&#x20ac;" horiz-adv-x="623" 
d="M341 142q66 0 118 75l125 -77q-88 -154 -264 -154q-109 0 -171.5 72t-64.5 196h-68l15 84h59l3 22l2 10h-59l15 84h66q42 124 124.5 192t194.5 68q75 0 131 -39.5t80 -108.5l-139 -73q-27 65 -94 65q-88 0 -132 -104h189l-15 -84h-199q0 -1 -1.5 -6t-2 -8.5t-0.5 -5.5
l-2 -12h200l-15 -84h-191q4 -112 96 -112z" />
    <glyph glyph-name="uni20BD" unicode="&#x20bd;" horiz-adv-x="605" 
d="M159 700h265q96 0 157 -76q62 -75 44 -174q-18 -102 -92.5 -161t-190.5 -59h-106l-7 -41h210l-17 -98h-210l-16 -91h-160l16 91h-70l17 98h70l7 41h-69l24 140h70zM398 550h-105l-32 -180h105q37 0 65.5 26t35.5 64t-12.5 64t-56.5 26z" />
    <glyph glyph-name="uni2116" unicode="&#x2116;" horiz-adv-x="1047" 
d="M867 374q-73 0 -116 52q-42 53 -29 123q12 71 68 118t133 47q73 0 115 -52t30 -123q-14 -73 -68 -118q-56 -47 -133 -47zM176 0h-160l123 700h120l201 -393l69 393h160l-123 -700h-120l-200 393zM944 544q4 22 -7 36t-33 14t-38 -14t-20 -36t7 -36t33 -14t38 13.5
t20 36.5zM995 184h-322l25 140h322z" />
    <glyph glyph-name="trademark" unicode="&#x2122;" horiz-adv-x="476" 
d="M286 700l-11 -62h-55l-24 -138h-67l24 138h-55l11 62h177zM452 700h73l-35 -200h-64l17 99l-54 -63h-6l-31 65l-18 -101h-64l35 200h64l29 -69z" />
    <glyph glyph-name="estimated" unicode="&#x212e;" horiz-adv-x="780" 
d="M471 710q161 0 247 -105q87 -103 60 -255q-3 -15 -18 -15h-560q-15 0 -18 -15l-33 -192q-3 -11 3 -19q69 -89 218 -89q144 0 250 97q9 9 19 9h35q10 0 12 -6t-6 -13q-130 -117 -316 -117q-173 0 -263 108q-89 108 -62 262q27 152 146 251q120 99 286 99zM633 380l35 194
q1 10 -4 19q-68 87 -198 87q-128 0 -229 -89q-9 -9 -10 -19l-34 -192q-3 -15 12 -15h410q15 0 18 15z" />
    <glyph glyph-name="oneeighth" unicode="&#x215b;" horiz-adv-x="807" 
d="M70 0l518 700h105l-518 -700h-105zM115 300l48 271l-81 -22l-11 107l130 44h107l-71 -400h-122zM781 288q-9 -54 -57 -82q47 -38 38 -100q-8 -57 -53.5 -88.5t-121.5 -31.5q-72 0 -109.5 35.5t-27.5 92.5q11 67 75 98q-40 33 -29 86q10 54 53.5 85t107.5 31q60 0 97 -35
q38 -35 27 -91zM595 280q-3 -16 6.5 -24t29.5 -8q40 0 46 32q3 15 -7 24t-28 9q-41 0 -47 -33zM652 127q8 38 -36 38q-42 0 -50 -38q-6 -39 36 -39q44 0 50 39z" />
    <glyph glyph-name="threeeighths" unicode="&#x215c;" horiz-adv-x="879" 
d="M352 415q-22 -129 -175 -129q-117 0 -150 90l107 57q16 -42 56 -42q36 0 40 31q2 15 -7.5 22.5t-27.5 7.5h-25l-31 61l73 77h-129l19 110h281l-15 -85l-79 -83q36 -16 53 -46.5t10 -70.5zM142 0l518 700h105l-518 -700h-105zM853 288q-9 -54 -57 -82q47 -38 38 -100
q-8 -57 -53.5 -88.5t-121.5 -31.5q-72 0 -109.5 35.5t-27.5 92.5q11 67 75 98q-40 33 -29 86q10 54 53.5 85t107.5 31q60 0 97 -35q38 -35 27 -91zM667 280q-3 -16 6.5 -24t29.5 -8q40 0 46 32q3 15 -7 24t-28 9q-41 0 -47 -33zM724 127q8 38 -36 38q-42 0 -50 -38
q-6 -39 36 -39q44 0 50 39z" />
    <glyph glyph-name="fiveeighths" unicode="&#x215d;" horiz-adv-x="865" 
d="M343 411q-21 -125 -166 -125q-112 0 -145 90l104 54q14 -42 55 -42q38 0 43 32t-31 32h-135l60 248h245l-19 -110h-141l-11 -41h23q62 0 96 -36.5t22 -101.5zM128 0l518 700h105l-518 -700h-105zM839 288q-9 -54 -57 -82q47 -38 38 -100q-8 -57 -53.5 -88.5t-121.5 -31.5
q-72 0 -109.5 35.5t-27.5 92.5q11 67 75 98q-40 33 -29 86q10 54 53.5 85t107.5 31q60 0 97 -35q38 -35 27 -91zM653 280q-3 -16 6.5 -24t29.5 -8q40 0 46 32q3 15 -7 24t-28 9q-41 0 -47 -33zM710 127q8 38 -36 38q-42 0 -50 -38q-6 -39 36 -39q44 0 50 39z" />
    <glyph glyph-name="seveneighths" unicode="&#x215e;" horiz-adv-x="828" 
d="M343 607l-170 -307h-129l161 290h-145l19 110h280zM91 0l518 700h105l-518 -700h-105zM802 288q-9 -54 -57 -82q47 -38 38 -100q-8 -57 -53.5 -88.5t-121.5 -31.5q-72 0 -109.5 35.5t-27.5 92.5q11 67 75 98q-40 33 -29 86q10 54 53.5 85t107.5 31q60 0 97 -35
q38 -35 27 -91zM616 280q-3 -16 6.5 -24t29.5 -8q40 0 46 32q3 15 -7 24t-28 9q-41 0 -47 -33zM673 127q8 38 -36 38q-42 0 -50 -38q-7 -39 36 -39t50 39z" />
    <glyph glyph-name="arrowleft" unicode="&#x2190;" horiz-adv-x="790" 
d="M353 422h427l-25 -144h-448l188 -228h-190l-247 300l353 300h210z" />
    <glyph glyph-name="arrowup" unicode="&#x2191;" horiz-adv-x="680" 
d="M419 700l247 -300l-33 -188l-185 225l-77 -437h-150l74 417l-265 -224l36 207z" />
    <glyph glyph-name="arrowright" unicode="&#x2192;" horiz-adv-x="790" 
d="M331 650h190l247 -300l-353 -300h-210l268 228h-428l25 144h449z" />
    <glyph glyph-name="arrowdown" unicode="&#x2193;" horiz-adv-x="680" 
d="M494 700l-73 -417l264 225l-36 -208l-353 -300l-247 300l33 188l185 -225l77 437h150z" />
    <glyph glyph-name="arrowboth" unicode="&#x2194;" horiz-adv-x="1100" 
d="M919 357v-1l159 -6l-330 -280h-203l242 208h-484l171 -208h-186l-230 280l329 280h206l-245 -208h483l-171 208h187l231 -280z" />
    <glyph glyph-name="arrowupdn" unicode="&#x2195;" horiz-adv-x="640" 
d="M658 580l-33 -186l-169 205l-84 -482l241 205l-36 -202l-329 -280l-230 280l33 186l168 -205l84 482l-240 -205l36 202l329 280z" />
    <glyph glyph-name="uni2196" unicode="&#x2196;" horiz-adv-x="645" 
d="M531 622l115 -140h-330l269 -328l-111 -93l-270 327l-58 -330l-115 140l75 424h425z" />
    <glyph glyph-name="uni2197" unicode="&#x2197;" horiz-adv-x="645" 
d="M82 482l165 140h424l-75 -424l-165 -140l55 311l-374 -317l-93 111l375 319h-312z" />
    <glyph glyph-name="uni2198" unicode="&#x2198;" horiz-adv-x="645" 
d="M474 302l58 329l116 -140l-75 -424h-424l-116 140h330l-269 328l110 93z" />
    <glyph glyph-name="uni2199" unicode="&#x2199;" horiz-adv-x="645" 
d="M567 636l92 -109l-376 -320h313l-164 -140h-424l75 424l164 140l-56 -314z" />
    <glyph glyph-name="partialdiff" unicode="&#x2202;" horiz-adv-x="586" 
d="M324 714q118 0 192 -107q74 -108 46 -267q-30 -174 -119 -264t-218 -90q-101 0 -155 66q-53 68 -37 158q18 102 88 163q71 62 168 62q78 0 130 -35q8 172 -141 174q-51 1 -116 -31l24 135q63 36 138 36zM246 126q104 0 150 148q-37 31 -97 31q-43 0 -76 -27.5t-41 -72.5
q-6 -36 12 -57.5t52 -21.5z" />
    <glyph glyph-name="emptyset" unicode="&#x2205;" horiz-adv-x="804" 
d="M714 720h123l-117 -122q86 -110 60 -258q-27 -151 -148 -251q-121 -101 -270 -101q-98 0 -178 54l-59 -62h-123l117 122q-87 112 -60 258q26 150 147 250q121 102 272 102q97 0 177 -53zM158 350q-18 -99 33 -174l392 408q-53 30 -117 30q-108 0 -199 -77
q-89 -77 -109 -187zM681 350q18 99 -33 174l-392 -408q52 -30 117 -30q109 0 198 77q90 77 110 187z" />
    <glyph glyph-name="product" unicode="&#x220f;" horiz-adv-x="640" 
d="M131 -200h-150l158 900h520l-158 -900h-150l133 756h-220z" />
    <glyph glyph-name="summation" unicode="&#x2211;" horiz-adv-x="570" 
d="M451 -200h-500l25 140l264 336l-135 316l19 108h470l-25 -144h-292l126 -296l-248 -316h321z" />
    <glyph glyph-name="minus" unicode="&#x2212;" horiz-adv-x="560" 
d="M515 280h-460l25 140h460z" />
    <glyph glyph-name="radical" unicode="&#x221a;" horiz-adv-x="686" 
d="M363 0h-144l-84 186h-106l25 144h182l64 -157l321 627h162z" />
    <glyph glyph-name="infinity" unicode="&#x221e;" horiz-adv-x="810" 
d="M776 342q-15 -80 -72.5 -126t-139.5 -46t-156 81q-96 -81 -178 -81t-129 53q-47 54 -32 135q13 80 73 126q58 46 141 46t155 -81q55 47 111 67t99.5 12t76 -32.5t46.5 -65.5t5 -88zM256 305q34 0 78 45q-28 45 -62 45q-20 0 -35 -13t-18 -32q-4 -19 6.5 -32t30.5 -13z
M626 350q3 19 -6.5 32t-29.5 13q-34 0 -78 -45q28 -45 62 -45q20 0 34 13t18 32z" />
    <glyph glyph-name="integral" unicode="&#x222b;" horiz-adv-x="442" 
d="M-80 -204l26 150q17 -8 37.5 -8.5t41.5 15.5t31 45l185 535q76 221 281 169l-27 -150q-17 8 -37 8.5t-41 -15.5t-31 -45l-185 -535q-76 -221 -281 -169z" />
    <glyph glyph-name="approxequal" unicode="&#x2248;" horiz-adv-x="560" 
d="M312 371q-47 21 -75 25q-32 5 -45 1q-17 -6 -39 -16l-85 28q73 200 242 130q54 -28 90.5 -24.5t54.5 44.5l109 -58q-38 -98 -107 -132q-70 -34 -145 2zM141 141l-110 58q37 97 107 132q70 34 145 -2q49 -21 75 -25q32 -5 44 -1q17 5 40 16l85 -28q-73 -200 -242 -130
q-54 28 -90 24.5t-54 -44.5z" />
    <glyph glyph-name="notequal" unicode="&#x2260;" horiz-adv-x="520" 
d="M528 525l-25 -140h-157l-44 -70h189l-25 -140h-251l-78 -125h-92l78 125h-96l25 140h158l44 70h-190l25 140h252l78 125h92l-78 -125h95z" />
    <glyph glyph-name="lessequal" unicode="&#x2264;" horiz-adv-x="530" 
d="M84 500l480 170l-28 -161l-294 -81l265 -81l-26 -147l-420 170l12 65zM453 40h-450l25 140h450z" />
    <glyph glyph-name="greaterequal" unicode="&#x2265;" horiz-adv-x="530" 
d="M88 522l26 148l420 -170l-11 -65l-12 -65l-480 -170l28 160l295 81zM453 40h-450l25 140h450z" />
    <glyph glyph-name="lozenge" unicode="&#x25ca;" horiz-adv-x="560" 
d="M290 0h-108l-124 350l247 350h108l125 -350zM218 338l48 -135l112 159l-48 135z" />
    <glyph glyph-name="NULL" horiz-adv-x="0" 
 />
    <glyph glyph-name="CR" horiz-adv-x="333" 
 />
    <glyph glyph-name="i.loclTRK" horiz-adv-x="260" 
d="M183 545q-35 0 -56 25.5t-14 59.5q6 35 35.5 60t63.5 25q35 0 56 -25.5t15 -59.5q-7 -35 -36.5 -60t-63.5 -25zM161 0h-150l88 500h150z" />
    <glyph glyph-name="f_f_j" horiz-adv-x="850" 
d="M561 500h278l-88 -500q-21 -122 -84 -171.5t-184 -42.5l26 144q41 -2 63 14.5t29 55.5l63 356h-128l-63 -356h-150l63 356h-130l-63 -356h-150l63 356h-67l25 144h67q40 229 281 214l-25 -144q-93 7 -106 -70h130l2 10q19 111 87 162.5t194 51.5q55 0 122 -14l-24 -138
q-46 8 -100 8q-117 0 -129 -70z" />
    <glyph glyph-name="f_j" horiz-adv-x="570" 
d="M281 500h278l-88 -500q-21 -122 -84 -171.5t-184 -42.5l26 144q41 -2 63 14.5t29 55.5l63 356h-128l-63 -356h-150l63 356h-67l25 144h67q19 111 87 162.5t194 51.5q55 0 122 -14l-24 -138q-46 8 -100 8q-117 0 -129 -70z" />
    <glyph glyph-name="uni0414.loclBGR" horiz-adv-x="740" 
d="M551 700l74 -546h83l-51 -288h-160l24 134h-390l-24 -134h-160l51 288h83l266 546h204zM422 521l-170 -367h210z" />
    <glyph glyph-name="uni041B.loclBGR" horiz-adv-x="640" 
d="M135 0h-179l341 700h204l95 -700h-171l-51 515z" />
    <glyph glyph-name="uni0424.loclBGR" horiz-adv-x="864" 
d="M604 800l-17 -95q143 -24 215 -123q74 -99 48 -242q-26 -150 -129 -241q-104 -92 -260 -108l-16 -91h-150l17 95q-142 24 -216 123q-72 100 -47 242q25 148 129 240q105 93 260 109l16 91h150zM690 350q31 180 -128 210l-75 -420q170 30 203 210zM209 350
q-33 -180 128 -210l75 420q-171 -30 -203 -210z" />
    <glyph glyph-name="uni0414.ss01" horiz-adv-x="710" 
d="M220 700h469l-96 -546h75l-28 -154h-668l26 154h71q69 80 96 232zM244 154h189l70 396h-149l-29 -166q-27 -151 -81 -230z" />
    <glyph glyph-name="uni0426.ss01" horiz-adv-x="690" 
d="M669 700l-96 -546h75l-27 -154h-605l123 700h160l-96 -546h210l96 546h160z" />
    <glyph glyph-name="uni0429.ss01" horiz-adv-x="980" 
d="M959 700l-96 -546h75l-27 -154h-895l123 700h160l-96 -546h170l96 546h160l-96 -546h170l96 546h160z" />
    <glyph glyph-name="uni0414.loclBGR.ss01" horiz-adv-x="740" 
d="M551 700l74 -546h83l-27 -154h-710l27 154h83l266 546h204zM422 521l-170 -367h210z" />
    <glyph glyph-name="uni0432.loclBGR" horiz-adv-x="565" 
d="M535 526q-12 -69 -84 -126q101 -58 77 -192q-19 -109 -88 -165.5t-183 -56.5q-105 0 -165 69q-59 71 -40 177l42 239q20 117 88 180t173 63q87 0 140 -53q54 -52 40 -135zM342 574q-36 0 -63 -29.5t-36 -77.5l-9 -50l31 6q35 6 51 6q64 43 70 89q5 26 -6.5 41t-37.5 15z
M378 218q9 50 -27.5 68t-109.5 3l-30 -6l-10 -55q-8 -44 12.5 -71t60.5 -27q43 0 70 23.5t34 64.5z" />
    <glyph glyph-name="uni0433.loclBGR" horiz-adv-x="472" 
d="M209 -14q-92 0 -151 50q-57 51 -42 134q9 48 38.5 79.5t70.5 43.5q24 7 71.5 16.5t70.5 19t26 25.5q2 13 -7.5 20.5t-29.5 7.5q-43 0 -75 -44l-119 71q68 105 205 105q83 0 138 -53q54 -52 41 -131q-8 -46 -37.5 -77t-69.5 -43q-25 -7 -72 -15.5t-70.5 -17t-26.5 -22.5
q-3 -17 9 -26t40 -9q63 0 95 59l117 -78q-66 -115 -222 -115z" />
    <glyph glyph-name="uni0434.loclBGR" horiz-adv-x="624" 
d="M457 441l10 59h146l-84 -475q-21 -122 -96.5 -180.5t-192.5 -58.5q-178 0 -233 121l134 70q29 -59 110 -59q54 0 88.5 27.5t43.5 79.5l6 35q-59 -54 -150 -54q-115 0 -169 79q-54 80 -36 187q17 98 90 170q74 72 183 72q107 0 150 -73zM283 146q50 0 89 29t51 75l4 21
q4 46 -24.5 74.5t-78.5 28.5q-53 0 -92.5 -32t-48.5 -82t19 -82t81 -32z" />
    <glyph glyph-name="uni0436.loclBGR" horiz-adv-x="770" 
d="M125 0h-159l216 265l-116 235h147l105 -212l73 412h146l-74 -415l172 215h164l-209 -254l126 -246h-151l-112 224l-40 -224h-146l39 221z" />
    <glyph glyph-name="uni0438.loclBGR" 
d="M370 221l49 279h150l-88 -500h-150l8 47q-55 -61 -147 -61q-82 0 -128 55t-29 152l54 307h150l-50 -285q-8 -44 12 -67.5t60 -23.5q41 0 70.5 25t38.5 72z" />
    <glyph glyph-name="uni0439.loclBGR" 
d="M206 689h300l-22 -130h-300zM370 221l49 279h150l-88 -500h-150l8 47q-55 -61 -147 -61q-82 0 -128 55t-29 152l54 307h150l-50 -285q-8 -44 12 -67.5t60 -23.5q41 0 70.5 25t38.5 72z" />
    <glyph glyph-name="uni043A.loclBGR" horiz-adv-x="525" 
d="M391 500h173l-221 -250l138 -250h-160l-120 228l-40 -228h-150l123 700h150l-72 -407z" />
    <glyph glyph-name="uni043B.loclBGR" horiz-adv-x="510" 
d="M374 500l92 -500h-154l-42 306l-148 -306h-166l268 500h150z" />
    <glyph glyph-name="uni043F.loclBGR" 
d="M388 514q80 0 127 -56q46 -55 30 -151l-54 -307h-150l50 285q8 44 -12 67.5t-60 23.5q-41 0 -70.5 -25t-38.5 -72l-49 -279h-150l88 500h150l-8 -47q55 61 147 61z" />
    <glyph glyph-name="uni0442.loclBGR" horiz-adv-x="850" 
d="M656 514q88 0 131 -58q44 -58 28 -149l-54 -307h-150l51 294q14 82 -57 82q-73 0 -93 -87l-51 -289h-150l51 294q14 82 -57 82q-74 0 -93 -85l-51 -291h-150l88 500h150l-8 -45q53 59 139 59q89 0 122 -68q62 68 154 68z" />
    <glyph glyph-name="uni0446.loclBGR" horiz-adv-x="620" 
d="M536 140h45l-49 -274h-146l26 147q-31 17 -44 41q-71 -68 -168 -68q-90 0 -135.5 56t-29.5 151l54 307h150l-50 -285q-8 -44 12 -67.5t60 -23.5t68 23t39 67l51 286h150l-58 -330q-5 -30 25 -30z" />
    <glyph glyph-name="uni0448.loclBGR" horiz-adv-x="850" 
d="M638 209l51 291h150l-88 -500h-150l8 45q-53 -59 -139 -59q-89 0 -122 68q-62 -68 -154 -68q-87 0 -131 57q-44 60 -28 150l54 307h150l-51 -294q-14 -82 57 -82q73 0 93 87l51 289h150l-51 -294q-14 -82 57 -82q74 0 93 85z" />
    <glyph glyph-name="uni0449.loclBGR" horiz-adv-x="890" 
d="M806 140h45l-49 -274h-146l26 147q-27 14 -43 38q-62 -65 -159 -65q-94 0 -130 65q-60 -65 -156 -65q-87 0 -131 57q-44 60 -28 150l54 307h150l-51 -294q-14 -82 57 -82q73 0 93 87l51 289h150l-51 -294q-14 -82 57 -82q72 0 91 79l53 297h150l-58 -330q-5 -30 25 -30z
" />
    <glyph glyph-name="uni044C.loclBGR" horiz-adv-x="495" 
d="M212 368h79q93 0 139 -55q47 -55 31 -141q-15 -85 -78.5 -135.5t-158.5 -50.5q-98 0 -152 59q-53 59 -37 147l54 308h146zM317 182q5 25 -7.5 40.5t-41.5 15.5h-79l-8 -46q-5 -30 10 -48t47 -18q29 0 52.5 17t26.5 39z" />
    <glyph glyph-name="uni044A.loclBGR" horiz-adv-x="585" 
d="M302 368h79q93 0 139 -55q47 -55 31 -141q-15 -85 -78.5 -135.5t-158.5 -50.5q-98 0 -152 59q-53 59 -37 147l29 168h-135l25 140h281zM407 182q5 25 -7.5 40.5t-41.5 15.5h-79l-8 -46q-5 -30 10 -48t47 -18q29 0 52.5 17t26.5 39z" />
    <glyph glyph-name="uni044E.loclBGR" horiz-adv-x="815" 
d="M561 514q78 0 135 -42t78.5 -106.5t7.5 -131.5q-18 -102 -100 -175t-191 -73q-99 0 -160.5 53.5t-71.5 140.5h-66l-32 -180h-150l123 700h150l-67 -380h61q33 84 107 139q73 55 176 55zM635 250q10 52 -17 85t-77 33q-49 0 -86.5 -32.5t-47.5 -85.5q-9 -53 17 -85.5
t75 -32.5q50 0 88.5 33t47.5 85z" />
    <glyph glyph-name="zero.sinf" horiz-adv-x="408" 
d="M134 -174q-81 0 -124 61q-43 60 -26 159q18 99 75 153.5t141 54.5q81 0 124 -61q44 -62 26 -159q-17 -99 -74 -153.5t-142 -54.5zM109 40q-17 -92 42 -92q57 0 74 92t-42 92q-57 0 -74 -92z" />
    <glyph glyph-name="one.sinf" horiz-adv-x="274" 
d="M-10 196l130 44h107l-71 -400h-122l48 271l-81 -22z" />
    <glyph glyph-name="two.sinf" horiz-adv-x="356" 
d="M259 -160h-306l13 77l173 151q35 30 39 42l2 8q2 12 -4.5 19t-19.5 7q-35 0 -63 -49l-95 60q60 99 174 99q68 0 105 -39t25 -104q-5 -29 -25 -54t-63 -60l-55 -47h119z" />
    <glyph glyph-name="three.sinf" horiz-adv-x="343" 
d="M21 240h281l-15 -85l-79 -83q36 -16 53 -46.5t10 -70.5q-23 -129 -175 -129q-117 0 -150 90l107 57q17 -42 56 -42q36 0 40 31q2 15 -7.5 22.5t-27.5 7.5h-25l-31 61l73 77h-129z" />
    <glyph glyph-name="four.sinf" horiz-adv-x="358" 
d="M264 11h36l-19 -110h-36l-11 -61h-116l11 61h-180l19 110l156 229h134l-152 -229h42l11 61h116z" />
    <glyph glyph-name="five.sinf" horiz-adv-x="335" 
d="M292 240l-19 -110h-141l-11 -41h23q62 0 96 -36.5t22 -101.5q-21 -125 -166 -125q-112 0 -145 90l104 54q13 -42 55 -42q38 0 43 32t-31 32h-135l60 248h245z" />
    <glyph glyph-name="six.sinf" horiz-adv-x="342" 
d="M277 240l-103 -130q55 -10 83 -50.5t19 -96.5q-11 -64 -58 -100.5t-119 -36.5q-69 0 -106 43q-37 42 -26 106q8 46 35 79l146 186h129zM166 -31q8 42 -37 42q-41 0 -51 -42q-5 -20 5 -31.5t31 -11.5q43 0 52 43z" />
    <glyph glyph-name="seven.sinf" horiz-adv-x="295" 
d="M-21 130l19 110h280l-16 -93l-170 -307h-129l161 290h-145z" />
    <glyph glyph-name="eight.sinf" horiz-adv-x="354" 
d="M299 128q-9 -54 -57 -82q47 -38 38 -100q-8 -57 -53.5 -88.5t-121.5 -31.5q-72 0 -109.5 35.5t-27.5 92.5q11 67 75 98q-40 33 -29 86q10 54 53.5 85t107.5 31q60 0 97 -35q38 -35 27 -91zM113 120q-3 -16 6.5 -24t29.5 -8q40 0 46 32q3 15 -7 24t-28 9q-41 0 -47 -33z
M170 -33q8 38 -36 38q-42 0 -50 -38q-6 -39 36 -39q44 0 50 39z" />
    <glyph glyph-name="nine.sinf" horiz-adv-x="342" 
d="M169 254q69 0 106 -43q37 -42 26 -106q-8 -46 -35 -79l-146 -186h-129l103 130q-55 10 -83 50.5t-19 96.5q11 64 58 100.5t119 36.5zM102 111q-8 -42 37 -42q41 0 51 42q5 20 -5 31.5t-31 11.5q-43 0 -52 -43z" />
    <glyph glyph-name="zero.tf" 
d="M252 -14q-131 0 -194 105q-63 104 -34 269q28 164 117 259t223 95q132 0 193 -105q63 -104 34 -269q-29 -166 -117 -260t-222 -94zM271 142q124 0 161 208t-88 208q-124 0 -161 -208t88 -208z" />
    <glyph glyph-name="one.tf" 
d="M459 700l-96 -546h185l-27 -154h-540l27 154h195l65 371l-129 -34l-15 143l195 66h140z" />
    <glyph glyph-name="two.tf" 
d="M496 0h-510l20 116l297 235q98 77 107 128q6 33 -11.5 56t-59.5 23q-73 0 -128 -85l-127 83q47 77 120.5 117.5t159.5 40.5q103 0 164 -70q61 -68 44 -165q-10 -64 -50 -114q-38 -49 -117 -111l-126 -100h244z" />
    <glyph glyph-name="three.tf" 
d="M121 700h480l-22 -130l-152 -149q66 -28 99.5 -86t20.5 -130q-18 -107 -97 -163t-197 -56q-203 0 -250 165l147 77q27 -86 115 -86q105 0 122 83q6 39 -17.5 61t-76.5 22h-30l-47 94l150 148h-271z" />
    <glyph glyph-name="four.tf" 
d="M497 260h70l-26 -148h-70l-20 -112h-162l20 112h-328l26 148l292 440h180l-293 -440h149l26 150h162z" />
    <glyph glyph-name="five.tf" 
d="M599 700l-26 -150h-285l-24 -96h72q106 0 169 -67q63 -66 43 -177q-18 -108 -96.5 -166t-193.5 -58q-206 0 -255 165l147 77q27 -86 121 -86q104 0 119 78q6 37 -16.5 57.5t-74.5 20.5h-231l99 402h432z" />
    <glyph glyph-name="six.tf" 
d="M548 700l-188 -212q113 -11 164 -86q52 -74 37 -172q-17 -101 -96 -173q-80 -71 -211 -71q-91 0 -151 40t-80 98.5t-8 126.5q13 78 73 144l272 305h188zM403 238q9 47 -18.5 74.5t-78.5 27.5q-54 0 -89 -27t-44 -75t18 -75t79 -27t88 27t45 75z" />
    <glyph glyph-name="seven.tf" 
d="M72 546l27 154h530l-23 -134l-350 -566h-178l336 546h-342z" />
    <glyph glyph-name="eight.tf" 
d="M588 502q-16 -92 -102 -141q43 -30 61.5 -74.5t9.5 -95.5q-17 -97 -97.5 -151t-209.5 -54q-130 0 -196 60q-65 60 -49 157q19 108 129 165q-69 53 -52 142q17 98 97 151t189 53t173 -57q64 -56 47 -155zM273 545q-28 -19 -33 -49t16 -49q20 -19 65 -19q44 0 72 19t33 49
t-16 49q-20 19 -65 19q-44 0 -72 -19zM402 220q7 40 -19 62t-83 22t-91 -22t-41 -62q-8 -40 18.5 -62t83.5 -22q116 0 132 84z" />
    <glyph glyph-name="nine.tf" 
d="M361 714q91 0 151 -40t80 -98.5t8 -126.5q-13 -78 -73 -144l-272 -305h-188l188 212q-112 10 -165 86q-51 75 -36 172q17 103 95 172q79 72 212 72zM212 462q-9 -47 18.5 -74.5t78.5 -27.5q54 0 89 27t44 75t-18 75t-79 27t-88 -27t-45 -75z" />
    <glyph glyph-name="zero.dnom" horiz-adv-x="408" 
d="M162 -14q-81 0 -124 61q-43 60 -26 159q18 99 75 153.5t141 54.5q81 0 124 -61q44 -62 26 -159q-17 -99 -74 -153.5t-142 -54.5zM137 200q-17 -92 42 -92q57 0 74 92t-42 92q-57 0 -74 -92z" />
    <glyph glyph-name="one.dnom" horiz-adv-x="274" 
d="M18 356l130 44h107l-71 -400h-122l48 271l-81 -22z" />
    <glyph glyph-name="two.dnom" horiz-adv-x="361" 
d="M287 0h-306l13 77l173 151l5 4q30 26 35 42l1 4q2 12 -4.5 19t-19.5 7q-35 0 -63 -49l-95 60q60 99 174 99q68 0 105 -39t25 -104q-5 -29 -25 -54t-63 -60l-55 -47h119z" />
    <glyph glyph-name="three.dnom" horiz-adv-x="346" 
d="M49 400h281l-15 -85l-79 -83q36 -16 53 -46.5t10 -70.5q-23 -129 -175 -129q-117 0 -150 90l107 57q17 -42 56 -42q36 0 40 31q2 15 -7.5 22.5t-27.5 7.5h-25l-31 61l73 77h-129z" />
    <glyph glyph-name="four.dnom" horiz-adv-x="357" 
d="M292 171h36l-19 -110h-36l-11 -61h-116l11 61h-180l19 110l156 229h134l-152 -229h42l11 61h116z" />
    <glyph glyph-name="five.dnom" horiz-adv-x="332" 
d="M320 400l-19 -110h-141l-11 -41h23q62 0 96 -36.5t22 -101.5q-21 -125 -166 -125q-112 0 -145 90l104 54q13 -42 55 -42q38 0 43 32t-31 32h-135l60 248h245z" />
    <glyph glyph-name="six.dnom" horiz-adv-x="341" 
d="M305 400l-103 -130q55 -10 83 -50.5t19 -96.5q-11 -64 -58 -100.5t-119 -36.5q-69 0 -106 43q-37 42 -26 106q8 46 35 79l146 186h129zM194 129q8 42 -37 42q-41 0 -51 -42q-5 -20 5 -31.5t31 -11.5q43 0 52 43z" />
    <glyph glyph-name="seven.dnom" horiz-adv-x="295" 
d="M7 290l19 110h280l-16 -93l-170 -307h-129l161 290h-145z" />
    <glyph glyph-name="eight.dnom" horiz-adv-x="353" 
d="M327 288q-9 -54 -57 -82q47 -38 38 -100q-8 -57 -53.5 -88.5t-121.5 -31.5q-72 0 -109.5 35.5t-27.5 92.5q11 67 75 98q-40 33 -29 86q10 54 53.5 85t107.5 31q60 0 97 -35q38 -35 27 -91zM141 280q-3 -16 6.5 -24t29.5 -8q40 0 46 32q3 15 -7 24t-28 9q-41 0 -47 -33z
M198 127q8 38 -36 38q-42 0 -50 -38q-6 -39 36 -39q44 0 50 39z" />
    <glyph glyph-name="nine.dnom" horiz-adv-x="341" 
d="M197 414q69 0 106 -43q37 -42 26 -106q-8 -46 -35 -79l-146 -186h-129l103 130q-55 10 -83 50.5t-19 96.5q11 64 58 100.5t119 36.5zM130 271q-7 -42 37 -42q41 0 51 42q5 20 -5 31.5t-31 11.5q-43 0 -52 -43z" />
    <glyph glyph-name="zero.numr" horiz-adv-x="408" 
d="M215 286q-81 0 -124 61q-43 60 -26 159q18 99 75 153.5t141 54.5q81 0 124 -61q44 -62 26 -159q-17 -99 -74 -153.5t-142 -54.5zM190 500q-17 -92 42 -92q57 0 74 92t-42 92q-57 0 -74 -92z" />
    <glyph glyph-name="one.numr" horiz-adv-x="274" 
d="M71 656l130 44h107l-71 -400h-122l48 271l-81 -22z" />
    <glyph glyph-name="two.numr" horiz-adv-x="361" 
d="M340 300h-306l13 77l173 151l5 4q30 26 35 42l1 4q2 12 -4.5 19t-19.5 7q-35 0 -63 -49l-95 60q60 99 174 99q68 0 105 -39t25 -104q-5 -29 -25 -54t-63 -60l-55 -47h119z" />
    <glyph glyph-name="three.numr" horiz-adv-x="346" 
d="M102 700h281l-15 -85l-79 -83q36 -16 53 -46.5t10 -70.5q-22 -129 -175 -129q-117 0 -150 90l107 57q16 -42 56 -42q36 0 40 31q2 15 -7.5 22.5t-27.5 7.5h-25l-31 61l73 77h-129z" />
    <glyph glyph-name="four.numr" horiz-adv-x="357" 
d="M345 471h36l-19 -110h-36l-11 -61h-116l11 61h-180l19 110l156 229h134l-152 -229h42l11 61h116z" />
    <glyph glyph-name="five.numr" horiz-adv-x="332" 
d="M373 700l-19 -110h-141l-11 -41h23q62 0 96 -36.5t22 -101.5q-21 -125 -166 -125q-112 0 -145 90l104 54q14 -42 55 -42q38 0 43 32t-31 32h-135l60 248h245z" />
    <glyph glyph-name="six.numr" horiz-adv-x="341" 
d="M358 700l-103 -130q55 -10 83 -50.5t19 -96.5q-11 -64 -58 -100.5t-119 -36.5q-69 0 -106 43q-37 42 -26 106q8 46 35 79l146 186h129zM247 429q7 42 -37 42q-40 0 -51 -42q-5 -20 5 -31.5t31 -11.5q43 0 52 43z" />
    <glyph glyph-name="seven.numr" horiz-adv-x="295" 
d="M60 590l19 110h280l-16 -93l-170 -307h-129l161 290h-145z" />
    <glyph glyph-name="eight.numr" horiz-adv-x="354" 
d="M380 588q-9 -54 -57 -82q47 -38 38 -100q-8 -57 -53.5 -88.5t-121.5 -31.5q-72 0 -109.5 35.5t-27.5 92.5q11 67 75 98q-40 33 -29 86q10 54 53.5 85t107.5 31q60 0 97 -35q38 -35 27 -91zM194 580q-3 -16 6.5 -24t29.5 -8q40 0 46 32q3 15 -7 24t-28 9q-41 0 -47 -33z
M251 427q8 38 -36 38q-42 0 -50 -38q-7 -39 36 -39t50 39z" />
    <glyph glyph-name="nine.numr" horiz-adv-x="341" 
d="M250 714q69 0 106 -43q37 -42 26 -106q-8 -46 -35 -79l-146 -186h-129l103 130q-55 10 -83 50.5t-19 96.5q11 64 58 100.5t119 36.5zM183 571q-7 -42 37 -42q40 0 51 42q5 20 -5 31.5t-31 11.5q-43 0 -52 -43z" />
    <glyph glyph-name="zero.sups" horiz-adv-x="408" 
d="M243 446q-81 0 -124 61q-43 60 -26 159q18 99 75 153.5t141 54.5q81 0 124 -61q44 -62 26 -159q-17 -99 -74 -153.5t-142 -54.5zM218 660q-17 -92 42 -92q57 0 74 92t-42 92q-57 0 -74 -92z" />
    <glyph glyph-name="one.sups" horiz-adv-x="274" 
d="M99 816l130 44h107l-71 -400h-122l48 271l-81 -22z" />
    <glyph glyph-name="two.sups" horiz-adv-x="361" 
d="M368 460h-306l13 77l173 151l5 4q30 26 35 42l1 4q2 12 -4.5 19t-19.5 7q-35 0 -63 -49l-95 60q60 99 174 99q68 0 105 -39t25 -104q-5 -29 -25 -54t-63 -60l-55 -47h119z" />
    <glyph glyph-name="three.sups" horiz-adv-x="347" 
d="M131 860h281l-15 -85l-79 -83q36 -16 53 -46.5t10 -70.5q-23 -129 -175 -129q-117 0 -150 90l107 57q17 -42 56 -42q36 0 40 31q2 15 -7.5 22.5t-27.5 7.5h-25l-31 61l73 77h-129z" />
    <glyph glyph-name="four.sups" horiz-adv-x="357" 
d="M373 631h36l-19 -110h-36l-11 -61h-116l11 61h-180l19 110l156 229h134l-152 -229h42l11 61h116z" />
    <glyph glyph-name="five.sups" horiz-adv-x="331" 
d="M401 860l-19 -110h-141l-11 -41h23q62 0 96 -36.5t22 -101.5q-21 -125 -166 -125q-112 0 -145 90l104 54q13 -42 55 -42q38 0 43 32t-31 32h-135l60 248h245z" />
    <glyph glyph-name="six.sups" horiz-adv-x="341" 
d="M386 860l-103 -130q55 -10 83 -50.5t19 -96.5q-11 -64 -58 -100.5t-119 -36.5q-69 0 -106 43q-37 42 -26 106q8 46 35 79l146 186h129zM275 589q7 42 -37 42q-40 0 -51 -42q-5 -20 5 -31.5t31 -11.5q43 0 52 43z" />
    <glyph glyph-name="seven.sups" horiz-adv-x="296" 
d="M89 750l19 110h280l-16 -93l-170 -307h-129l161 290h-145z" />
    <glyph glyph-name="eight.sups" horiz-adv-x="353" 
d="M408 748q-9 -54 -57 -82q47 -38 38 -100q-8 -57 -53.5 -88.5t-121.5 -31.5q-72 0 -109.5 35.5t-27.5 92.5q11 67 75 98q-40 33 -29 86q10 54 53.5 85t107.5 31q60 0 97 -35q38 -35 27 -91zM222 740q-3 -16 6.5 -24t29.5 -8q40 0 46 32q3 15 -7 24t-28 9q-41 0 -47 -33z
M279 587q8 38 -36 38q-42 0 -50 -38q-7 -39 36 -39t50 39z" />
    <glyph glyph-name="nine.sups" horiz-adv-x="341" 
d="M278 874q69 0 106 -43q37 -42 26 -106q-8 -46 -35 -79l-146 -186h-129l103 130q-55 10 -83 50.5t-19 96.5q11 64 58 100.5t119 36.5zM211 731q-7 -42 37 -42q40 0 51 42q5 20 -5 31.5t-31 11.5q-43 0 -52 -43z" />
    <glyph glyph-name="cent.tf" 
d="M305 234h8q63 0 104 56l121 -77q-37 -62 -99.5 -94.5t-136.5 -32.5q-30 0 -67 8l-46 -94h-62l56 113q-66 32 -96.5 98t-17.5 149q17 110 101 182t197 72q32 0 61 -6l46 92h62l-55 -111q69 -35 99 -105l-137 -72q-10 23 -31 38zM219 352q-12 -66 33 -99l106 213h-4
q-51 0 -88.5 -31.5t-46.5 -82.5z" />
    <glyph glyph-name="dollar.tf" 
d="M393 554l-25 -138q44 -15 73.5 -30.5t60.5 -42.5t42.5 -68t1.5 -94q-15 -88 -82.5 -138t-171.5 -56l-15 -87h-70l16 88q-89 9 -145.5 50.5t-75.5 110.5l146 75q24 -74 101 -85l26 147q-1 0 -1 0.5t-1 0.5q-93 36 -140 81q-56 56 -40 152q17 98 89 145q73 47 169 49l15 86
h70l-16 -92q128 -27 174 -142l-141 -74q-22 45 -60 62zM256 507q-5 -38 47 -63l21 118q-62 -6 -68 -55zM383 199q6 36 -43 60l-20 -118q55 13 63 58z" />
    <glyph glyph-name="Euro.tf" 
d="M311 142q63 0 110 75l124 -79q-84 -152 -251 -152q-97 0 -151 73q-54 74 -53 195h-69l15 84h60q3 13 4 22q0 2 1 5t1 5h-61l15 84h66q40 126 113.5 193t177.5 67q72 0 124.5 -39.5t76.5 -109.5l-139 -73q-21 66 -80 66q-72 0 -110 -104h151l-15 -84h-158q0 -1 -1 -5
t-2 -7.5t-1 -7.5l-2 -12h159l-15 -84h-153q-3 -112 63 -112z" />
    <glyph glyph-name="florin.tf" 
d="M290 424l51 112q101 222 299 169l-26 -150q-36 16 -73 2.5t-55 -54.5l-36 -79h111l-26 -144h-152l-143 -312q-101 -222 -299 -169l26 150q36 -16 73 -2.5t55 54.5l128 279h-108l26 144h149z" />
    <glyph glyph-name="uni20BD.tf" 
d="M159 700h235q96 0 157 -76q62 -75 44 -174q-17 -101 -93 -161q-77 -59 -190 -59h-76l-7 -41h180l-17 -98h-180l-16 -91h-160l16 91h-70l17 98h70l7 41h-69l24 140h70zM368 550h-75l-32 -180h75q37 0 65.5 26t35.5 64t-12.5 64t-56.5 26z" />
    <glyph glyph-name="sterling.tf" 
d="M464 269h-205l-20 -115h314l-27 -154h-540l27 154h66l20 115h-55l25 140h55l14 81q20 110 86.5 167t168.5 57q76 0 131.5 -39.5t78.5 -109.5l-144 -76q-24 69 -84 69q-30 0 -50.5 -18t-26.5 -50l-14 -81h205z" />
    <glyph glyph-name="yen.tf" 
d="M469 700h190l-237 -333h124l-16 -88h-155l-7 -40h155l-15 -88h-155l-27 -151h-160l27 151h-155l15 88h155l7 40h-155l16 88h124l-121 333h174l69 -227z" />
    <glyph glyph-name="brevecy" horiz-adv-x="380" 
d="M395 559h-300l22 130h300z" />
    </font>
</defs>
</svg>
